<svg xmlns="http://www.w3.org/2000/svg" xmlns:xlink="http://www.w3.org/1999/xlink" fill="none" version="1.1" width="690" height="199" viewBox="0 0 690 199"><defs><linearGradient x1="0.02187499962747097" y1="0.06538461893796921" x2="1" y2="0.949999988079071" id="master_svg0_38_4622"><stop offset="0%" stop-color="#6DFCA1" stop-opacity="1"/><stop offset="97.47610688209534%" stop-color="#72D9FC" stop-opacity="1"/></linearGradient><clipPath id="master_svg1_81_11667"><rect x="46" y="19" width="166" height="160" rx="0"/></clipPath><clipPath id="master_svg2_81_11699"><rect x="496.162109375" y="147.6298828125" width="164.16757202148438" height="28.793811798095703" rx="0"/></clipPath><clipPath id="master_svg3_81_11714"><rect x="446" y="142" width="38.00175094604492" height="36.371131896972656" rx="0"/></clipPath></defs><g><g><path d="M0,96.6907L0,86.6736Q0.355356,86.706,0.712193,86.706Q0.90428,86.706,1.09613,86.6966Q1.28799,86.6872,1.47915,86.6684Q1.67031,86.6496,1.86032,86.6214Q2.05033,86.5932,2.23872,86.5558Q2.42712,86.5184,2.61345,86.4717Q2.79978,86.4251,2.9836,86.3694Q3.16741,86.3137,3.34827,86.249Q3.52913,86.1844,3.70659,86.1109Q3.88406,86.0375,4.0577,85.9554Q4.23135,85.8734,4.40075,85.7829Q4.57016,85.6924,4.73491,85.5938Q4.89967,85.4951,5.05939,85.3885Q5.2191,85.2819,5.37339,85.1675Q5.52767,85.0532,5.67616,84.9315Q5.82464,84.8097,5.96697,84.6808Q6.10929,84.5519,6.24512,84.4162Q6.38095,84.2805,6.50994,84.1383Q6.63894,83.9961,6.7608,83.8478Q6.88266,83.6994,6.99708,83.5452Q7.11151,83.3911,7.21823,83.2315Q7.32494,83.072,7.4237,82.9073Q7.52245,82.7427,7.613,82.5735Q7.70355,82.4042,7.78568,82.2307Q7.8678,82.0572,7.94131,81.8799Q8.01482,81.7026,8.07953,81.5219Q8.14424,81.3412,8.2,81.1576Q8.25576,80.9739,8.30244,80.7878Q8.34911,80.6016,8.38658,80.4134Q8.42406,80.2251,8.45224,80.0353Q8.48043,79.8455,8.49926,79.6545Q8.51808,79.4635,8.52751,79.2718Q8.53693,79.0801,8.53693,78.8882Q8.53693,78.6963,8.52751,78.5046Q8.51808,78.3129,8.49926,78.1219Q8.48043,77.9309,8.45224,77.7411Q8.42406,77.5512,8.38658,77.363Q8.34911,77.1747,8.30244,76.9886Q8.25576,76.8024,8.2,76.6188Q8.14424,76.4351,8.07953,76.2544Q8.01482,76.0737,7.94131,75.8964Q7.8678,75.7191,7.78568,75.5456Q7.70355,75.3721,7.613,75.2029Q7.52245,75.0336,7.4237,74.869Q7.32494,74.7044,7.21823,74.5448Q7.11151,74.3852,6.99708,74.2311Q6.88266,74.0769,6.7608,73.9286Q6.63894,73.7802,6.50994,73.638Q6.38095,73.4958,6.24512,73.3601Q6.10929,73.2244,5.96697,73.0955Q5.82464,72.9666,5.67616,72.8449Q5.52767,72.7231,5.37339,72.6088Q5.2191,72.4945,5.05939,72.3878Q4.89967,72.2812,4.73491,72.1826Q4.57016,72.0839,4.40075,71.9934Q4.23134,71.903,4.0577,71.8209Q3.88406,71.7388,3.70659,71.6654Q3.52913,71.592,3.34827,71.5273Q3.16741,71.4627,2.9836,71.4069Q2.79978,71.3512,2.61345,71.3046Q2.42712,71.258,2.23872,71.2205Q2.05033,71.1831,1.86032,71.1549Q1.67031,71.1268,1.47915,71.108Q1.28799,71.0891,1.09613,71.0797Q0.90428,71.0703,0.712193,71.0703Q0.355356,71.0703,0,71.1028L0,10.3918Q0,10.1366,0.0125173,9.88185Q0.0250346,9.62706,0.0500391,9.37318Q0.0750436,9.11931,0.112475,8.86696Q0.149906,8.61462,0.199675,8.36442Q0.249443,8.11422,0.311428,7.86676Q0.373413,7.6193,0.447465,7.37519Q0.521518,7.13107,0.607459,6.89088Q0.693401,6.65068,0.791025,6.415Q0.888649,6.17932,0.997719,5.94871Q1.10679,5.71809,1.22704,5.49311Q1.3473,5.26813,1.47845,5.04932Q1.6096,4.83051,1.75133,4.6184Q1.89305,4.40629,2.04502,4.20139Q2.19698,3.99649,2.35882,3.79929Q2.52065,3.6021,2.69197,3.41308Q2.86329,3.22406,3.04367,3.04367Q3.22406,2.86329,3.41308,2.69197Q3.6021,2.52065,3.79929,2.35882Q3.99649,2.19698,4.20139,2.04502Q4.40629,1.89305,4.6184,1.75133Q4.83051,1.6096,5.04932,1.47845Q5.26813,1.3473,5.49311,1.22704Q5.71809,1.10679,5.94871,0.997719Q6.17932,0.888649,6.415,0.791025Q6.65068,0.693401,6.89088,0.607459Q7.13107,0.521518,7.37519,0.447465Q7.6193,0.373413,7.86676,0.311428Q8.11422,0.249443,8.36442,0.199675Q8.61462,0.149906,8.86697,0.112475Q9.11931,0.0750436,9.37318,0.0500391Q9.62706,0.0250346,9.88185,0.0125173Q10.1366,0,10.3918,0L679.608,0Q679.863,0,680.118,0.0125173Q680.373,0.0250346,680.627,0.0500391Q680.881,0.0750436,681.133,0.112475Q681.385,0.149906,681.635,0.199675Q681.886,0.249443,682.133,0.311428Q682.381,0.373413,682.625,0.447465Q682.869,0.521518,683.109,0.607459Q683.349,0.693401,683.585,0.791025Q683.821,0.888649,684.051,0.997719Q684.282,1.10679,684.507,1.22704Q684.732,1.3473,684.951,1.47845Q685.169,1.6096,685.382,1.75133Q685.594,1.89305,685.799,2.04502Q686.003,2.19698,686.201,2.35882Q686.398,2.52065,686.587,2.69197Q686.776,2.86329,686.956,3.04367Q687.137,3.22406,687.308,3.41308Q687.479,3.6021,687.641,3.79929Q687.803,3.99649,687.955,4.20139Q688.107,4.40629,688.249,4.6184Q688.39,4.83051,688.521,5.04932Q688.653,5.26813,688.773,5.49311Q688.893,5.71809,689.002,5.94871Q689.111,6.17932,689.209,6.415Q689.306,6.65068,689.392,6.89088Q689.478,7.13107,689.552,7.37519Q689.627,7.6193,689.689,7.86676Q689.75,8.11422,689.8,8.36442Q689.85,8.61462,689.887,8.86697Q689.925,9.11931,689.95,9.37318Q689.975,9.62706,689.987,9.88185Q690,10.1366,690,10.3918L690,68.261Q689.82,68.2774,689.641,68.3022Q689.461,68.3269,689.283,68.3599Q689.105,68.3929,688.929,68.4341Q688.753,68.4753,688.579,68.5246Q688.405,68.5739,688.233,68.6311Q688.062,68.6884,687.893,68.7535Q687.724,68.8186,687.559,68.8915Q687.393,68.9644,687.231,69.0448Q687.069,69.1252,686.911,69.213Q686.753,69.3009,686.599,69.3959Q686.445,69.4909,686.295,69.593Q686.146,69.695,686.002,69.8038Q685.857,69.9127,685.718,70.0281Q685.578,70.1434,685.445,70.2651Q685.311,70.3868,685.183,70.5146Q685.055,70.6423,684.933,70.7758Q684.811,70.9094,684.695,71.0484Q684.579,71.1874,684.47,71.3316Q684.361,71.4758,684.259,71.6249Q684.157,71.774,684.061,71.9276Q683.966,72.0813,683.878,72.2392Q683.79,72.3971,683.709,72.5589Q683.628,72.7206,683.555,72.886Q683.482,73.0514,683.417,73.2199Q683.351,73.3885,683.294,73.5599Q683.236,73.7312,683.187,73.9051Q683.137,74.079,683.096,74.255Q683.054,74.4309,683.021,74.6086Q682.987,74.7863,682.962,74.9654Q682.937,75.1444,682.921,75.3244Q682.904,75.5044,682.896,75.685Q682.887,75.8656,682.887,76.0464Q682.887,76.2271,682.896,76.4077Q682.904,76.5883,682.921,76.7683Q682.937,76.9483,682.962,77.1274Q682.987,77.3064,683.021,77.4841Q683.054,77.6618,683.096,77.8378Q683.137,78.0137,683.187,78.1876Q683.236,78.3615,683.294,78.5329Q683.351,78.7043,683.417,78.8728Q683.482,79.0414,683.555,79.2067Q683.628,79.3721,683.709,79.5339Q683.79,79.6956,683.878,79.8535Q683.966,80.0114,684.061,80.1651Q684.156,80.3188,684.259,80.4678Q684.361,80.6169,684.47,80.7611Q684.579,80.9053,684.695,81.0443Q684.811,81.1833,684.933,81.3169Q685.055,81.4504,685.183,81.5781Q685.311,81.7059,685.445,81.8276Q685.578,81.9493,685.718,82.0647Q685.857,82.1801,686.002,82.2889Q686.146,82.3977,686.295,82.4997Q686.445,82.6018,686.599,82.6968Q686.753,82.7919,686.911,82.8797Q687.069,82.9675,687.231,83.0479Q687.393,83.1284,687.559,83.2012Q687.724,83.2741,687.893,83.3392Q688.062,83.4043,688.233,83.4616Q688.405,83.5189,688.579,83.5681Q688.753,83.6174,688.929,83.6586Q689.105,83.6998,689.283,83.7328Q689.461,83.7658,689.641,83.7906Q689.82,83.8153,690,83.8318L690,93.8469Q689.82,93.8633,689.641,93.8881Q689.461,93.9128,689.283,93.9459Q689.105,93.9789,688.929,94.0201Q688.753,94.0612,688.579,94.1105Q688.405,94.1598,688.233,94.217Q688.062,94.2743,687.893,94.3395Q687.724,94.4046,687.559,94.4774Q687.393,94.5503,687.231,94.6307Q687.069,94.7112,686.911,94.799Q686.753,94.8868,686.599,94.9818Q686.445,95.0769,686.295,95.1789Q686.146,95.281,686.002,95.3898Q685.857,95.4986,685.718,95.614Q685.578,95.7294,685.445,95.8511Q685.311,95.9728,685.183,96.1005Q685.055,96.2283,684.933,96.3618Q684.811,96.4953,684.695,96.6343Q684.579,96.7733,684.47,96.9175Q684.361,97.0617,684.259,97.2108Q684.157,97.3599,684.061,97.5136Q683.966,97.6672,683.878,97.8251Q683.79,97.983,683.709,98.1448Q683.628,98.3066,683.555,98.4719Q683.482,98.6373,683.417,98.8059Q683.351,98.9744,683.294,99.1458Q683.236,99.3172,683.187,99.4911Q683.137,99.6649,683.096,99.8409Q683.054,100.017,683.021,100.195Q682.987,100.372,682.962,100.551Q682.937,100.73,682.921,100.91Q682.904,101.09,682.896,101.271Q682.887,101.452,682.887,101.632Q682.887,101.813,682.896,101.994Q682.904,102.174,682.921,102.354Q682.937,102.534,682.962,102.713Q682.987,102.892,683.021,103.07Q683.054,103.248,683.096,103.424Q683.137,103.6,683.187,103.774Q683.236,103.947,683.294,104.119Q683.351,104.29,683.417,104.459Q683.482,104.627,683.555,104.793Q683.628,104.958,683.709,105.12Q683.79,105.282,683.878,105.439Q683.966,105.597,684.061,105.751Q684.156,105.905,684.259,106.054Q684.361,106.203,684.47,106.347Q684.579,106.491,684.695,106.63Q684.811,106.769,684.933,106.903Q685.055,107.036,685.183,107.164Q685.311,107.292,685.445,107.414Q685.578,107.535,685.718,107.651Q685.857,107.766,686.002,107.875Q686.146,107.984,686.295,108.086Q686.445,108.188,686.599,108.283Q686.753,108.378,686.911,108.466Q687.069,108.553,687.231,108.634Q687.393,108.714,687.559,108.787Q687.724,108.86,687.893,108.925Q688.062,108.99,688.233,109.048Q688.405,109.105,688.579,109.154Q688.753,109.203,688.929,109.245Q689.105,109.286,689.283,109.319Q689.461,109.352,689.641,109.377Q689.82,109.401,690,109.418L690,119.433Q689.82,119.449,689.641,119.474Q689.461,119.499,689.283,119.532Q689.105,119.565,688.929,119.606Q688.753,119.647,688.579,119.696Q688.405,119.746,688.233,119.803Q688.062,119.86,687.893,119.925Q687.724,119.991,687.559,120.063Q687.393,120.136,687.231,120.217Q687.069,120.297,686.911,120.385Q686.753,120.473,686.599,120.568Q686.445,120.663,686.295,120.765Q686.146,120.867,686.002,120.976Q685.857,121.085,685.718,121.2Q685.578,121.315,685.445,121.437Q685.311,121.559,685.183,121.686Q685.055,121.814,684.933,121.948Q684.811,122.081,684.695,122.22Q684.579,122.359,684.47,122.503Q684.361,122.648,684.259,122.797Q684.157,122.946,684.061,123.1Q683.966,123.253,683.878,123.411Q683.79,123.569,683.709,123.731Q683.628,123.893,683.555,124.058Q683.482,124.223,683.417,124.392Q683.351,124.56,683.294,124.732Q683.236,124.903,683.187,125.077Q683.137,125.251,683.096,125.427Q683.054,125.603,683.021,125.78Q682.987,125.958,682.962,126.137Q682.937,126.316,682.921,126.496Q682.904,126.676,682.896,126.857Q682.887,127.037,682.887,127.218Q682.887,127.399,682.896,127.58Q682.904,127.76,682.921,127.94Q682.937,128.12,682.962,128.299Q682.987,128.478,683.021,128.656Q683.054,128.834,683.096,129.01Q683.137,129.186,683.187,129.359Q683.236,129.533,683.294,129.705Q683.351,129.876,683.417,130.045Q683.482,130.213,683.555,130.379Q683.628,130.544,683.709,130.706Q683.79,130.868,683.878,131.025Q683.966,131.183,684.061,131.337Q684.156,131.491,684.259,131.64Q684.361,131.789,684.47,131.933Q684.579,132.077,684.695,132.216Q684.811,132.355,684.933,132.489Q685.055,132.622,685.183,132.75Q685.311,132.878,685.445,132.999Q685.578,133.121,685.718,133.237Q685.857,133.352,686.002,133.461Q686.146,133.57,686.295,133.672Q686.445,133.774,686.599,133.869Q686.753,133.964,686.911,134.052Q687.069,134.139,687.231,134.22Q687.393,134.3,687.559,134.373Q687.724,134.446,687.893,134.511Q688.062,134.576,688.233,134.633Q688.405,134.691,688.579,134.74Q688.753,134.789,688.929,134.83Q689.105,134.872,689.283,134.905Q689.461,134.938,689.641,134.962Q689.82,134.987,690,135.004L690,188.608Q690,188.863,689.987,189.118Q689.975,189.373,689.95,189.627Q689.925,189.881,689.887,190.133Q689.85,190.385,689.8,190.636Q689.75,190.886,689.688,191.133Q689.627,191.381,689.552,191.625Q689.478,191.869,689.392,192.109Q689.306,192.349,689.209,192.585Q689.111,192.821,689.002,193.051Q688.893,193.282,688.773,193.507Q688.653,193.732,688.521,193.951Q688.39,194.169,688.249,194.382Q688.107,194.594,687.955,194.799Q687.803,195.003,687.641,195.201Q687.479,195.398,687.308,195.587Q687.137,195.776,686.956,195.956Q686.776,196.137,686.587,196.308Q686.398,196.479,686.201,196.641Q686.003,196.803,685.799,196.955Q685.594,197.107,685.382,197.249Q685.169,197.39,684.951,197.522Q684.732,197.653,684.507,197.773Q684.282,197.893,684.051,198.002Q683.821,198.111,683.585,198.209Q683.349,198.307,683.109,198.393Q682.869,198.478,682.625,198.553Q682.381,198.627,682.133,198.689Q681.886,198.751,681.635,198.8Q681.385,198.85,681.133,198.888Q680.881,198.925,680.627,198.95Q680.373,198.975,680.118,198.987Q679.863,199,679.608,199L10.3918,199Q10.1366,199,9.88185,198.987Q9.62706,198.975,9.37318,198.95Q9.11931,198.925,8.86696,198.888Q8.61462,198.85,8.36442,198.8Q8.11422,198.751,7.86676,198.689Q7.6193,198.627,7.37519,198.553Q7.13107,198.478,6.89088,198.393Q6.65068,198.307,6.415,198.209Q6.17932,198.111,5.94871,198.002Q5.71809,197.893,5.49311,197.773Q5.26813,197.653,5.04932,197.522Q4.83051,197.39,4.6184,197.249Q4.40629,197.107,4.20139,196.955Q3.99649,196.803,3.79929,196.641Q3.6021,196.479,3.41308,196.308Q3.22406,196.137,3.04367,195.956Q2.86329,195.776,2.69197,195.587Q2.52065,195.398,2.35882,195.201Q2.19698,195.004,2.04502,194.799Q1.89305,194.594,1.75133,194.382Q1.6096,194.169,1.47845,193.951Q1.3473,193.732,1.22704,193.507Q1.10679,193.282,0.997719,193.051Q0.888649,192.821,0.791025,192.585Q0.693401,192.349,0.607459,192.109Q0.521518,191.869,0.447465,191.625Q0.373413,191.381,0.311428,191.133Q0.249443,190.886,0.199675,190.636Q0.149906,190.385,0.112475,190.133Q0.0750436,189.881,0.0500391,189.627Q0.0250346,189.373,0.0125173,189.118Q0,188.863,0,188.608L0,135.004Q0.355356,135.036,0.712193,135.036Q0.90428,135.036,1.09613,135.027Q1.28799,135.017,1.47915,134.998Q1.67031,134.98,1.86032,134.951Q2.05033,134.923,2.23872,134.886Q2.42712,134.848,2.61345,134.802Q2.79978,134.755,2.9836,134.699Q3.16741,134.644,3.34827,134.579Q3.52913,134.514,3.70659,134.441Q3.88406,134.368,4.0577,134.285Q4.23135,134.203,4.40075,134.113Q4.57016,134.022,4.73491,133.924Q4.89967,133.825,5.05939,133.719Q5.2191,133.612,5.37339,133.498Q5.52767,133.383,5.67616,133.262Q5.82464,133.14,5.96697,133.011Q6.10929,132.882,6.24512,132.746Q6.38095,132.611,6.50994,132.468Q6.63894,132.326,6.7608,132.178Q6.88266,132.029,6.99708,131.875Q7.11151,131.721,7.21823,131.562Q7.32494,131.402,7.4237,131.237Q7.52245,131.073,7.613,130.904Q7.70355,130.734,7.78568,130.561Q7.8678,130.387,7.94131,130.21Q8.01482,130.033,8.07953,129.852Q8.14424,129.671,8.2,129.488Q8.25576,129.304,8.30244,129.118Q8.34911,128.932,8.38658,128.743Q8.42406,128.555,8.45224,128.365Q8.48043,128.176,8.49926,127.985Q8.51808,127.794,8.52751,127.602Q8.53693,127.41,8.53693,127.218Q8.53693,127.026,8.52751,126.835Q8.51808,126.643,8.49926,126.452Q8.48043,126.261,8.45224,126.071Q8.42406,125.881,8.38658,125.693Q8.34911,125.505,8.30244,125.319Q8.25576,125.132,8.2,124.949Q8.14424,124.765,8.07953,124.584Q8.01482,124.404,7.94131,124.226Q7.8678,124.049,7.78568,123.876Q7.70355,123.702,7.613,123.533Q7.52245,123.364,7.4237,123.199Q7.32494,123.034,7.21823,122.875Q7.11151,122.715,6.99708,122.561Q6.88266,122.407,6.7608,122.259Q6.63894,122.11,6.50994,121.968Q6.38095,121.826,6.24512,121.69Q6.10929,121.554,5.96697,121.426Q5.82464,121.297,5.67616,121.175Q5.52767,121.053,5.37339,120.939Q5.2191,120.825,5.05939,120.718Q4.89967,120.611,4.73491,120.513Q4.57016,120.414,4.40075,120.324Q4.23134,120.233,4.0577,120.151Q3.88406,120.069,3.70659,119.995Q3.52913,119.922,3.34827,119.857Q3.16741,119.793,2.9836,119.737Q2.79978,119.681,2.61345,119.635Q2.42712,119.588,2.23872,119.551Q2.05033,119.513,1.86032,119.485Q1.67031,119.457,1.47915,119.438Q1.28799,119.419,1.09613,119.41Q0.90428,119.4,0.712193,119.4Q0.355356,119.4,0,119.433L0,112.261Q0.355356,112.294,0.712193,112.294Q0.90428,112.294,1.09613,112.284Q1.28799,112.275,1.47915,112.256Q1.67031,112.237,1.86032,112.209Q2.05033,112.181,2.23872,112.144Q2.42712,112.106,2.61345,112.06Q2.79978,112.013,2.9836,111.957Q3.16741,111.902,3.34827,111.837Q3.52913,111.772,3.70659,111.699Q3.88406,111.625,4.0577,111.543Q4.23135,111.461,4.40075,111.371Q4.57016,111.28,4.73491,111.182Q4.89967,111.083,5.05939,110.976Q5.2191,110.87,5.37339,110.755Q5.52767,110.641,5.67616,110.519Q5.82464,110.398,5.96697,110.269Q6.10929,110.14,6.24512,110.004Q6.38095,109.868,6.50994,109.726Q6.63894,109.584,6.7608,109.436Q6.88266,109.287,6.99708,109.133Q7.11151,108.979,7.21823,108.819Q7.32494,108.66,7.4237,108.495Q7.52245,108.331,7.613,108.161Q7.70355,107.992,7.78568,107.819Q7.8678,107.645,7.94131,107.468Q8.01482,107.291,8.07953,107.11Q8.14424,106.929,8.2,106.745Q8.25576,106.562,8.30244,106.376Q8.34911,106.189,8.38658,106.001Q8.42406,105.813,8.45224,105.623Q8.48043,105.433,8.49926,105.242Q8.51808,105.051,8.52751,104.86Q8.53693,104.668,8.53693,104.476Q8.53693,104.284,8.52751,104.092Q8.51808,103.901,8.49926,103.71Q8.48043,103.519,8.45224,103.329Q8.42406,103.139,8.38658,102.951Q8.34911,102.763,8.30244,102.576Q8.25576,102.39,8.2,102.207Q8.14424,102.023,8.07953,101.842Q8.01482,101.662,7.94131,101.484Q7.8678,101.307,7.78568,101.133Q7.70355,100.96,7.613,100.791Q7.52245,100.621,7.4237,100.457Q7.32494,100.292,7.21823,100.133Q7.11151,99.9731,6.99708,99.8189Q6.88266,99.6648,6.7608,99.5165Q6.63894,99.3681,6.50994,99.2259Q6.38095,99.0837,6.24512,98.948Q6.10929,98.8123,5.96697,98.6834Q5.82464,98.5545,5.67616,98.4328Q5.52767,98.311,5.37339,98.1967Q5.2191,98.0824,5.05939,97.9757Q4.89967,97.8691,4.73491,97.7705Q4.57016,97.6718,4.40075,97.5813Q4.23134,97.4909,4.0577,97.4088Q3.88406,97.3267,3.70659,97.2533Q3.52913,97.1799,3.34827,97.1152Q3.16741,97.0506,2.9836,96.9948Q2.79978,96.9391,2.61345,96.8925Q2.42712,96.8459,2.23872,96.8084Q2.05033,96.771,1.86032,96.7428Q1.67031,96.7147,1.47915,96.6958Q1.28799,96.677,1.09613,96.6676Q0.90428,96.6582,0.712193,96.6582Q0.355356,96.6582,0,96.6907Z" fill-rule="evenodd" fill="url(#master_svg0_38_4622)" fill-opacity="1"/></g><g clip-path="url(#master_svg1_81_11667)"><g><path d="M210.465,82.15209999999999C208.103,70.21350000000001,203.074,59.2192,195.997,49.7859C190.142,41.942499999999995,182.878,35.1783,174.582,29.8305C174.562,29.8112,174.542,29.8016,174.533,29.7919C173.608,29.1849,172.663,28.606749999999998,171.708,28.04788C171.66899999999998,28.01897,171.639,27.9997,171.6,27.9997C168.136,25.96658,164.514,24.17435,160.75400000000002,22.66155C160.607,22.5941,160.459,22.53629,160.311,22.47847C160.08499999999998,22.37248,159.849,22.27612,159.622,22.1894C157.97899999999998,21.50527,156.286,20.87895,154.564,20.30081L154.357,20.23336C154.062,20.13701,153.747,20.03102,153.452,19.944295C153.353,19.905752,153.255,19.876845,153.156,19.847938C152.95999999999998,19.780489,152.763,19.722675,152.546,19.655225C152.44799999999998,19.626318,152.34,19.607047,152.231,19.568504C152.025,19.520326,151.838,19.462512,151.631,19.42397C151.483,19.385427,151.326,19.35652,151.168,19.327613C150.844,19.260164,150.519,19.20235,150.19400000000002,19.163807C150.007,19.1349,149.82,19.115629,149.63299999999998,19.0963575C149.613,19.0963575,149.594,19.0963575,149.574,19.0963575C149.249,19.0674505,148.934,19.0481792,148.6,19.0385436C148.38299999999998,19.0385436,148.167,19.0192723,147.95,19.0192723C147.684,19.0192723,147.429,19.0192723,147.163,19.0385436C147.035,19.0385436,146.90699999999998,19.0578149,146.779,19.0674505C146.75,19.0674505,146.74,19.0674505,146.70999999999998,19.0674505C146.494,19.0674505,146.267,19.105993,146.051,19.115629C145.913,19.1349,145.7654,19.154171,145.6276,19.173443C145.42090000000002,19.20235,145.2339,19.231257,145.0272,19.269799C144.7123,19.317977,144.3875,19.395063,144.0726,19.472148C143.8265,19.520326,143.5903,19.587776,143.35410000000002,19.655225C143.2262,19.693768,143.10809999999998,19.722675,142.9801,19.770853C142.83249999999998,19.809396,142.675,19.86721,142.51760000000002,19.915388C142.429,19.944295,142.3404,19.973202,142.24200000000002,20.01174C142.0649,20.07919,141.8779,20.13701,141.70069999999998,20.22373C141.376,20.34899,141.061,20.48389,140.7461,20.62843C140.6969,20.6477,140.6378,20.66697,140.58859999999999,20.70551C140.4312,20.7826,140.27370000000002,20.85968,140.126,20.93677C139.7816,21.11984,139.447,21.30292,139.11239999999998,21.50527C138.9943,21.56308,138.886,21.63053,138.77769999999998,21.71725C138.6596,21.77507,138.56119999999999,21.84252,138.4529,21.9196C138.2364,22.064140000000002,138.0101,22.20867,137.8034,22.37248C137.3802,22.68082,136.9669,23.00843,136.57319999999999,23.36495C136.39600000000002,23.50949,136.2287,23.66366,136.0614,23.8371C135.93349999999998,23.96236,135.7957,24.07799,135.67759999999998,24.21289C135.4709,24.41524,135.28390000000002,24.61759,135.0969,24.82957L135.05759999999998,24.87775C134.8509,25.11864,134.6541,25.35953,134.4572,25.61006C134.0144,26.15929,133.61079999999998,26.73743,133.2467,27.35411C133.1286,27.537190000000002,133.03019999999998,27.72027,132.9318,27.90334C132.666,28.35622,132.43970000000002,28.84764,132.22320000000002,29.3294C132.046,29.734099999999998,131.87869999999998,30.1388,131.7311,30.5628C131.66219999999998,30.7748,131.5933,30.986800000000002,131.5146,31.198700000000002C131.32760000000002,31.8154,131.1701,32.4514,131.05200000000002,33.0873Q131.03230000000002,33.1837,131.00279999999998,33.376400000000004C130.8453,34.3014,130.7764,35.2361,130.7764,36.1515C130.7764,36.507999999999996,130.7764,36.8549,130.8158,37.2114C130.8355,37.529399999999995,130.865,37.8377,130.9044,38.155699999999996C130.924,38.3291,130.9437,38.5122,130.98309999999998,38.6953C131.00279999999998,38.8976,131.03230000000002,39.0903,131.0815,39.3023C131.0815,39.331199999999995,131.0815,39.3505,131.1012,39.379400000000004C131.1504,39.6974,131.22910000000002,40.0154,131.3177,40.3333C131.3177,40.352599999999995,131.3177,40.352599999999995,131.3177,40.3622C131.3866,40.6609,131.4752,40.9597,131.5736,41.2487C131.5933,41.3451,131.613,41.431799999999996,131.66219999999998,41.5185C131.7507,41.798,131.85899999999998,42.0677,131.9574,42.3375C132.0854,42.6652,132.2231,42.9831,132.3708,43.301100000000005C132.5086,43.6191,132.666,43.9274,132.8432,44.2358C132.99079999999998,44.5152,133.1384,44.775400000000005,133.3057,45.0355C133.4632,45.2957,133.63049999999998,45.5559,133.7978,45.8064Q133.7978,45.835300000000004,133.82729999999998,45.844899999999996C133.9947,46.0762,134.162,46.297799999999995,134.3391,46.5291C134.36860000000001,46.5676,134.38830000000002,46.6158,134.4375,46.6543C134.6048,46.866299999999995,134.78199999999998,47.0783,134.969,47.2806C135.1461,47.483000000000004,135.3331,47.6853,135.5201,47.878C135.67759999999998,48.0419,135.8351,48.196,135.9925,48.340599999999995C136.5436,48.8705,137.13420000000002,49.3619,137.764,49.795500000000004C137.8428,49.8437,137.9117,49.9015,137.9904,49.9497C138.0888,50.0075,138.20690000000002,50.084599999999995,138.3348,50.161699999999996C138.6793,50.3833,139.04340000000002,50.6049,139.39780000000002,50.788C138.3152,53.3704,137.7936,56.1647,137.8723,58.9398C138.16750000000002,69.90520000000001,147.192,78.4905,158.392,78.4905C158.589,78.4905,158.776,78.4905,158.963,78.4905C161.26600000000002,78.4327,163.51999999999998,77.98949999999999,165.636,77.209C165.97,79.3866,166.689,81.4872,167.77100000000002,83.4047C170.911,88.9837,176.629,92.5489,183.095,92.9633C183.508,92.9922,183.941,93.0018,184.364,93.0018C185.349,93.0018,186.343,92.9247,187.307,92.7802C187.514,93.4065,187.711,94.0424,187.898,94.6688C186.569,94.8326,185.28,95.1506,184.059,95.6227C179.532,97.3667,175.91,101.0957,174.493,105.875C174.415,106.1641,174.336,106.4532,174.277,106.7422C174.021,107.8696,173.893,109.0163,173.893,110.1629C173.893,113.8726,175.212,117.2836,177.426,119.953C179.591,122.574,182.613,124.491,186.057,125.32C183.174,125.83,180.251,125.532,177.593,124.559C177.318,150.209,156.33499999999998,171.002,130.2253,171.648C129.81189999999998,171.648,129.3986,171.667,128.97539999999998,171.667C128.5522,171.667,128.1388,171.667,127.7255,171.648C101.4383,171.002,80.3475,149.929,80.3475,124.048C80.3475,120.348,80.78059999999999,116.744,81.58760000000001,113.2945C82.2962,110.3074,83.2902,107.436,84.5401,104.6898C84.75659999999999,104.1888,85.0027,103.6974,85.2389,103.206C88.78190000000001,96.0948,94.0669,89.9858,100.5624,85.3993L101.271,84.9079Q103.1704,83.6745,104.11529999999999,83.1253C104.1349,83.106,104.1546,83.0867,104.1743,83.0771C111.2702,78.25919999999999,116.998,71.62989999999999,120.669,63.8636C122.2437,60.5296,123.4345,56.9741,124.1825,53.2644C124.7238,50.6627,125.0289,47.984,125.1076,45.2475C125.1076,44.9006,125.1076,44.5634,125.1076,44.216499999999996C126.8988,40.969300000000004,127.5877,37.1536,126.948,33.3667Q126.9086,33.1644,126.8988,33.0777C126.7315,32.2201,126.515,31.3818,126.2296,30.572400000000002C125.5899,28.751260000000002,124.6647,27.07466,123.5526,25.65822C122.2437,23.96235,120.6395,22.55554,118.8384,21.48598C116.191,19.876828,113.1401,18.9999839188,110.0203,18.9999839188C109.2723,18.9999839188,108.5243,19.0481622,107.7764,19.154154C107.07759999999999,19.250511,106.3788,19.38541,105.66040000000001,19.578123C105.2864,19.684115,104.9026,19.790107,104.5188,19.934642C104.2235,20.02136,103.9086,20.12736,103.61330000000001,20.22371L103.3771,20.3008C101.6942,20.8693,100.02109999999999,21.49562,98.3972,22.16048C98.1217,22.27611,97.8461,22.3821,97.57050000000001,22.50736C93.69290000000001,24.0587,89.953,25.89911,86.3903,27.999679999999998C86.351,27.999679999999998,86.3215,28.02859,86.2821,28.04786C85.3274,28.60673,84.3826,29.1849,83.45750000000001,29.7919C83.43780000000001,29.7919,83.41810000000001,29.8112,83.4083,29.8305C65.1126,41.6149,51.86566,60.3177,47.53531,82.15209999999999C46.531452,87.2011,46,92.414,46,97.7426C46,142.05700000000002,82.2273,178.085,127.2629,178.99C127.8338,178.99,128.4144,179.01,128.99509999999998,179.01C129.57569999999998,179.01,130.15640000000002,179.01,130.72719999999998,178.99C159.12099999999998,178.422,184,163.901,198.517,142.144C199.098,141.565,199.59,140.901,199.964,140.139C200.042,139.995,200.111,139.841,200.18,139.67700000000002C200.229,139.55200000000002,200.288,139.417,200.338,139.291C201.991,136.565,203.497,133.732,204.825,130.822C207.059,125.917,208.821,120.762,210.022,115.4047C211.311,109.7293,211.99,103.813,211.99,97.7618C211.99,92.4333,211.459,87.2204,210.455,82.1713L210.465,82.15209999999999ZM85.4259,38.1268C88.60470000000001,35.7757,92.00999999999999,33.6558,95.60220000000001,31.8154C97.4819,30.8519,99.4109,29.9557,101.3989,29.156C102.8752,28.5393,104.3711,27.98043,105.8966,27.46974C106.2411,27.35411,106.5855,27.23848,106.93,27.14213C107.2252,27.03613,107.5008,26.94941,107.78620000000001,26.872329999999998C111.3784,25.9184,115.1675,27.325200000000002,117.4212,30.2352C118.0609,31.044600000000003,118.5727,31.9792,118.9369,33.0102C119.114,33.5113,119.242,34.022,119.3305,34.522999999999996C119.3502,34.5519,119.3502,34.5712,119.3502,34.6001C119.9505,38.136399999999995,118.494,41.6438,115.6891,43.6191C115.6202,43.6576,115.5612,43.7154,115.4824,43.7444C114.8526,44.1683,114.1636,44.5152,113.4157,44.765699999999995C108.6523,46.365300000000005,103.4165,43.686499999999995,101.70400000000001,38.7916C101.56620000000001,38.377300000000005,101.4482,37.963,101.3694,37.539C101.1726,36.6525,101.1234,35.766,101.1923,34.8988C101.2513,34.0702,101.4186,33.2704,101.6942,32.5092Q99.67660000000001,34.2821,99.4208,35.2553C97.6985,35.6311,96.00569999999999,36.045500000000004,94.3326,36.5369C93.8897,36.662099999999995,93.4468,36.797,93.00399999999999,36.9319C88.6343,38.2906,84.45150000000001,40.025,80.4952,42.0967C82.0698,40.7091,83.71340000000001,39.3698,85.4259,38.1075L85.4259,38.1268ZM54.96579,109.3246L54.96579,109.4788C54.94611,109.7678,54.93627,110.0569,54.94611,110.3556C54.92642,110.6929,54.92642,111.0398,54.92642,111.377C54.92642,111.6179,54.92642,111.8588,54.92642,112.09C53.98162,107.4456,53.49938,102.6471,53.49938,97.7426C53.49938,93.8594,53.80447,90.0533,54.39497,86.3339C55.46772,79.5215,57.4853,73.02709999999999,60.3394,66.96629999999999C61.6188,64.2298,63.0655,61.58,64.6697,59.0361C64.8961,58.6507,65.1421,58.2749,65.3882,57.9088C65.4177,57.8702,65.4374,57.8317,65.4669,57.7835C66.8841,55.7022,68.5375,53.8425,70.3779,52.2045C72.0904,50.672399999999996,73.9504,49.3523,75.9385,48.2442C81.5384,45.103,88.093,43.6673,94.72630000000001,44.361000000000004C95.1101,44.3996,95.5038,44.4478,95.8974,44.5056C96.1927,44.5441,96.4879,44.5827,96.7832,44.6308C97.99369999999999,44.833200000000005,99.1846,45.103,100.3853,45.4499C101.2021,45.690799999999996,102.00909999999999,45.9606,102.78659999999999,46.259299999999996C103.8397,46.6543,104.8731,47.1168,105.8671,47.6275C106.2903,47.8395,106.71350000000001,48.061099999999996,107.1268,48.2924C107.6583,48.6682,108.15039999999999,49.0921,108.6031,49.545C109.5774,50.498999999999995,110.3844,51.5974,110.9946,52.8115C111.9,54.5845,112.3921,56.608,112.3331,58.7278C112.1362,65.6366,106.2509,71.0903,99.1944,70.90729999999999C95.3758,70.8013,91.99029999999999,69.0669,89.707,66.39779999999999C89.6873,66.3689,89.6676,66.3592,89.6676,66.34C89.4413,66.0702,89.2247,65.8004,89.0279,65.5017C87.76820000000001,63.8251,86.65610000000001,61.58,86.3411,59.5083C79.74719999999999,59.1999,75.1216,60.6549,71.61789999999999,63.112C71.5687,63.1506,71.5195,63.1698,71.47030000000001,63.2084C71.1751,63.4204,70.8798,63.642,70.6043,63.8732C70.929,63.7769,71.2636,63.7094,71.5983,63.6612C71.7853,63.6131,71.9722,63.5938,72.1494,63.5745C72.612,63.5167,73.104,63.4782,73.5863,63.4782C75.5153,63.4782,77.3261,63.9503,78.91069999999999,64.7886C82.4143,66.6483,84.77629999999999,70.2809,84.77629999999999,74.4435C84.77629999999999,76.36099999999999,84.2744,78.16290000000001,83.3886,79.7239C81.5974,82.9036,78.2316,85.1295,74.3146,85.38C74.0784,85.3993,73.8323,85.4089,73.5863,85.4089C70.8306,85.4089,68.3013,84.4357,66.3526,82.8073C63.9316,80.79339999999999,62.3963,77.79679999999999,62.3963,74.4435C62.3963,73.769,62.4553,73.10419999999999,62.5833,72.4682C62.2093,73.6052,62.0026,74.80969999999999,61.9632,76.0623C61.8648,79.5312,63.1442,82.72059999999999,65.2996,85.1391C65.0043,85.7943,64.7386,86.4592,64.4827,87.1337C64.2268,87.76,63.9906,88.4056,63.7643,89.0416C63.665800000000004,89.2921,63.5773,89.5522,63.4887,89.8028C62.4356,92.8669,61.5991,96.0274,61.0086,99.265C57.5837,101.433,55.22167,105.0849,54.9461,109.315L54.96579,109.3246ZM65.211,137.345C65.1716,137.268,65.1421,137.201,65.1126,137.123C65.152,137.201,65.2012,137.268,65.2504,137.33499999999998L65.2012,137.33499999999998L65.211,137.345ZM68.1438,118.1894C66.9431,118.1894,65.8015,117.9389,64.77799999999999,117.486C63.390299999999996,116.8789,62.2191,115.9058,61.3727,114.7013C61.3727,114.7591,61.4121,114.8266,61.4219,114.894C61.9928,116.6573,63.1344,118.093,64.58109999999999,119.066C63.902100000000004,125.089,64.0595,131.053,64.9846,136.834C62.1306,129.964,60.3984,122.525,60.0047,114.7495C59.9555,113.6317,59.926,112.514,59.926,111.3963C59.926,111.0783,59.926,110.7603,59.9457,110.4423C59.9457,110.3556,59.9457,110.2593,59.9457,110.1726C59.9457,109.9991,59.9457,109.8257,59.9654,109.6522C60.240899999999996,105.4607,63.8036,102.146,68.1537,102.146C71.8935,102.146,75.0429,104.5935,76.0369,107.9467C76.2436,108.6501,76.3518,109.4017,76.3518,110.1725C76.3518,114.6049,72.68090000000001,118.199,68.1537,118.199L68.1438,118.1894ZM143.66899999999998,44.4092C143.2655,44.2261,142.87189999999998,44.0045,142.51760000000002,43.7636C142.4487,43.7251,142.3896,43.6769,142.3109,43.638400000000004C139.506,41.6631,138.0494,38.155699999999996,138.6498,34.6194C138.6498,34.5905,138.6498,34.5712,138.6695,34.5423C138.75799999999998,34.0413,138.886,33.5306,139.06310000000002,33.0295C139.4273,31.9985,139.939,31.0638,140.5788,30.2544C142.83249999999998,27.34448,146.612,25.93767,150.214,26.8916C150.499,26.96869,150.775,27.055410000000002,151.07,27.1614C151.414,27.257759999999998,151.75900000000001,27.37339,152.103,27.48901C153.62900000000002,27.9997,155.125,28.55857,156.601,29.1753C158.589,29.975,160.52800000000002,30.8711,162.398,31.834699999999998C162.89,32.0852,163.382,32.355000000000004,163.874,32.6152C164.15,32.7597,164.41500000000002,32.9043,164.671,33.0681C165.35,33.434200000000004,166.01999999999998,33.8293,166.679,34.2243C167.161,34.513400000000004,167.65300000000002,34.8217,168.136,35.120400000000004C168.195,35.159,168.263,35.197500000000005,168.332,35.2457C168.815,35.5541,169.297,35.8624,169.75900000000001,36.19C170.094,36.4116,170.429,36.6429,170.763,36.8741C171.373,37.2885,171.98399999999998,37.7221,172.574,38.155699999999996C174.287,39.418,175.92,40.7573,177.505,42.144800000000004C173.548,40.063500000000005,169.36599999999999,38.3291,164.99599999999998,36.9801C164.701,36.8934,164.41500000000002,36.797,164.12,36.72C163.97199999999998,36.671800000000005,163.815,36.623599999999996,163.65800000000002,36.5851C161.98399999999998,36.103300000000004,160.292,35.6793,158.56900000000002,35.3035Q158.313,34.34,156.296,32.5574C156.572,33.3186,156.739,34.1183,156.798,34.947C156.86700000000002,35.8142,156.81799999999998,36.7007,156.62099999999998,37.587199999999996C156.601,37.693200000000004,156.58100000000002,37.7992,156.55200000000002,37.905100000000004Q156.55200000000002,37.9244,156.55200000000002,37.9341C156.512,38.0786,156.483,38.2231,156.434,38.377300000000005C156.434,38.415800000000004,156.434,38.4351,156.404,38.4737C156.365,38.5989,156.33499999999998,38.724199999999996,156.286,38.8494C154.574,43.7444,149.328,46.413399999999996,144.5745,44.823499999999996C144.2596,44.717600000000004,143.9545,44.6019,143.6592,44.4574L143.66899999999998,44.4092ZM197.995,114.7398C197.946,115.713,197.867,116.6862,197.789,117.6402C197.661,119.086,197.474,120.512,197.237,121.918C197.198,122.207,197.139,122.497,197.09,122.786C197.09,122.834,197.09,122.901,197.06,122.949C197.011,123.258,196.952,123.566,196.893,123.865C196.804,124.327,196.706,124.79,196.617,125.243C196.588,125.378,196.558,125.532,196.519,125.667C196.489,125.821,196.46,125.965,196.421,126.12C196.312,126.582,196.214,127.045,196.096,127.497C195.997,127.873,195.899,128.268,195.801,128.644C195.682,129.058,195.574,129.473,195.446,129.877C195.318,130.292,195.2,130.70600000000002,195.062,131.12C194.934,131.535,194.797,131.949,194.669,132.35399999999998C194.57,132.662,194.462,132.971,194.354,133.288C194.246,133.59699999999998,194.137,133.905,194.019,134.223C193.862,134.65699999999998,193.704,135.09,193.527,135.524C193.36,135.958,193.183,136.39100000000002,193.006,136.815C193.704,132.47899999999998,193.97,128.037,193.753,123.556C193.704,122.063,193.576,120.56,193.409,119.057C193.921,118.7097,194.393,118.305,194.807,117.8522C194.826,117.8329,194.846,117.8136,194.856,117.7943C194.984,117.6595,195.092,117.5246,195.21,117.38C195.279,117.3029,195.338,117.2258,195.397,117.1391C195.614,116.85,195.81,116.5417,195.978,116.2237C196.007,116.1852,196.027,116.1467,196.047,116.0985C196.115,115.9732,196.175,115.8383,196.234,115.713C196.283,115.6071,196.332,115.5011,196.371,115.3951C196.44,115.2313,196.499,115.0578,196.558,114.8844C196.578,114.8266,196.598,114.7591,196.608,114.6917C196.44,114.9326,196.253,115.1638,196.056,115.3854C195.958,115.5011,195.86,115.6071,195.751,115.713C195.614,115.8576,195.466,116.0021,195.318,116.1274C195.19,116.2334,195.082,116.3394,194.944,116.4357C194.816,116.5417,194.679,116.6477,194.541,116.7248C194.482,116.773,194.423,116.8212,194.364,116.85C194.157,116.9753,193.96,117.1102,193.744,117.2162C193.566,117.3126,193.38,117.3993,193.193,117.486C192.504,117.7943,191.756,118.016,190.968,118.1123C190.594,118.1605,190.21,118.1894,189.827,118.1894C188.567,118.1894,187.366,117.9004,186.293,117.3993C183.538,116.1177,181.628,113.3523,181.628,110.1629C181.628,109.3921,181.747,108.6405,181.943,107.9371C182.13,107.3108,182.396,106.7134,182.721,106.1641C182.829,105.9714,182.947,105.798,183.075,105.6245L183.124,105.5474C183.233,105.3933,183.331,105.2584,183.459,105.1138C183.587,104.95,183.735,104.7862,183.882,104.6417C184.492,104.025,185.191,103.495,185.959,103.0904C186.146,102.994,186.333,102.8977,186.53,102.8206C186.599,102.7917,186.667,102.7628,186.736,102.7338C186.864,102.6953,186.973,102.6375,187.091,102.6086C187.15,102.5893,187.219,102.57,187.287,102.5508C187.455,102.493,187.622,102.4448,187.799,102.4062C187.927,102.3677,188.065,102.3388,188.203,102.3195C188.252,102.3002,188.291,102.2906,188.331,102.2906C188.419,102.2713,188.508,102.2521,188.587,102.2521C188.744,102.2232,188.911,102.2039,189.069,102.1943C189.167,102.1943,189.276,102.175,189.374,102.175C189.502,102.175,189.63,102.1557,189.748,102.1557L189.807,102.1557C190.063,102.1557,190.319,102.175,190.565,102.1943C190.634,102.1943,190.703,102.2135,190.771,102.2232C190.958,102.2521,191.136,102.2617,191.313,102.3003C191.392,102.3195,191.46,102.3388,191.539,102.3484C191.706,102.387,191.874,102.4159,192.041,102.4737C192.11,102.493,192.189,102.5122,192.258,102.5315C192.425,102.5797,192.582,102.6375,192.74,102.6953L192.946,102.7724C193.104,102.8398,193.252,102.9073,193.409,102.9844C193.478,103.0229,193.547,103.0422,193.616,103.0807C193.744,103.1482,193.881,103.2253,194.009,103.3024C194.265,103.4469,194.521,103.6107,194.757,103.7938C195.013,103.9769,195.249,104.1696,195.476,104.3912C195.574,104.4779,195.663,104.5743,195.751,104.6706C195.83,104.7574,195.919,104.8441,195.997,104.9308C196.066,105.0079,196.125,105.085,196.194,105.1524C196.283,105.2777,196.381,105.3837,196.48,105.5089C196.519,105.5764,196.568,105.6438,196.608,105.7209C196.706,105.8558,196.795,105.9907,196.883,106.1256C196.932,106.2027,196.962,106.2798,197.011,106.3569C197.09,106.4918,197.169,106.6363,197.228,106.7712C197.277,106.8772,197.316,106.9736,197.356,107.0699C197.405,107.1952,197.474,107.3204,197.513,107.4457C197.562,107.5709,197.602,107.7155,197.641,107.8504C197.68,107.9564,197.71,108.0527,197.739,108.1491C197.789,108.3322,197.818,108.5153,197.858,108.6887C197.877,108.7561,197.897,108.8236,197.897,108.9007C197.936,109.1512,197.966,109.4114,197.985,109.6715C197.985,109.845,198.005,110.0184,198.005,110.1919C198.005,110.2786,198.005,110.3749,198.005,110.4616C198.025,110.7796,198.025,111.0976,198.025,111.4156C198.025,112.5333,197.995,113.6607,197.946,114.7688L197.995,114.7398ZM204.461,99.583C204.461,99.9395,204.442,100.2864,204.422,100.6332C204.422,100.9609,204.402,101.2885,204.383,101.6065C204.383,101.645,204.383,101.6835,204.383,101.7221C204.363,102.175,204.333,102.6375,204.294,103.0903C204.294,103.2156,204.274,103.3312,204.264,103.4565C204.215,104.0732,204.156,104.6802,204.097,105.2776C204.058,105.692,204.009,106.1063,203.959,106.511C203.93,106.7422,203.91,106.9639,203.871,107.1951C203.831,107.5998,203.763,108.0045,203.703,108.3996C203.615,109.0066,203.516,109.604,203.408,110.2015C203.379,110.3556,203.359,110.5194,203.32,110.6832C203.241,111.1554,203.152,111.6275,203.054,112.09C203.054,111.8588,203.054,111.6179,203.054,111.377C203.054,111.0398,203.054,110.6929,203.034,110.3556C203.034,110.0569,203.034,109.7582,203.034,109.4788L203.034,109.3246C202.749,105.0946,200.387,101.433,196.962,99.2746C196.854,98.7158,196.745,98.1569,196.637,97.6077C196.617,97.5113,196.598,97.4246,196.578,97.3282C196.47,96.8368,196.362,96.355,196.253,95.8636C196.204,95.6709,196.155,95.4782,196.116,95.2758C196.007,94.8229,195.889,94.3701,195.761,93.9172C195.663,93.551,195.564,93.2041,195.466,92.838C195.466,92.8091,195.446,92.7802,195.436,92.7513C195.338,92.4044,195.23,92.0479,195.122,91.7106C195.053,91.4601,194.974,91.2096,194.885,90.9591C194.757,90.5736,194.639,90.1786,194.511,89.8028C194.423,89.5522,194.334,89.2921,194.236,89.0415C194.019,88.4056,193.773,87.76,193.517,87.1337C193.261,86.4592,192.986,85.7943,192.7,85.1391C194.856,82.72059999999999,196.125,79.5312,196.037,76.0623C195.997,74.80969999999999,195.791,73.6149,195.417,72.4682C195.545,73.10419999999999,195.604,73.769,195.604,74.4435C195.604,77.78710000000001,194.068,80.79339999999999,191.647,82.8073C189.699,84.4261,187.169,85.4089,184.414,85.4089C184.168,85.4089,183.922,85.4089,183.685,85.38C179.759,85.1391,176.393,82.91329999999999,174.611,79.7239C173.726,78.16290000000001,173.224,76.36099999999999,173.224,74.4435C173.224,70.2713,175.596,66.6387,179.089,64.7886C180.674,63.9503,182.485,63.4782,184.414,63.4782C184.896,63.4782,185.378,63.5167,185.851,63.5745C186.038,63.5938,186.225,63.6131,186.402,63.6612C186.736,63.7094,187.071,63.7865,187.396,63.8732C187.12,63.642,186.835,63.4204,186.53,63.2084C186.48,63.1698,186.421,63.1506,186.382,63.112C182.878,60.6549,178.243,59.1903,171.659,59.5083C171.344,61.5703,170.232,63.825,168.97199999999998,65.5017C168.765,65.7907,168.559,66.0702,168.332,66.34C168.332,66.3592,168.303,66.3785,168.28300000000002,66.39779999999999C166,69.0668,162.614,70.8013,158.796,70.90729999999999C151.739,71.1,145.8441,65.6462,145.6571,58.7278C145.598,56.608,146.09,54.5845,146.99599999999998,52.8115C147.606,51.607,148.413,50.4989,149.387,49.545C149.85,49.0921,150.34199999999998,48.677800000000005,150.863,48.2924C151.277,48.061099999999996,151.7,47.8395,152.123,47.6275C153.11700000000002,47.1168,154.15,46.664,155.204,46.259299999999996C155.99099999999999,45.9606,156.788,45.690799999999996,157.60500000000002,45.4499C158.80599999999998,45.103,160.006,44.823499999999996,161.207,44.6308C161.49200000000002,44.5827,161.788,44.5345,162.07299999999998,44.5056L162.09300000000002,44.5056C162.46699999999998,44.4478,162.851,44.3899,163.225,44.361000000000004L163.25400000000002,44.361000000000004C169.897,43.6576,176.462,45.0933,182.062,48.2442C184.05,49.3523,185.91,50.682,187.622,52.2045C189.462,53.8425,191.116,55.7118,192.533,57.7835C192.563,57.822,192.582,57.8606,192.612,57.9088C192.858,58.2749,193.104,58.6507,193.33,59.0361C194.934,61.5799,196.381,64.2298,197.661,66.96629999999999C200.505,73.02709999999999,202.522,79.5215,203.605,86.3339C204.196,90.0533,204.501,93.8594,204.501,97.7426C204.501,98.3592,204.501,98.9663,204.471,99.583L204.461,99.583Z" fill="#FFFFFF" fill-opacity="0.10000000149011612" style="mix-blend-mode:passthrough"/></g><g><path d="M91.33632328125,64.769734375Q91.40521528125,64.85643437499999,91.44458328125,64.895034375C93.34402828125,67.082334375,96.10954828125,68.383134375,99.02269828125,68.469834375L99.31794828125,68.469834375C104.83913828125,68.469834375,109.44503828124999,64.075934375,109.60253828124999,58.670384375C109.64193828124999,57.032314375,109.27773828125,55.384624375,108.51993828125,53.900734375C108.02783828125,52.937164375,107.37833828125,52.050684375,106.61063828125,51.299104375L106.61063828125,51.279832375C106.40393828124999,51.087118375,106.19733828125,50.913676375,105.98073828125,50.740234375C106.24653828125,51.106390375,106.47283828125,51.511085375,106.67953828125,51.915784375C107.43733828124999,53.399674375000004,107.81133828125,55.037734375,107.76213828125,56.675794375C107.61453828124999,62.091034375,102.98893828125,66.475234375,97.47754828125,66.475234375L97.18229828125,66.475234375C94.84980828125,66.417434375,92.61574828125,65.569534375,90.84423828125,64.114534375Q90.86392218125,64.143434375,90.87376218125,64.153034375C91.02138928125,64.374634375,91.18869628125,64.586634375,91.35600728125,64.789034375L91.33632328125,64.769734375Z" fill="#FFFFFF" fill-opacity="0.10000000149011612" style="mix-blend-mode:passthrough"/></g><g><path d="M82.0847025390625,74.533650625C82.0847025390625,71.373150625,80.2935025390625,68.617350625,77.6559025390625,67.181640625C79.1322025390625,68.684800625,80.0278025390625,70.717920625,80.0278025390625,72.972670625C80.0278025390625,77.617040625,76.1895025390625,81.374940625,71.4458025390625,81.374940625C69.9400225390625,81.374940625,68.5326525390625,80.999140625,67.2926025390625,80.334340625C68.8574325390625,81.943440625,71.0619725390625,82.935940625,73.5027125390625,82.935940625C78.2366025390625,82.935940625,82.0748025390625,79.178040625,82.0748025390625,74.533640625L82.0847025390625,74.533650625Z" fill="#FFFFFF" fill-opacity="0.10000000149011612" style="mix-blend-mode:passthrough"/></g><g><path d="M71.39682386718749,104.90625C72.4105138671875,106.02399,72.9911738671875,107.49824,72.9321238671875,109.1074C72.8041838671875,112.41242,69.9599338671875,114.98515,66.5743838671875,114.85988C65.4917938671875,114.82133999999999,64.4879428671875,114.513,63.6317138671875,113.99267C64.7044638671875,115.18745,66.2594438671875,115.96795,68.0014338671875,116.03545C71.3771338671875,116.17035,74.2214138671875,113.58798,74.35921386718749,110.28295C74.4477138671875,108.02821,73.2470638671875,106.01435,71.4066638671875,104.91588771L71.39682386718749,104.90625Z" fill="#FFFFFF" fill-opacity="0.10000000149011612" style="mix-blend-mode:passthrough"/></g><g><path d="M112.94430246093751,30.66074875C116.0444424609375,33.15637875,116.4873224609375,37.63695875,113.9481624609375,40.662518750000004C113.1411424609375,41.61651875,112.1372924609375,42.31991875,111.0350124609375,42.75351875C112.9344624609375,42.618618749999996,114.7847024609375,41.741718750000004,116.0838024609375,40.19041875C118.6327724609375,37.16481875,118.1899724609375,32.68423875,115.0897924609375,30.18859875C112.9836624609375,28.49272735,110.1886224609375,28.15547975,107.8167724609375,29.07086675C109.6079624609375,28.94560375,111.4483624609375,29.46592875,112.93445246093751,30.67038875L112.94430246093751,30.66074875Z" fill="#FFFFFF" fill-opacity="0.10000000149011612" style="mix-blend-mode:passthrough"/></g><g><path d="M160.5429962890625,66.467421875C155.0217862890625,66.467421875,150.4060162890625,62.073621875,150.2583962890625,56.667981875C150.2091862890625,55.029921875,150.5831762890625,53.391861875000004,151.3409862890625,51.907971875C151.5476562890625,51.503276875,151.7740262890625,51.108211875,152.0397462890625,50.732421875C151.8232262890625,50.905863875,151.6067062890625,51.088939875,151.4098762890625,51.272019875L151.4098762890625,51.291291875C150.6323862890625,52.052511875,149.9926662890625,52.929351875,149.5005862890625,53.892921875C148.7427762890625,55.376811875,148.3687871890625,57.024501875,148.4179987290625,58.662571875C148.5754692890625,64.077821875,153.1813862890625,68.462021875,158.7025962890625,68.462021875L158.9977962890625,68.462021875C161.9109962890625,68.375321875,164.6764962890625,67.084121875,166.57589628906248,64.887221875C166.61529628906248,64.84862187499999,166.6447962890625,64.810121875,166.6841962890625,64.761921875C166.8514962890625,64.559621875,167.0187962890625,64.347621875,167.1663962890625,64.12602187499999Q167.1860962890625,64.097121875,167.1959962890625,64.087421875C165.4244962890625,65.542421875,163.1903962890625,66.390321875,160.8578962890625,66.448221875L160.5626962890625,66.448221875L160.5429962890625,66.467421875Z" fill="#FFFFFF" fill-opacity="0.10000000149011612" style="mix-blend-mode:passthrough"/></g><g><path d="M177.9603523828125,72.972670625C177.9603523828125,70.717920625,178.8559523828125,68.684800625,180.3322123828125,67.181640625C177.6946423828125,68.617350625,175.9034423828125,71.373150625,175.9034423828125,74.533650625C175.9034423828125,79.178040625,179.7417023828125,82.935940625,184.4755723828125,82.935940625C186.9163423828125,82.935940625,189.1307423828125,81.933840625,190.6856423828125,80.334340625C189.4554423828125,80.999140625,188.0382423828125,81.374940625,186.5324423828125,81.374940625C181.7887823828125,81.374940625,177.9505223828125,77.617040625,177.9505223828125,72.972660625L177.9603523828125,72.972670625Z" fill="#FFFFFF" fill-opacity="0.10000000149011612" style="mix-blend-mode:passthrough"/></g><g><path d="M185.0713361328125,109.1074C185.0122861328125,107.49824,185.5929461328125,106.02399,186.6066461328125,104.90625C184.7662461328125,106.00471,183.5655596328125,108.00893,183.6541314128125,110.27331C183.7820781328125,113.57834,186.6263261328125,116.16065,190.0118761328125,116.02575C191.7636961328125,115.95835,193.3088561328125,115.17785,194.3816361328125,113.98303C193.5253761328125,114.50336,192.5215161328125,114.8117,191.4389261328125,114.85024C188.0632261328125,114.98515,185.20912613281251,112.41242,185.0811761328125,109.09776L185.0713361328125,109.1074Z" fill="#FFFFFF" fill-opacity="0.10000000149011612" style="mix-blend-mode:passthrough"/></g><g><path d="M144.052808984375,40.662453125C141.513648984375,37.636833125,141.956528984375,33.156253125,145.056658984375,30.660623125C146.542758984375,29.465799125,148.392998984375,28.935838125,150.174338984375,29.061101125C147.802488984375,28.145714125,145.007448984375,28.482961725,142.901318984375,30.178833125C139.801183984375,32.674473125,139.358309984375,37.155053125,141.907308984375,40.180653125C143.216258984375,41.731953125000004,145.056648984375,42.608853124999996,146.956098984375,42.743753125C145.853828984375,42.310153125,144.849978984375,41.616353125,144.042958984375,40.652753125000004L144.052808984375,40.662453125Z" fill="#FFFFFF" fill-opacity="0.10000000149011612" style="mix-blend-mode:passthrough"/></g><g><path d="M106.0958376953125,91.53296875000001Q95.2010276953125,99.57876875,92.1402576953125,107.98096875C89.8865076953125,113.06866875,88.8629726953125,118.44536875,88.6661376953125,124.03406875C88.6661376953125,137.71666875,95.7816876953125,149.78046875,106.5780376953125,156.86246875C122.0393376953125,166.52746875,135.1189376953125,152.34346875,135.9949376953125,150.33946874999998Q136.0441376953125,158.05746875,130.0308376953125,163.50146875000002C151.8302376953125,162.96246875,169.3287376953125,145.49246875,169.3287376953125,124.02436875C170.54913769531248,128.72656875,171.1888376953125,133.43836875,171.1396376953125,138.16946875C172.6946376953125,133.73706875,173.5311376953125,128.96746875,173.5311376953125,124.02436875C173.43273769531248,121.17216875,173.09813769531252,118.51276875,172.57653769531248,116.02676875L172.57653769531248,116.00746875C168.9350376953125,92.80486875,147.1455376953125,83.80516875,140.1776376953125,83.52566875C149.8421376953125,89.99126875,157.0758376953125,98.99096875000001,160.41213769531248,107.70156875C162.4887376953125,114.23456875,162.9316376953125,121.13366875,160.0086376953125,126.57776875C159.59533769531248,127.30046875,159.1524376953125,127.95566875,158.68983769531252,128.55306875C157.4793376953125,129.95996875,155.9735376953125,131.21256875,154.1233376953125,132.24356875C148.1789376953125,134.98006875,141.7916376953125,131.59796875,143.9666376953125,126.84756875C146.4959376953125,121.34566875,143.2088376953125,117.94426875,141.9983376953125,117.39506875C136.7920376953125,115.05356875,134.7843376953125,118.95596875,134.2233376953125,125.17096875C133.6722376953125,131.38596875000002,133.4557376953125,131.80996875,130.6508376953125,133.92976875C127.8459376953125,136.04006875,123.8010376953125,135.16316875,128.4955376953125,129.91176875C133.5147376953125,124.29416875,130.8181376953125,119.98696875,127.6097376953125,119.37996875C122.1279376953125,118.33936875,118.36843769531251,130.39356875,114.1266376953125,124.47726875C113.4770376953125,123.56186875,113.0538376953125,122.51156875,112.7684376953125,121.42276875C111.31193769531251,115.74736875,112.8472376953125,107.92316875,118.8605376953125,102.04546875Q145.6988376953125,75.76896875,129.02693769531248,43.73046875C129.1647376953125,67.97376875,119.56913769531249,81.82016875,106.0958376953125,91.53296875000001Z" fill="#FFFFFF" fill-opacity="0.10000000149011612" style="mix-blend-mode:passthrough"/></g><g><path d="M140.30611421875,112.75724687499999C144.76437421875,112.75724687499999,148.38617421875,109.211346875,148.38617421875,104.846416875C148.38617421875,100.481466875,144.77427421875,96.935546875,140.30611421875,96.935546875C135.83797421875,96.935546875,132.22607421875,100.481466875,132.22607421875,104.846416875C132.22607421875,109.211346875,135.84782421875,112.75724687499999,140.30611421875,112.75724687499999Z" fill="#FFFFFF" fill-opacity="0.10000000149011612" style="mix-blend-mode:passthrough"/></g></g><g><g clip-path="url(#master_svg2_81_11699)"><g><path d="M562.42763125,147.6298828125L558.23407125,147.6298828125L554.14453125,169.8629828125L554.14453125,169.8681828125L568.37853125,169.8681828125L569.11763125,165.8477828125L559.07716125,165.8477828125L560.15019125,160.0007828125L570.19613125,160.0007828125L570.93523125,155.9856528125L560.88927125,155.9856528125L561.68856125,151.6503128125L571.72903125,151.6503128125L572.4681312499999,147.6298828125L562.42763125,147.6298828125Z" fill="#FFFFFF" fill-opacity="1" style="mix-blend-mode:passthrough"/></g><g><path d="M626.77009625,154.1859137825L622.58200625,154.1859137825L619.69140625,169.8949640625L623.87948625,169.8949640625L625.32479625,162.0378140625C625.71896625,159.8911340625,627.85406625,158.1486040625,630.09320625,158.1486040625L630.82130625,154.1806640625C629.34864625,154.1806640625,627.89786625,154.5585630625,626.57848625,155.2146340625L626.77009625,154.1806640625L626.77009625,154.1859137825Z" fill="#FFFFFF" fill-opacity="1" style="mix-blend-mode:passthrough"/></g><g><path d="M571.95538625,158.384426875C571.66523625,159.969496875,572.32765625,161.418116875,573.67442625,162.131926875L579.61986625,165.286346875C579.71293625,165.338846875,579.76220625,165.438546875,579.74030625,165.548746875C579.70745625,165.711446875,579.54869625,165.842646875,579.37897625,165.842646875L570.58673425,165.842646875L569.84765625,169.857846875L578.76034625,169.857846875C581.18015625,169.857846875,583.48495625,167.978846875,583.91195625,165.658946875C584.20215625,164.068656875,583.53965625,162.614796875,582.19295625,161.906236875L576.25296625,158.757076875C576.15989625,158.704586875,576.11062625,158.604866875,576.13252625,158.494646875C576.16536625,158.331936875,576.32413625,158.200726875,576.49384625,158.200726875L585.28605625,158.200726875L586.02515625,154.185546875L577.11248625,154.185546875C574.69270625,154.185546875,572.38788625,156.064546875,571.96086625,158.384426875L571.95538625,158.384426875Z" fill="#FFFFFF" fill-opacity="1" style="mix-blend-mode:passthrough"/></g><g><path d="M650.798923125,158.200726875L659.591203125,158.200726875L660.330203125,154.185546875L651.417563125,154.185546875C648.997773125,154.185546875,646.692953125,156.064546875,646.265933125,158.384426875C645.975783125,159.969506875,646.638203125,161.418116875,647.984973125,162.131926875L653.930413125,165.286346875C654.023483125,165.338846875,654.072753125,165.438546875,654.050853125,165.548746875C654.023483125,165.711446875,653.859243125,165.842646875,653.689523125,165.842646875L644.897281125,165.842646875L644.158203125,169.857846875L653.070893125,169.857846875C655.490703125,169.857846875,657.795503125,167.978846875,658.222503125,165.658946875C658.512703125,164.068656875,657.850203125,162.614796875,656.503503125,161.906236875L650.563503125,158.757076875C650.470423125,158.704586875,650.421163125,158.604866875,650.443063125,158.494646875C650.470423125,158.331936875,650.634673125,158.200726875,650.804393125,158.200726875L650.798923125,158.200726875Z" fill="#FFFFFF" fill-opacity="1" style="mix-blend-mode:passthrough"/></g><g><path d="M641.490748125,151.644531500273L637.302668125,151.644531500273L636.837318125,154.18485125L632.287906125,154.18485125L631.548828125,158.20003125L636.092768125,158.20003125L635.183978125,163.13373125C634.499648125,166.86543125,637.094628125,169.88863125,640.987078125,169.88863125L642.684228125,169.88863125L643.423328125,165.87343125L641.737128125,165.87343125C640.154938125,165.87343125,639.098338125,164.64533125,639.377548125,163.12323125L640.280858125,158.20003125L644.830228125,158.20003125L645.569328125,154.18485125L641.019938125,154.18485125L641.485288125,151.64453125L641.490748125,151.644531500273Z" fill="#FFFFFF" fill-opacity="1" style="mix-blend-mode:passthrough"/></g><g><path d="M511.85546875,169.8629828125L514.57635875,169.8629828125L518.66589875,147.6298828125L515.94500875,147.6298828125L511.85546875,169.8629828125Z" fill="#FFFFFF" fill-opacity="1" style="mix-blend-mode:passthrough"/></g><g><path d="M516.0390625,169.863146875L518.7599525,169.863146875L521.6396025,154.185546875L518.9241925,154.185546875L516.0390625,169.863146875Z" fill="#FFFFFF" fill-opacity="1" style="mix-blend-mode:passthrough"/></g><g><path d="M535.47495625,154.185546875L530.08245625,159.733316875L526.72650625,154.185546875L523.10778625,154.185546875L527.84880625,162.026956875L520.22265625,169.868346875L523.84138625,169.868346875L529.23936625,164.320546875L532.58985625,169.868346875L536.20855625,169.868346875L531.46755625,162.026956875L539.09365625,154.185546875L535.47495625,154.185546875Z" fill="#FFFFFF" fill-opacity="1" style="mix-blend-mode:passthrough"/></g><g><path d="M500.251649375,147.6298828125L496.162109375,169.8629828125L498.877519375,169.8629828125L510.396109375,169.8629828125L510.872409375,167.2596828125L499.359289375,167.2596828125L500.684149375,160.0480828125L512.202709375,160.0480828125L512.679009375,157.4447628125L501.160439375,157.4447628125L502.490779375,150.2331828125L514.003909375,150.2331828125L514.4857093749999,147.6298828125L502.967069375,147.6298828125L500.251649375,147.6298828125Z" fill="#FFFFFF" fill-opacity="1" style="mix-blend-mode:passthrough"/></g><g><path d="M537.67578125,169.863146875L540.39119125,169.863146875L543.27632125,154.185546875L540.56091125,154.185546875L537.67578125,169.863146875Z" fill="#FFFFFF" fill-opacity="1" style="mix-blend-mode:passthrough"/></g><g><path d="M547.460304375,154.184567425L544.744884375,154.184567425L543.310534375,161.98923812499999Q543.305054375,162.010228125,543.305054375,162.020728125L541.865234375,169.862178125L544.580644375,169.862178125L546.020474375,162.015478125C546.556984375,159.10250812499999,549.453064375,156.745878125,552.486034375,156.745878125L552.962334375,154.142578125C550.849094375,154.142578125,548.779684375,154.914122125,547.093494375,156.179038125L547.460304375,154.184567425Z" fill="#FFFFFF" fill-opacity="1" style="mix-blend-mode:passthrough"/></g><g><path d="M542.6274225,150.3427734375C541.8773945,150.3427734375,541.1602205,150.9253674375,541.0288302,151.6444234375C540.8974405,152.3634834375,541.3956295,152.9460734375,542.1456525,152.9460734375C542.8956825,152.9460734375,543.6128525,152.3634834375,543.7442425,151.6444234375C543.8756325,150.9253674375,543.3774425,150.3427734375,542.6274225,150.3427734375Z" fill="#FFFFFF" fill-opacity="1" style="mix-blend-mode:passthrough"/></g><g><path d="M520.96726625,150.3427734375C520.21724025,150.3427734375,519.50006425,150.9253674375,519.36867185,151.6444234375C519.23728025,152.3634834375,519.73547025,152.9460734375,520.48549625,152.9460734375C521.23551625,152.9460734375,521.95269625,152.3634834375,522.08408625,151.6444234375C522.21547625,150.9253674375,521.71728625,150.3427734375,520.96726625,150.3427734375Z" fill="#FFFFFF" fill-opacity="1" style="mix-blend-mode:passthrough"/></g><g><path d="M606.705890625,156.4893534375L604.099890625,158.6097834375L606.541590625,161.4492734375L609.152990625,159.3288434375C610.986990625,157.8277434375,613.527290625,157.8277434375,614.808290625,159.3288434375C615.454290625,160.0793934375,615.662290625,161.0556334375,615.487190625,162.0371134375C615.306490625,163.0238534375,614.731690625,164.0105934375,613.811890625,164.7506234375C612.892190625,165.5012234375,611.802690625,165.8791234375,610.778990625,165.8791234375C609.755190625,165.8791234375,608.791690625,165.5012234375,608.151190625,164.7506234375L606.322690625,162.6302034375L605.818990625,162.0423634375L603.377290625,159.2028734375L601.0450906250001,156.4893434375C598.855290625,153.9437774375,594.913490625,153.5186404375,591.491880625,155.1981934375L591.678020625,154.1904612275L587.489940625,154.1904612275L583.400390625,176.4235234375L587.588470625,176.4235234375L588.973550625,168.8865234375C591.787510625,170.5608234375,595.882490625,170.1357234375,599.003090625,167.5901234375L601.603490625,165.4697234375L599.172790625,162.6302034375L596.566890625,164.7506234375C594.727390625,166.2517234375,592.192640625,166.2517234375,590.911580625,164.7506234375C589.619560625,163.2547934375,590.068490625,160.8194434375,591.907960625,159.3288334375C592.827690625,158.5782934375,593.917190625,158.2056334375,594.940890625,158.2056334375C595.964690625,158.2056334375,596.922690625,158.5782934375,597.568690625,159.3288334375L599.397290625,161.4545234375L599.900890625,162.0423634375L602.342590625,164.8766234375L604.674790625,167.5901234375C607.308090625,170.6605234375,612.492590625,170.6605234375,616.253590625,167.5901234375C618.131390625,166.0523234375,619.308490625,164.0525734375,619.680690625,162.0371134375C620.047490625,160.0374034375,619.614990625,158.0219334375,618.301090625,156.4893434375C615.662290625,153.4189164375,610.483390625,153.4189164375,606.716790625,156.4893434375L606.705890625,156.4893534375Z" fill="#FFFFFF" fill-opacity="1" style="mix-blend-mode:passthrough"/></g></g><g clip-path="url(#master_svg3_81_11714)"><g><path d="M483.6503,156.3557C483.1096,153.6418,481.9583,151.14262,480.3383,148.99824C478.9978,147.21528,477.3351,145.67764,475.4358,144.46198C475.4312,144.4576,475.4267,144.45541,475.4245,144.45322C475.2127,144.31522,474.9964,144.1838,474.7779,144.05676C474.7689,144.05019,474.7621,144.04581,474.7531,144.04581C473.96,143.58364,473.1309,143.17623,472.2703,142.832342C472.2365,142.817009,472.2027,142.803867,472.1689,142.790725C472.1171,142.766631,472.063,142.744727,472.0112,142.725013C471.6349,142.569497,471.24739999999997,142.427123,470.8531,142.2957L470.8058,142.280368C470.7382,142.258464,470.66610000000003,142.23437,470.5985,142.214657C470.576,142.205895,470.5535,142.199324,470.5309,142.192753C470.4859,142.17742,470.4408,142.164278,470.3912,142.148946C470.3687,142.142374,470.3439,142.137994,470.3191,142.129232C470.2718,142.11828,470.229,142.105138,470.1817,142.0963766C470.1479,142.0876151,470.1119,142.081044,470.0758,142.0744729C470.0015,142.0591403,469.9271,142.045998,469.8528,142.0372365C469.81,142.0306654,469.7671,142.0262847,469.72429999999997,142.0219039C469.7198,142.0219039,469.7153,142.0219039,469.7108,142.0219039C469.6365,142.0153328,469.5644,142.0109521,469.4878,142.0087617C469.4382,142.0087617,469.3886,142.00438096,469.3391,142.00438096C469.27819999999997,142.00438096,469.2197,142.00438096,469.1588,142.0087617C469.1295,142.0087617,469.1003,142.0131424,469.071,142.0153328C469.0642,142.0153328,469.062,142.0153328,469.0552,142.0153328C469.0056,142.0153328,468.9538,142.0240943,468.9042,142.0262847C468.8727,142.0306654,468.8389,142.0350462,468.80740000000003,142.0394269C468.76,142.045998,468.7172,142.0525692,468.6699,142.0613306C468.5978,142.0722825,468.5235,142.0898055,468.4514,142.107328C468.3951,142.11828,468.341,142.133613,468.2869,142.148946C468.2576,142.157707,468.2306,142.164278,468.2013,142.17523C468.1675,142.183992,468.1315,142.197134,468.0954,142.208086C468.0751,142.214657,468.0549,142.221228,468.0323,142.229989C467.9918,142.245322,467.949,142.258464,467.90840000000003,142.278178C467.8341,142.306652,467.762,142.337318,467.6899,142.370173C467.6786,142.374554,467.6651,142.378935,467.6538,142.387696C467.6178,142.405219,467.5817,142.422742,467.5479,142.440265C467.4691,142.481882,467.3925,142.523499,467.3159,142.569497C467.2888,142.582639,467.264,142.597972,467.2393,142.617685C467.2122,142.630827,467.1897,142.64616,467.1649,142.663683C467.1153,142.696539,467.0635,142.729394,467.0162,142.766631C466.9193,142.836722,466.8247,142.911195,466.7346,142.992239C466.694,143.02509,466.6557,143.06014,466.6174,143.09957C466.5881,143.12804,466.5566,143.15433,466.5296,143.18499C466.4822,143.23099,466.4394,143.27699,466.3966,143.32518L466.3876,143.33613C466.3403,143.39089,466.2952,143.44565,466.2502,143.5026C466.1488,143.62745,466.0564,143.75887,465.9731,143.89905C465.946,143.94067,465.9235,143.98229,465.901,144.0239C465.8401,144.12685,465.7883,144.23856,465.7387,144.34808C465.6982,144.44007,465.6599,144.53207,465.6261,144.62845C465.6103,144.67663,465.5945,144.72482,465.5765,144.77301C465.5337,144.9132,465.4977,145.05776,465.4706,145.20232Q465.4661,145.22423,465.4594,145.26803C465.4233,145.47831,465.4075,145.69078,465.4075,145.89886C465.4075,145.97991,465.4075,146.05876,465.4166,146.1398C465.4211,146.21209,465.4278,146.28218,465.4368,146.35446C465.4413,146.39389,465.4458,146.4355,465.4549,146.47712C465.4594,146.52312,465.4661,146.56693,465.4774,146.61511C465.4774,146.62169,465.4774,146.62607,465.4819,146.63264C465.4932,146.70492,465.5112,146.7772,465.5315,146.84948C465.5315,146.85386,465.5315,146.85386,465.5315,146.85606C465.5472,146.92396,465.5675,146.99186,465.59,147.05757C465.5945,147.07947,465.5991,147.09919,465.6103,147.1189C465.6306,147.18242,465.6554,147.24375,465.6779,147.30508C465.7072,147.37955,465.7387,147.45184,465.7725,147.52412C465.8041,147.5964,465.8401,147.66649,465.8807,147.73658C465.9145,147.80011,465.9483,147.85924,465.9866,147.91839C466.0226,147.97753,466.0609,148.03667,466.0992,148.09362Q466.0992,148.10019,466.106,148.10238C466.1443,148.15495,466.1826,148.20532,466.2231,148.25789C466.2299,148.26665,466.2344,148.27761,466.2457,148.28637C466.284,148.33456,466.3245,148.38274,466.3673,148.42874C466.4079,148.47474,466.4507,148.52074,466.4935,148.56454C466.5296,148.60178,466.5656,148.63683,466.6016,148.66968C466.7278,148.79015,466.863,148.90186,467.0072,149.00043C467.0252,149.01138,467.041,149.02452,467.059,149.03548C467.0815,149.04862,467.1086,149.06614,467.1379,149.08366C467.2167,149.13404,467.3001,149.18442,467.3812,149.22604C467.1334,149.81306,467.014,150.44827,467.032,151.07909C467.0996,153.5717,469.1656,155.5234,471.72950000000003,155.5234C471.7746,155.5234,471.8174,155.5234,471.8602,155.5234C472.3874,155.5102,472.9034,155.4095,473.38779999999997,155.232C473.4644,155.7271,473.6288,156.2046,473.8767,156.6404C474.5954,157.9087,475.9044,158.7191,477.3846,158.8133C477.4792,158.8199,477.5784,158.8221,477.6753,158.8221C477.9006,158.8221,478.1281,158.8045,478.3489,158.7717C478.3962,158.9141,478.4413,159.0586,478.4841,159.201C478.1799,159.2382,477.8848,159.3105,477.6054,159.4178C476.569,159.8143,475.7399,160.662,475.4155,161.7484C475.3975,161.8141,475.3794,161.8798,475.3659,161.9455C475.3073,162.2018,475.278,162.4625,475.278,162.7231C475.278,163.5664,475.5799,164.3418,476.0869,164.9485C476.5825,165.5443,477.2742,165.9802,478.0628,166.1686C477.4026,166.2847,476.7335,166.2168,476.1252,165.9955C476.0621,171.8263,471.2586,176.5531,465.2814,176.6999C465.1867,176.6999,465.0921,176.7043,464.9952,176.7043C464.8984,176.7043,464.8037,176.7043,464.7091,176.6999C458.6913,176.5531,453.86305,171.7628,453.86305,165.8794C453.86305,165.0383,453.96218,164.2191,454.14693,163.435C454.30915,162.756,454.53670999999997,162.10320000000002,454.82284,161.47899999999998C454.87241,161.3651,454.92873,161.2534,454.9828,161.14170000000001C455.79389,159.5252,457.0038,158.1365,458.4908,157.0939L458.653,156.9821Q459.0878,156.7018,459.3041,156.5769C459.3086,156.5725,459.3131,156.5682,459.3176,156.566C460.9421,155.4708,462.2533,153.9638,463.0937,152.1984C463.4542,151.4405,463.7268,150.63225,463.898,149.78896C464.0219,149.19756,464.0918,148.58864,464.1098,147.96657C464.1098,147.88772,464.1098,147.81105,464.1098,147.7322C464.5199,146.99405,464.6776,146.12666,464.5311,145.26584Q464.5221,145.21984,464.5199,145.20013C464.4816,145.00519,464.432,144.81462,464.3666,144.63063C464.2202,144.21665,464.0084,143.83553,463.7538,143.51354C463.4542,143.12804,463.0869,142.808244,462.6746,142.565112C462.0686,142.19932,461.3701,141.99999634442,460.6559,141.99999634442C460.4847,141.99999634442,460.3135,142.0109482,460.1422,142.0350423C459.9823,142.056946,459.8223,142.0876112,459.6578,142.131419C459.5722,142.155513,459.4843,142.179607,459.3965,142.212462C459.3289,142.232176,459.2568,142.25627,459.1892,142.278174L459.1351,142.295697C458.7499,142.424929,458.3668,142.567303,457.9951,142.718438C457.932,142.744723,457.8689,142.768817,457.8058,142.797292C456.9182,143.14994,456.062,143.5683,455.24641,144.04579999999999C455.2374,144.04579999999999,455.23064,144.05238,455.22163,144.05676C455.00308,144.1838,454.78679,144.31522,454.57501,144.45321C454.5705,144.45321,454.566,144.45759,454.56374,144.46197C450.37537,147.1408,447.3428,151.39232,446.351472,156.3557C446.121663,157.5035,446,158.6884,446,159.8997C446,169.9732,454.29338,178.1631,464.6032,178.3689C464.7339,178.3689,464.8668,178.3733,464.9998,178.3733C465.1327,178.3733,465.2656,178.3733,465.3963,178.3689C471.8963,178.2397,477.5919,174.93880000000001,480.9151,169.993C481.048,169.8615,481.1607,169.7104,481.2463,169.5374C481.2643,169.5045,481.2801,169.4695,481.2959,169.4322C481.3071,169.40370000000001,481.3207,169.3731,481.3319,169.3446C481.7104,168.72469999999998,482.0551,168.0808,482.3593,167.4193C482.8707,166.3044,483.274,165.1325,483.5489,163.9147C483.844,162.6245,483.9995,161.2797,483.9995,159.9041C483.9995,158.6928,483.8778,157.5078,483.648,156.3601L483.6503,156.3557ZM455.02561000000003,146.34789C455.75334,145.81344,456.5329,145.33156,457.3552,144.9132C457.7856,144.69416,458.2272,144.49045,458.6823,144.30865C459.0202,144.16847,459.3627,144.04143,459.7119,143.92534C459.7908,143.89905,459.8696,143.87277,459.9485,143.85086C460.0161,143.82677,460.0791,143.80706,460.1445,143.78953C460.9668,143.57269,461.8342,143.89248,462.3502,144.55397C462.4966,144.73797,462.6138,144.95043,462.6972,145.1848C462.7377,145.2987,462.767,145.41479,462.7873,145.52869C462.7918,145.53526,462.7918,145.53964,462.7918,145.54621C462.9292,146.35008,462.5958,147.14737,461.9537,147.5964C461.9379,147.60516,461.9244,147.6183,461.9063,147.62488C461.7622,147.72125,461.6044,147.80011,461.4332,147.85705C460.3427,148.22066,459.1441,147.61173,458.7521,146.49902C458.7206,146.40484,458.6935,146.31065,458.6755,146.21428C458.6305,146.01276000000001,458.6192,145.81125,458.635,145.61411C458.6485,145.42574,458.6868,145.24394,458.7499,145.0709Q458.288,145.47393,458.2294,145.69516C457.8351,145.78058,457.4476,145.87477,457.0646,145.98648C456.96320000000003,146.01495,456.8618,146.04562,456.7604,146.07628C455.7601,146.38512,454.80255999999997,146.77939,453.89685,147.25032C454.25733,146.93491,454.63359,146.63045,455.02561000000003,146.34351L455.02561000000003,146.34789ZM448.0525,162.5326L448.0525,162.5676C448.048,162.6333,448.04575,162.699,448.048,162.7669C448.04349,162.8436,448.04349,162.9224,448.04349,162.9991C448.04349,163.0539,448.04349,163.1086,448.04349,163.1612C447.8272,162.1054,447.7168,161.0146,447.7168,159.8997C447.7168,159.017,447.78665,158.1518,447.92183,157.3063C448.16741,155.7577,448.62928,154.2814,449.28266,152.90370000000001C449.57555,152.2816,449.90674,151.67926,450.27399,151.101C450.32581,151.01338,450.38213,150.92796,450.43846,150.84473C450.44522,150.83596,450.44972,150.8272,450.45648,150.81625C450.78092,150.34313,451.15942,149.92039,451.58074,149.54802C451.97277,149.19975,452.39859,148.89967000000001,452.8537,148.64778C454.13567,147.93372,455.63618,147.60735,457.1547,147.76506C457.2426,147.77382,457.3327,147.78477,457.4228,147.79792C457.4904,147.80668,457.558,147.81544,457.6256,147.82639C457.9027,147.87239,458.1753,147.93372,458.4502,148.01257C458.6372,148.06733,458.822,148.12866,458.9999,148.19656C459.241,148.28637,459.4776,148.39151,459.7051,148.5076C459.802,148.55579,459.8989,148.60616,459.9935,148.65873C460.1152,148.74416,460.2278,148.84053,460.3315,148.94348C460.5545,149.16033,460.7393,149.41003,460.879,149.68602C461.0862,150.08905,461.1989,150.54902,461.1854,151.03091C461.1403,152.6014,459.793,153.84120000000001,458.1776,153.7995C457.3034,153.7754,456.5284,153.3812,456.0057,152.7744C456.0012,152.7679,455.99667,152.7657,455.99667,152.7613C455.94485,152.7,455.89528,152.6386,455.85022,152.5707C455.56183,152.1896,455.30724,151.67926,455.23514,151.20832000000001C453.72562,151.13823,452.6667,151.46898,451.86462,152.0275C451.85335,152.0363,451.84209,152.0407,451.83082,152.0494C451.76323,152.0976,451.69564,152.148,451.63256,152.2006C451.70691,152.1787,451.78351,152.1633,451.86011,152.1524C451.90292,152.1414,451.94573,152.137,451.98628,152.1327C452.09218,152.1195,452.20483,152.1108,452.31522,152.1108C452.75682,152.1108,453.17137,152.2181,453.53411,152.4086C454.33619,152.8314,454.87691,153.6572,454.87691,154.6034C454.87691,155.0393,454.76201,155.4489,454.55924,155.8037C454.14919,156.5265,453.37865,157.0325,452.48195,157.0895C452.42788,157.0939,452.37155,157.096,452.31522,157.096C451.68438,157.096,451.10535,156.8748,450.65925,156.5046C450.10501,156.0469,449.75354,155.3657,449.75354,154.6034C449.75354,154.4501,449.76705,154.2989,449.79634,154.1544C449.71073,154.4128,449.66341,154.6866,449.6544,154.9714C449.63187,155.7599,449.92477,156.4849,450.41818,157.0347C450.35059,157.1837,450.28976,157.3348,450.23118,157.4881C450.1726,157.6305,450.11853,157.7773,450.06671,157.9218C450.04418,157.9788,450.0239,158.0379,450.00362,158.0949C449.76255,158.7914,449.57104,159.50979999999998,449.43586,160.2458C448.65181,160.7386,448.11108,161.5688,448.048,162.5304L448.0525,162.5326ZM450.3979,168.9022C450.38889,168.8846,450.38213,168.8693,450.37537,168.8518C450.38438,168.8693,450.39565,168.8846,450.40691,168.9L450.39565,168.9L450.3979,168.9022ZM451.0693,164.5477C450.79443,164.5477,450.53308,164.4907,450.29877,164.3878C449.98109,164.2498,449.71298,164.0286,449.51922,163.7548C449.51922,163.7679,449.52823,163.7833,449.53049,163.7986C449.66116,164.1994,449.92251,164.5258,450.25371,164.747C450.09825,166.11599999999999,450.1343,167.4718,450.34608,168.7861C449.69271,167.2243,449.29617,165.5334,449.20605,163.7657C449.19479,163.5116,449.18803,163.2576,449.18803,163.0035C449.18803,162.9312,449.18803,162.8589,449.19254,162.7866C449.19254,162.7669,449.19254,162.745,449.19254,162.7253C449.19254,162.6859,449.19254,162.6464,449.19704,162.607C449.26013,161.6542,450.07572,160.9007,451.07156,160.9007C451.92771,160.9007,452.64867,161.4571,452.87623,162.2193C452.92354,162.3792,452.94833,162.5501,452.94833,162.7253C452.94833,163.7329,452.10795,164.5499,451.07156,164.5499L451.0693,164.5477ZM468.359,147.77601C468.2666,147.7344,468.1765,147.68402,468.0954,147.62926C468.0796,147.6205,468.0661,147.60954,468.0481,147.60078C467.406,147.15176,467.0725,146.35446,467.21,145.55059C467.21,145.54402,467.21,145.53964,467.2145,145.53307C467.2347,145.41917,467.264,145.30308,467.3046,145.18918C467.388,144.95481,467.50509999999997,144.74235,467.6516,144.55836C468.1675,143.89686,469.0327,143.57707,469.8573,143.79392C469.9226,143.81144,469.9857,143.83115,470.0533,143.85525C470.1321,143.87715,470.211,143.90343,470.2899,143.92972C470.6391,144.04581,470.9815,144.17285,471.3195,144.31303C471.7746,144.49483,472.2184,144.69854,472.6465,144.91758C472.7592,144.97453,472.8718,145.03586,472.9845,145.095C473.0476,145.12785,473.1084,145.16071,473.16700000000003,145.19794C473.3224,145.28118,473.4756,145.37098,473.6266,145.46079C473.737,145.5265,473.8496,145.59659,473.96,145.66449C473.9735,145.67326,473.9893,145.68202,474.00509999999997,145.69297C474.1155,145.76306,474.2259,145.83315,474.3318,145.90762C474.40840000000003,145.958,474.485,146.01057,474.5616,146.06314C474.7013,146.15733,474.841,146.25589,474.9761,146.35446C475.3682,146.6414,475.7422,146.94586,476.1049,147.26127C475.1992,146.78815,474.2417,146.39389,473.2413,146.08723C473.1737,146.06752,473.1084,146.04562,473.0408,146.02809C473.007,146.01714,472.97090000000003,146.00619,472.93489999999997,145.99743C472.5519,145.88791,472.1644,145.79153,471.7701,145.70611Q471.7115,145.48707,471.2496,145.08185C471.3127,145.25489,471.351,145.43669,471.3645,145.62507C471.3803,145.8222,471.369,146.02371,471.324,146.22523C471.3195,146.24932,471.315,146.27342,471.3082,146.29751Q471.3082,146.30189000000001,471.3082,146.30408C471.2992,146.33694,471.2924,146.36979,471.2812,146.40484C471.2812,146.4136,471.2812,146.41798,471.2744,146.42674C471.2654,146.45522,471.2586,146.48369,471.24739999999997,146.51217C470.8554,147.62488,469.6545,148.23161,468.5663,147.8702C468.4942,147.8461,468.4243,147.81982,468.3568,147.78696L468.359,147.77601ZM480.7957,163.7635C480.7844,163.9848,480.7664,164.206,480.7484,164.4228C480.7191,164.7514,480.67629999999997,165.0756,480.6222,165.3954C480.6132,165.4611,480.5997,165.5268,480.5884,165.5925C480.5884,165.6035,480.5884,165.6188,480.5817,165.6297C480.5704,165.6998,480.5569,165.7699,480.5434,165.83780000000002C480.5231,165.943,480.5006,166.0481,480.4803,166.151C480.4735,166.1817,480.4668,166.2168,480.4577,166.2474C480.451,166.2825,480.4442,166.3153,480.4352,166.3504C480.4104,166.4555,480.3879,166.5606,480.3609,166.6636C480.3383,166.749,480.3158,166.8388,480.2933,166.92419999999998C480.2662,167.01839999999999,480.2415,167.1126,480.2122,167.2046C480.1829,167.2988,480.1558,167.393,480.1243,167.4872C480.095,167.5814,480.0635,167.6755,480.0342,167.76749999999998C480.0116,167.8376,479.9869,167.9077,479.9621,167.98C479.9373,168.0501,479.9125,168.1202,479.8855,168.1925C479.8494,168.291,479.8134,168.3896,479.7728,168.4882C479.7345,168.5867,479.694,168.6853,479.6534,168.7817C479.8134,167.796,479.8742,166.7863,479.8246,165.7677C479.8134,165.4282,479.7841,165.0865,479.74580000000003,164.7448C479.8629,164.666,479.9711,164.574,480.0657,164.471C480.0702,164.4667,480.0747,164.4623,480.077,164.4579C480.1063,164.4272,480.1311,164.3966,480.1581,164.3637C480.1739,164.3462,480.1874,164.3287,480.2009,164.3089C480.2505,164.2432,480.2955,164.1731,480.3338,164.1009C480.3406,164.0921,480.3451,164.0833,480.3496,164.0724C480.3654,164.0439,480.3789,164.0132,480.3924,163.9848C480.4037,163.9607,480.4149,163.9366,480.4239,163.9125C480.4397,163.8752,480.4532,163.8358,480.4668,163.7964C480.4713,163.7833,480.4758,163.7679,480.478,163.7526C480.4397,163.8073,480.3969,163.8599,480.3519,163.9103C480.3293,163.9366,480.3068,163.9607,480.282,163.9848C480.2505,164.01760000000002,480.2167,164.0505,480.1829,164.079C480.1536,164.103,480.1288,164.12709999999998,480.0973,164.149C480.068,164.1731,480.0364,164.1972,480.0049,164.2148C479.9914,164.2257,479.9779,164.23669999999998,479.9643,164.2432C479.91700000000003,164.2717,479.872,164.3024,479.8224,164.3265C479.7818,164.3484,479.739,164.3681,479.6962,164.3878C479.5385,164.4579,479.3673,164.5083,479.187,164.5302C479.1014,164.5411,479.0136,164.5477,478.9257,164.5477C478.6373,164.5477,478.3624,164.482,478.1169,164.3681C477.486,164.0768,477.0489,163.4481,477.0489,162.7231C477.0489,162.5479,477.076,162.377,477.121,162.2171C477.1638,162.0748,477.2247,161.939,477.299,161.8141C477.3238,161.7703,477.3508,161.7309,477.38009999999997,161.6915L477.3914,161.6739C477.4162,161.6389,477.4387,161.6082,477.468,161.5754C477.4973,161.5381,477.5311,161.5009,477.5649,161.468C477.7045,161.3279,477.8645,161.2074,478.0403,161.1154C478.0831,161.0935,478.1259,161.0716,478.1709,161.0541C478.1867,161.0475,478.2025,161.0409,478.2182,161.0343C478.2475,161.0256,478.2723,161.0124,478.2994,161.0059C478.3129,161.0015,478.3286,160.9971,478.3444,160.9927C478.3827,160.9796,478.421,160.9686,478.4616,160.9599C478.4909,160.9511,478.5224,160.9445,478.5539,160.9402C478.5652,160.9358,478.5742,160.9336,478.5832,160.9336C478.6035,160.9292,478.6238,160.9248,478.6418,160.9248C478.6779,160.9183,478.7162,160.9139,478.7522,160.9117C478.7747,160.9117,478.7995,160.9073,478.8221,160.9073C478.8513,160.9073,478.8806,160.9029,478.9077,160.9029L478.9212,160.9029C478.9798,160.9029,479.0383,160.9073,479.0947,160.9117C479.1104,160.9117,479.1262,160.9161,479.142,160.9183C479.1848,160.9248,479.2253,160.927,479.2659,160.9358C479.2839,160.9402,479.29970000000003,160.9445,479.3177,160.9467C479.356,160.9555,479.3943,160.9621,479.4326,160.9752C479.4484,160.9796,479.4664,160.984,479.4822,160.9883C479.52049999999997,160.9993,479.5565,161.0124,479.5926,161.0256L479.6399,161.0431C479.676,161.0584,479.7097,161.0738,479.74580000000003,161.0913C479.7616,161.1001,479.77729999999997,161.1044,479.7931,161.1132C479.8224,161.1285,479.8539,161.1461,479.8832,161.1636C479.9418,161.1964,480.0004,161.2337,480.0545,161.27530000000002C480.113,161.3169,480.1671,161.3607,480.2189,161.4111C480.2415,161.4308,480.2617,161.4527,480.282,161.4746C480.3,161.4943,480.3203,161.514,480.3383,161.5337C480.3541,161.5513,480.3676,161.5688,480.3834,161.5841C480.4037,161.6126,480.4262,161.6367,480.44870000000003,161.6652C480.4577,161.6805,480.469,161.6958,480.478,161.7134C480.5006,161.744,480.5208,161.7747,480.54110000000003,161.8054C480.5524,161.8229,480.5591,161.8404,480.5704,161.8579C480.5884,161.8886,480.6065,161.9214,480.62,161.9521C480.6312,161.9762,480.6402,161.9981,480.6493,162.02C480.6605,162.0485,480.67629999999997,162.077,480.6853,162.1054C480.6966,162.1339,480.7056,162.1668,480.7146,162.1974C480.7236,162.2215,480.73040000000003,162.2434,480.7371,162.2653C480.7484,162.307,480.7552,162.3486,480.7642,162.388C480.7687,162.4033,480.7732,162.4187,480.7732,162.43619999999999C480.7822,162.4931,480.7889,162.5523,480.7934,162.6114C480.7934,162.6508,480.798,162.6903,480.798,162.7297C480.798,162.7494,480.798,162.7713,480.798,162.791C480.8025,162.8633,480.8025,162.9356,480.8025,163.0079C480.8025,163.262,480.7957,163.5182,480.7844,163.7701L480.7957,163.7635ZM482.2759,160.31810000000002C482.2759,160.3991,482.27139999999997,160.478,482.2669,160.5568C482.2669,160.6313,482.2624,160.7058,482.2579,160.7781C482.2579,160.7868,482.2579,160.7956,482.2579,160.8043C482.2534,160.9073,482.2467,161.0124,482.2376,161.1154C482.2376,161.1439,482.2331,161.1701,482.2309,161.1986C482.2196,161.3388,482.2061,161.4768,482.19259999999997,161.6126C482.1836,161.7068,482.1723,161.801,482.161,161.893C482.1543,161.9455,482.1498,161.9959,482.1408,162.0485C482.1318,162.1405,482.116,162.23250000000002,482.1025,162.32229999999998C482.0822,162.4603,482.0597,162.5961,482.0349,162.7319C482.0281,162.7669,482.0236,162.8042,482.0146,162.8414C481.9966,162.9487,481.9763,163.056,481.9538,163.1612C481.9538,163.1086,481.9538,163.0539,481.9538,162.9991C481.9538,162.9224,481.9538,162.8436,481.9493,162.7669C481.9493,162.699,481.9493,162.6311,481.9493,162.5676L481.9493,162.5326C481.8839,161.571,481.3432,160.7386,480.5591,160.248C480.5344,160.1209,480.5096,159.9939,480.4848,159.8691C480.4803,159.8472,480.4758,159.8274,480.4713,159.8055C480.4465,159.6938,480.4217,159.58429999999998,480.3969,159.4726C480.3857,159.4288,480.3744,159.385,480.3654,159.339C480.3406,159.236,480.3136,159.1331,480.28430000000003,159.0301C480.2617,158.9469,480.2392,158.8681,480.2167,158.7848C480.2167,158.7782,480.2122,158.7717,480.2099,158.7651C480.1874,158.6863,480.1626,158.6052,480.13779999999997,158.5285C480.122,158.4716,480.104,158.4146,480.0837,158.3577C480.0545,158.2701,480.0274,158.1803,479.9981,158.0949C479.9779,158.0379,479.9576,157.9788,479.935,157.9218C479.8855,157.7773,479.8292,157.6305,479.7706,157.4881C479.712,157.3348,479.6489,157.1837,479.5836,157.0347C480.077,156.4849,480.3676,155.7599,480.3473,154.9714C480.3383,154.6866,480.291,154.415,480.2054,154.1544C480.2347,154.2989,480.2482,154.4501,480.2482,154.6034C480.2482,155.3635,479.8967,156.0469,479.3425,156.5046C478.89639999999997,156.8726,478.3174,157.096,477.6865,157.096C477.6302,157.096,477.5739,157.096,477.5198,157.0895C476.6208,157.0347,475.8503,156.52870000000001,475.4425,155.8037C475.23969999999997,155.4489,475.1248,155.0393,475.1248,154.6034C475.1248,153.655,475.6678,152.82920000000001,476.4676,152.4086C476.8304,152.2181,477.24490000000003,152.1108,477.6865,152.1108C477.7969,152.1108,477.9073,152.1195,478.0155,152.1327C478.05830000000003,152.137,478.1011,152.1414,478.1416,152.1524C478.2182,152.1633,478.2948,152.1808,478.3692,152.2006C478.3061,152.148,478.2408,152.0976,478.1709,152.0494C478.1597,152.0407,478.1461,152.0363,478.1371,152.0275C477.3351,151.46898,476.2739,151.13604,474.7666,151.20832000000001C474.6945,151.67706,474.4399,152.1896,474.1515,152.5707C474.1042,152.6364,474.0569,152.7,474.00509999999997,152.7613C474.00509999999997,152.7657,473.9983,152.7701,473.9938,152.7744C473.4711,153.3812,472.6961,153.7754,471.8219,153.7995C470.2065,153.8433,468.8569,152.6036,468.8141,151.0309C468.8006,150.54902,468.9132,150.08904,469.1205,149.68602C469.2602,149.41222,469.445,149.16033,469.668,148.94348C469.7739,148.84053,469.8866,148.74635,470.006,148.65873C470.1006,148.60616,470.1975,148.55578,470.2944,148.5076C470.5219,148.39151,470.7585,148.28856,470.9995,148.19656C471.1798,148.12866,471.3623,148.06733,471.5493,148.01257C471.8242,147.93372,472.099,147.8702,472.3739,147.82639C472.4392,147.81544,472.5068,147.80449,472.5722,147.79791L472.5767,147.79791C472.6623,147.78477,472.7502,147.77163,472.8358,147.76506L472.8425,147.76506C474.3633,147.60516,475.8661,147.93153,477.1481,148.64778C477.6032,148.89967000000001,478.029,149.20194,478.421,149.54802C478.8423,149.92039,479.2208,150.34532,479.5453,150.81625C479.552,150.82501,479.5565,150.83377,479.5633,150.84472C479.6196,150.92796,479.6759,151.01338,479.7278,151.101C480.095,151.67926,480.4262,152.2816,480.7191,152.90370000000001C481.3702,154.2814,481.83209999999997,155.7577,482.0799,157.3063C482.2151,158.1518,482.2849,159.017,482.2849,159.8997C482.2849,160.0399,482.2849,160.1779,482.27819999999997,160.31810000000002L482.2759,160.31810000000002Z" fill="#FFFFFF" fill-opacity="1" style="mix-blend-mode:passthrough"/></g><g><path d="M456.378276,152.4050003125Q456.394047,152.4247203125,456.40306,152.4334803125C456.837893,152.9306903125,457.470995,153.2263903125,458.137885,153.2461103125L458.205475,153.2461103125C459.469425,153.2461103125,460.523845,152.2473003125,460.559885,151.0185003125C460.568905,150.6461303125,460.485535,150.2715803125,460.312055,149.9342633125C460.199405,149.7152263125,460.050705,149.5137123125,459.874965,149.3428623125L459.874965,149.3384813125C459.827655,149.2946738125,459.780345,149.2552471125,459.730775,149.2158203125C459.791605,149.2990547125,459.843425,149.3910503125,459.890745,149.4830463125C460.064225,149.8203633125,460.149835,150.1927273125,460.138575,150.5650903125C460.104775,151.7960803125,459.045855,152.7927003125,457.784165,152.7927003125L457.716575,152.7927003125C457.182606,152.7795603125,456.671169,152.5868003125,456.265625,152.2560603125Q456.27013115,152.2626303125,456.2723838,152.2648203125C456.3061795,152.3152003125,456.3444805,152.3633903125,456.382782,152.4093803125L456.378276,152.4050003125Z" fill="#FFFFFF" fill-opacity="1" style="mix-blend-mode:passthrough"/></g><g><path d="M454.263253125,154.6233984375C454.263253125,153.9049614375,453.853193125,153.2785144375,453.249383125,152.9521484375C453.587343125,153.2938464375,453.792363125,153.7560144375,453.792363125,154.2685584375C453.792363125,155.3243184375,452.913683125,156.1785684375,451.827729125,156.1785684375C451.483016125,156.1785684375,451.160834125,156.0931484375,450.876953125,155.9420084375C451.235184125,156.3077984375,451.739861125,156.5334084375,452.298613125,156.5334084375C453.382313125,156.5334084375,454.260993125,155.6791584375,454.260993125,154.6233984375L454.263253125,154.6233984375Z" fill="#FFFFFF" fill-opacity="1" style="mix-blend-mode:passthrough"/></g><g><path d="M451.814749375,161.52734375C452.046809375,161.78142775,452.179739375,162.11655475,452.166219375,162.48234675C452.136929375,163.23364375,451.485799375,163.81847375,450.710763375,163.79000375C450.462930375,163.78123375,450.233122375,163.71114375,450.037109375,163.59286375C450.282689375,163.86447375,450.638666375,164.04189374999999,451.037449375,164.05722375C451.810239375,164.08789375,452.461359375,163.50087375,452.492909375,162.74957375C452.513179375,162.23702575,452.238309375,161.77923675,451.816999375,161.52953459L451.814749375,161.52734375Z" fill="#FFFFFF" fill-opacity="1" style="mix-blend-mode:passthrough"/></g><g><path d="M461.32617375,144.6510668125C462.03587375,145.2183778125,462.13726375,146.2368978125,461.55597375,146.9246778125C461.37123375,147.1415178125,461.14142275,147.3014178125,460.88908375,147.3999878125C461.32391375,147.3693178125,461.74748375,147.16999781250001,462.04488375,146.8173478125C462.62841375,146.1295678125,462.52703375,145.1110458125,461.81732375,144.5437388125C461.33518375,144.1582332125,460.69532175,144.0815703125,460.15234375,144.2896558125C460.56239375,144.2611808125,460.98370975,144.3794608125,461.32391375,144.6532578125L461.32617375,144.6510668125Z" fill="#FFFFFF" fill-opacity="1" style="mix-blend-mode:passthrough"/></g><g><path d="M472.2220225,152.789770625C470.9580725,152.789770625,469.9014075,151.790960625,469.8676135,150.562160625C469.8563475,150.189796625,469.9419635,149.817432625,470.1154455,149.480116625C470.1627595,149.388120625,470.2145795,149.298315025,470.2754105,149.212890625C470.2258435,149.252317425,470.1762765,149.293934125,470.1312165,149.335551625L470.1312165,149.339932625C469.9532275,149.512972625,469.8067805,149.712296625,469.6941295,149.931333625C469.5206476,150.268650625,469.4350316,150.643200625,469.446297442,151.015570625C469.4823467,152.246560625,470.5367625,153.243180625,471.8007025,153.243180625L471.8683025,153.243180625C472.5351925,153.223460625,473.1682925,152.929950625,473.6031225,152.430550625C473.6121425,152.421790625,473.6188925,152.413030625,473.6279125,152.402070625C473.66621250000003,152.356080625,473.7045125,152.307890625,473.7383025,152.257510625Q473.7428125,152.250940625,473.7450625,152.248750625C473.3395225,152.579490625,472.8280825,152.772250625,472.2941225,152.785390625L472.2265225,152.785390625L472.2220225,152.789770625Z" fill="#FFFFFF" fill-opacity="1" style="mix-blend-mode:passthrough"/></g><g><path d="M476.211115375,154.2685584375C476.211115375,153.7560144375,476.416141375,153.2938464375,476.754094375,152.9521484375C476.150286375,153.2785144375,475.740234375,153.9049604375,475.740234375,154.6233984375C475.740234375,155.6791584375,476.618912375,156.5334084375,477.702624375,156.5334084375C478.261364375,156.5334084375,478.768294375,156.3056084375,479.124274375,155.9420084375C478.842644375,156.0931384375,478.518214375,156.1785684375,478.173504375,156.1785684375C477.087544375,156.1785684375,476.208863375,155.3243184375,476.208863375,154.2685584375L476.211115375,154.2685584375Z" fill="#FFFFFF" fill-opacity="1" style="mix-blend-mode:passthrough"/></g><g><path d="M477.835253625,162.48234575C477.821735625,162.11655475,477.954663625,161.78142775,478.186724625,161.52734375C477.765410625,161.77704575,477.490541225,162.23264375,477.510817605,162.74738375C477.540108025,163.49867375,478.191231625,164.08569375,478.966275625,164.05503375C479.367305625,164.03970375,479.721035625,163.86228375,479.966615625,163.59067375C479.770605625,163.70895375,479.540795625,163.77904375,479.292955625,163.78780375C478.520175625,163.81847375,477.866795625,163.23364375,477.837505625,162.48015575L477.835253625,162.48234575Z" fill="#FFFFFF" fill-opacity="1" style="mix-blend-mode:passthrough"/></g><g><path d="M468.44438975,146.923938125C467.86310875,146.236158125,467.96449675,145.217638125,468.67419875,144.650328125C469.01440875,144.378721125,469.43796875,144.258251125,469.84576875,144.286726125C469.30278875,144.078640625,468.66292875,144.155303525,468.18078475,144.540809125C467.47108175,145.108116125,467.36969675,146.126638125,467.95322875,146.814418125C468.25288175,147.16706812500001,468.67419875,147.366388125,469.10902875,147.397058125C468.85668875,147.298488125,468.62687875,147.140778125,468.44213475,146.921748125L468.44438975,146.923938125Z" fill="#FFFFFF" fill-opacity="1" style="mix-blend-mode:passthrough"/></g><g><path d="M459.757688125,158.4884703125Q457.263588125,160.3174703125,456.562895125,162.2274703125C456.046953125,163.3839703125,455.812638825,164.6061703125,455.767578125,165.8766703125C455.767578125,168.9869703125,457.396518125,171.7292703125,459.868078125,173.3392703125C463.407588125,175.5361703125,466.401878125,172.3119703125,466.602378125,171.8563703125Q466.613678125,173.6108703125,465.237038125,174.8483703125C470.227478125,174.7257703125,474.233378125,170.7545703125,474.233378125,165.8744703125C474.512778125,166.9433703125,474.659178125,168.0144703125,474.647878125,169.0898703125C475.003878125,168.0823703125,475.195378125,166.9980703125,475.195378125,165.8744703125C475.172878125,165.22607031249998,475.096278125,164.6215703125,474.976878125,164.0564703125L474.976878125,164.0520703125C474.143278125,158.7776703125,469.155078125,156.7318303125,467.559878125,156.6683103125C469.772378125,158.1380703125,471.428378125,160.1838703125,472.192078125,162.1639703125C472.667478125,163.6490703125,472.768878125,165.2173703125,472.099778125,166.4548703125C472.005078125,166.6191703125,471.903778125,166.76807031250002,471.797878125,166.9038703125C471.520678125,167.2236703125,471.17597812500003,167.5084703125,470.752478125,167.7428703125C469.391578125,168.3648703125,467.92937812499997,167.5960703125,468.427278125,166.5161703125C469.006378125,165.26547031249999,468.253878125,164.4922703125,467.976678125,164.3674703125C466.784878125,163.8351703125,466.325278125,164.7222703125,466.196778125,166.1350703125C466.070678125,167.5478703125,466.021078125,167.6442703125,465.378978125,168.1261703125C464.736868125,168.6058703125,463.810878125,168.4064703125,464.885568125,167.2127703125C466.034578125,165.9357703125,465.417278125,164.9566703125,464.682798125,164.8186703125C463.427858125,164.5821703125,462.567208125,167.3222703125,461.596148125,165.9773703125C461.447448125,165.7692703125,461.350568125,165.5305703125,461.285238125,165.2830703125C460.951788125,163.9928703125,461.303258125,162.2143703125,462.679858125,160.8781703125Q468.823878125,154.9050603125,465.007228125,147.6220703125C465.038778125,153.1330503125,462.842078125,156.2806103125,459.757688125,158.4884703125Z" fill="#FFFFFF" fill-opacity="1" style="mix-blend-mode:passthrough"/></g><g><path d="M467.58801125,163.3124103125C468.60863125,163.3124103125,469.43774125,162.5063503125,469.43774125,161.5141203125C469.43774125,160.5218773125,468.61089125,159.7158203125,467.58801125,159.7158203125C466.56514025,159.7158203125,465.73828125,160.5218773125,465.73828125,161.5141203125C465.73828125,162.5063503125,466.56739425,163.3124103125,467.58801125,163.3124103125Z" fill="#FFFFFF" fill-opacity="1" style="mix-blend-mode:passthrough"/></g></g></g></g></svg>