<svg xmlns="http://www.w3.org/2000/svg" xmlns:xlink="http://www.w3.org/1999/xlink" fill="none" version="1.1" width="749" height="559" viewBox="0 1 749 559"><defs><linearGradient x1="0" y1="0" x2="0.9493333101272583" y2="0.7660714387893677" id="master_svg0_79_02494"><stop offset="0%" stop-color="#A5E2FF" stop-opacity="1"/><stop offset="100%" stop-color="#97FFE9" stop-opacity="1"/></linearGradient><linearGradient x1="0.5" y1="0" x2="0.5" y2="1" id="master_svg1_79_02535"><stop offset="0%" stop-color="#F5F5F5" stop-opacity="0"/><stop offset="100%" stop-color="#F5F5F5" stop-opacity="1"/></linearGradient><mask id="master_svg2_85_07257" style="mask-type:alpha" maskUnits="userSpaceOnUse"><g><rect x="0" y="145.73974609375" width="242" height="218.609619140625" rx="0" fill="#FFFFFF" fill-opacity="1"/></g></mask></defs><g><g><g><rect x="0" y="0.9982174634933472" width="750" height="559.0017700195312" rx="0" fill="url(#master_svg0_79_02494)" fill-opacity="1"/></g><g><rect x="0" y="359.3582943677902" width="750" height="200.64170837402344" rx="0" fill="url(#master_svg1_79_02535)" fill-opacity="1"/></g></g><g style="opacity:0.30000001192092896;"><g><g><g><path d="M569.7217054199218,35.2056884765625L587.4448054199219,45.4182884765625L587.4448054199219,65.8435884765625L569.7217054199218,76.0562884765625L551.9985754199218,65.8435884765625L551.9985754199218,45.4182884765625L569.7217054199218,35.2056884765625Z" fill="#FFFFFF" fill-opacity="0.4000000059604645"/></g><g><path d="M609.4476575683593,35.2056884765625L627.1707575683594,45.4182884765625L627.1707575683594,65.8435884765625L609.4476575683593,76.0562884765625L591.7245275683593,65.8435884765625L591.7245275683593,45.4182884765625L609.4476575683593,35.2056884765625Z" fill="#FFFFFF" fill-opacity="1"/></g><g><path d="M588.982810003662,70.04679107666016L606.7059100036621,80.25939107666015L606.7059100036621,100.68469107666016L588.982810003662,110.89739107666016L571.2596800036621,100.68469107666016L571.2596800036621,80.25939107666015L588.982810003662,70.04679107666016Z" fill="#FFFFFF" fill-opacity="1"/></g></g></g><g><g><g><path d="M505.19712732543945,70.411376953125L522.9202273254394,80.623976953125L522.9202273254394,101.049276953125L505.19712732543945,111.261976953125L487.4739973254394,101.049276953125L487.4739973254394,80.623976953125L505.19712732543945,70.411376953125Z" fill="#FFFFFF" fill-opacity="1"/></g><g><path d="M544.9230756591796,70.411376953125L562.6461756591797,80.623976953125L562.6461756591797,101.049276953125L544.9230756591796,111.261976953125L527.1999456591797,101.049276953125L527.1999456591797,80.623976953125L544.9230756591796,70.411376953125Z" fill="#FFFFFF" fill-opacity="0.5"/></g><g><path d="M483.68893717041016,105.61901092529297L501.41203717041014,115.83161092529296L501.41203717041014,136.25691092529297L483.68893717041016,146.46961092529295L465.96580717041013,136.25691092529297L465.96580717041013,115.83161092529296L483.68893717041016,105.61901092529297Z" fill="#FFFFFF" fill-opacity="0.5"/></g><g><path d="M462.1807432006836,140.82479095458984L479.9038432006836,151.03739095458985L479.9038432006836,171.46269095458985L462.1807432006836,181.67539095458983L444.45761320068357,171.46269095458985L444.45761320068357,151.03739095458985L462.1807432006836,140.82479095458984Z" fill="#FFFFFF" fill-opacity="0.5"/></g><g><path d="M442.4649,105.61901092529297L460.188,115.83161092529296L460.188,136.25691092529297L442.4649,146.46961092529295L424.74177,136.25691092529297L424.74177,115.83161092529296L442.4649,105.61901092529297Z" fill="#FFFFFF" fill-opacity="0.5"/></g><g><path d="M524.4582319091796,105.25345611572266L542.1813319091797,115.46605611572265L542.1813319091797,135.89135611572266L524.4582319091796,146.10405611572264L506.73510190917966,135.89135611572266L506.73510190917966,115.46605611572265L524.4582319091796,105.25345611572266Z" fill="#FFFFFF" fill-opacity="1"/></g><g><path d="M503.40478037109375,139.06417083740234L521.1278803710937,149.27677083740235L521.1278803710937,169.70207083740235L503.40478037109375,179.91477083740233L485.6816503710937,169.70207083740235L485.6816503710937,149.27677083740235L503.40478037109375,139.06417083740234Z" fill="#FFFFFF" fill-opacity="1"/></g><g><path d="M524.9129743408203,35.2056884765625L542.6360743408203,45.4182884765625L542.6360743408203,65.8435884765625L524.9129743408203,76.0562884765625L507.1898443408203,65.8435884765625L507.1898443408203,45.4182884765625L524.9129743408203,35.2056884765625Z" fill="#FFFFFF" fill-opacity="1"/></g></g></g><g><g><g><path d="M567.9293546508788,105.61910247802734L585.6524546508789,115.83170247802734L585.6524546508789,136.25700247802735L567.9293546508788,146.46970247802733L550.2062246508789,136.25700247802735L550.2062246508789,115.83170247802734L567.9293546508788,105.61910247802734Z" fill="#FFFFFF" fill-opacity="1"/></g><g><path d="M607.6553067993163,105.61910247802734L625.3784067993164,115.83170247802734L625.3784067993164,136.25700247802735L607.6553067993163,146.46970247802733L589.9321767993164,136.25700247802735L589.9321767993164,115.83170247802734L607.6553067993163,105.61910247802734Z" fill="#FFFFFF" fill-opacity="1"/></g><g><path d="M587.1904592346191,140.460205078125L604.9135592346191,150.672805078125L604.9135592346191,171.098105078125L587.1904592346191,181.310805078125L569.4673292346191,171.098105078125L569.4673292346191,150.672805078125L587.1904592346191,140.460205078125Z" fill="#FFFFFF" fill-opacity="1"/></g></g></g><g><g><g><path d="M628.8692273925781,70.41332244873047L646.5923273925781,80.62592244873046L646.5923273925781,101.05122244873047L628.8692273925781,111.26392244873047L611.1460973925781,101.05122244873047L611.1460973925781,80.62592244873046L628.8692273925781,70.41332244873047Z" fill="#FFFFFF" fill-opacity="1"/></g><g><path d="M668.5952520202636,70.41332244873047L686.3183520202637,80.62592244873046L686.3183520202637,101.05122244873047L668.5952520202636,111.26392244873047L650.8721220202636,101.05122244873047L650.8721220202636,80.62592244873046L668.5952520202636,70.41332244873047Z" fill="#FFFFFF" fill-opacity="1"/></g><g><path d="M648.1302614044189,105.25442504882812L665.8533614044189,115.46702504882812L665.8533614044189,135.89232504882813L648.1302614044189,146.1050250488281L630.4071314044189,135.89232504882813L630.4071314044189,115.46702504882812L648.1302614044189,105.25442504882812Z" fill="#FFFFFF" fill-opacity="1"/></g></g></g><g><g><g><path d="M689.8091230224609,105.61910247802734L707.5322230224609,115.83170247802734L707.5322230224609,136.25700247802735L689.8091230224609,146.46970247802733L672.0859930224609,136.25700247802735L672.0859930224609,115.83170247802734L689.8091230224609,105.61910247802734Z" fill="#FFFFFF" fill-opacity="1"/></g><g><path d="M729.5351476501464,105.61910247802734L747.2582476501465,115.83170247802734L747.2582476501465,136.25700247802735L729.5351476501464,146.46970247802733L711.8120176501465,136.25700247802735L711.8120176501465,115.83170247802734L729.5351476501464,105.61910247802734Z" fill="#FFFFFF" fill-opacity="1"/></g><g><path d="M709.0701570343017,140.460205078125L726.7932570343017,150.672805078125L726.7932570343017,171.098105078125L709.0701570343017,181.310805078125L691.3470270343017,171.098105078125L691.3470270343017,150.672805078125L709.0701570343017,140.460205078125Z" fill="#FFFFFF" fill-opacity="0.5"/></g></g></g><g><g><g><path d="M630.6615857910156,2.90261e-15L648.3846857910156,10.2126L648.3846857910156,30.6379L630.6615857910156,40.8506L612.9384557910156,30.6379L612.9384557910156,10.2126L630.6615857910156,2.90261e-15Z" fill="#FFFFFF" fill-opacity="1"/></g><g><path d="M670.3876104187011,2.90261e-15L688.1107104187012,10.2126L688.1107104187012,30.6379L670.3876104187011,40.8506L652.6644804187011,30.6379L652.6644804187011,10.2126L670.3876104187011,2.90261e-15Z" fill="#C9EAF3" fill-opacity="0.20000000298023224"/></g><g><path d="M649.9226198028564,34.841102600097656L667.6457198028564,45.05370260009766L667.6457198028564,65.47900260009766L649.9226198028564,75.69170260009766L632.1994898028564,65.47900260009766L632.1994898028564,45.05370260009766L649.9226198028564,34.841102600097656Z" fill="#FFFFFF" fill-opacity="0.5"/></g></g></g><g><g><g><path d="M689.8091230224609,35.2056884765625L707.5322230224609,45.4182884765625L707.5322230224609,65.8435884765625L689.8091230224609,76.0562884765625L672.0859930224609,65.8435884765625L672.0859930224609,45.4182884765625L689.8091230224609,35.2056884765625Z" fill="#FFFFFF" fill-opacity="1"/></g><g><path d="M729.5351476501464,35.2056884765625L747.2582476501465,45.4182884765625L747.2582476501465,65.8435884765625L729.5351476501464,76.0562884765625L711.8120176501465,65.8435884765625L711.8120176501465,45.4182884765625L729.5351476501464,35.2056884765625Z" fill="#FFFFFF" fill-opacity="1"/></g><g><path d="M709.0701570343017,70.04679107666016L726.7932570343017,80.25939107666015L726.7932570343017,100.68469107666016L709.0701570343017,110.89739107666016L691.3470270343017,100.68469107666016L691.3470270343017,80.25939107666015L709.0701570343017,70.04679107666016Z" fill="#FFFFFF" fill-opacity="1"/></g></g></g></g><g mask="url(#master_svg2_85_07257)"><g style="opacity:0.30000001192092896;"><g><g><g><path d="M35.721705419921875,194.92047882080078L53.44480541992188,205.1330788208008L53.44480541992188,225.55837882080078L35.721705419921875,235.77107882080077L17.998575419921874,225.55837882080078L17.998575419921874,205.1330788208008L35.721705419921875,194.92047882080078Z" fill="#FFFFFF" fill-opacity="0.4000000059604645"/></g><g><path d="M75.44765756835938,194.92047882080078L93.17075756835938,205.1330788208008L93.17075756835938,225.55837882080078L75.44765756835938,235.77107882080077L57.72452756835938,225.55837882080078L57.72452756835938,205.1330788208008L75.44765756835938,194.92047882080078Z" fill="#FFFFFF" fill-opacity="1"/></g><g><path d="M54.98281000366211,229.76158142089844L72.70591000366211,239.97418142089845L72.70591000366211,260.39948142089844L54.98281000366211,270.6121814208984L37.25968000366211,260.39948142089844L37.25968000366211,239.97418142089845L54.98281000366211,229.76158142089844Z" fill="#FFFFFF" fill-opacity="1"/></g></g></g><g><g><g><path d="M10.923075659179688,230.12616729736328L28.64617565917969,240.3387672973633L28.64617565917969,260.7640672973633L10.923075659179688,270.97676729736327L-6.800054340820313,260.7640672973633L-6.800054340820313,240.3387672973633L10.923075659179688,230.12616729736328Z" fill="#FFFFFF" fill-opacity="0.5"/></g><g><path d="M-9.541768090820312,264.96824645996094L8.18133190917969,275.18084645996095L8.18133190917969,295.60614645996094L-9.541768090820312,305.8188464599609L-27.264898090820314,295.60614645996094L-27.264898090820314,275.18084645996095L-9.541768090820312,264.96824645996094Z" fill="#FFFFFF" fill-opacity="1"/></g><g><path d="M-9.087025659179687,194.92047882080078L8.636074340820315,205.1330788208008L8.636074340820315,225.55837882080078L-9.087025659179687,235.77107882080077L-26.81015565917969,225.55837882080078L-26.81015565917969,205.1330788208008L-9.087025659179687,194.92047882080078Z" fill="#FFFFFF" fill-opacity="1"/></g></g></g><g><g><g><path d="M33.929354650878906,265.3338928222656L51.65245465087891,275.54649282226563L51.65245465087891,295.9717928222656L33.929354650878906,306.1844928222656L16.206224650878905,295.9717928222656L16.206224650878905,275.54649282226563L33.929354650878906,265.3338928222656Z" fill="#FFFFFF" fill-opacity="1"/></g><g><path d="M73.6553067993164,265.3338928222656L91.37840679931641,275.54649282226563L91.37840679931641,295.9717928222656L73.6553067993164,306.1844928222656L55.93217679931641,295.9717928222656L55.93217679931641,275.54649282226563L73.6553067993164,265.3338928222656Z" fill="#FFFFFF" fill-opacity="1"/></g><g><path d="M53.19045923461914,300.1749954223633L70.91355923461914,310.3875954223633L70.91355923461914,330.8128954223633L53.19045923461914,341.02559542236327L35.46732923461914,330.8128954223633L35.46732923461914,310.3875954223633L53.19045923461914,300.1749954223633Z" fill="#FFFFFF" fill-opacity="1"/></g></g></g><g><g><g><path d="M94.86922739257813,230.12811279296875L112.59232739257813,240.34071279296876L112.59232739257813,260.76601279296875L94.86922739257813,270.97871279296874L77.14609739257813,260.76601279296875L77.14609739257813,240.34071279296876L94.86922739257813,230.12811279296875Z" fill="#FFFFFF" fill-opacity="1"/></g><g><path d="M134.59525202026367,230.12811279296875L152.31835202026366,240.34071279296876L152.31835202026366,260.76601279296875L134.59525202026367,270.97871279296874L116.87212202026367,260.76601279296875L116.87212202026367,240.34071279296876L134.59525202026367,230.12811279296875Z" fill="#FFFFFF" fill-opacity="1"/></g><g><path d="M114.13026140441895,264.9692153930664L131.85336140441893,275.1818153930664L131.85336140441893,295.6071153930664L114.13026140441895,305.8198153930664L96.40713140441895,295.6071153930664L96.40713140441895,275.1818153930664L114.13026140441895,264.9692153930664Z" fill="#FFFFFF" fill-opacity="1"/></g></g></g><g><g><g><path d="M155.80912302246094,265.3338928222656L173.53222302246093,275.54649282226563L173.53222302246093,295.9717928222656L155.80912302246094,306.1844928222656L138.08599302246094,295.9717928222656L138.08599302246094,275.54649282226563L155.80912302246094,265.3338928222656Z" fill="#FFFFFF" fill-opacity="1"/></g><g><path d="M195.53514765014648,265.3338928222656L213.25824765014647,275.54649282226563L213.25824765014647,295.9717928222656L195.53514765014648,306.1844928222656L177.8120176501465,295.9717928222656L177.8120176501465,275.54649282226563L195.53514765014648,265.3338928222656Z" fill="#FFFFFF" fill-opacity="1"/></g><g><path d="M175.07015703430176,300.1749954223633L192.79325703430175,310.3875954223633L192.79325703430175,330.8128954223633L175.07015703430176,341.02559542236327L157.34702703430176,330.8128954223633L157.34702703430176,310.3875954223633L175.07015703430176,300.1749954223633Z" fill="#FFFFFF" fill-opacity="0.5"/></g></g></g><g><g><g><path d="M96.66158579101563,159.71479034423828L114.38468579101563,169.9273903442383L114.38468579101563,190.35269034423828L96.66158579101563,200.56539034423827L78.93845579101563,190.35269034423828L78.93845579101563,169.9273903442383L96.66158579101563,159.71479034423828Z" fill="#FFFFFF" fill-opacity="1"/></g><g><path d="M136.38761041870117,159.71479034423828L154.11071041870116,169.9273903442383L154.11071041870116,190.35269034423828L136.38761041870117,200.56539034423827L118.66448041870117,190.35269034423828L118.66448041870117,169.9273903442383L136.38761041870117,159.71479034423828Z" fill="#C9EAF3" fill-opacity="0.20000000298023224"/></g><g><path d="M115.92261980285645,194.55589294433594L133.64571980285643,204.76849294433595L133.64571980285643,225.19379294433594L115.92261980285645,235.40649294433592L98.19948980285645,225.19379294433594L98.19948980285645,204.76849294433595L115.92261980285645,194.55589294433594Z" fill="#FFFFFF" fill-opacity="0.5"/></g></g></g><g><g><g><path d="M155.80912302246094,194.92047882080078L173.53222302246093,205.1330788208008L173.53222302246093,225.55837882080078L155.80912302246094,235.77107882080077L138.08599302246094,225.55837882080078L138.08599302246094,205.1330788208008L155.80912302246094,194.92047882080078Z" fill="#FFFFFF" fill-opacity="1"/></g><g><path d="M195.53514765014648,194.92047882080078L213.25824765014647,205.1330788208008L213.25824765014647,225.55837882080078L195.53514765014648,235.77107882080077L177.8120176501465,225.55837882080078L177.8120176501465,205.1330788208008L195.53514765014648,194.92047882080078Z" fill="#FFFFFF" fill-opacity="1"/></g><g><path d="M175.07015703430176,229.76158142089844L192.79325703430175,239.97418142089845L192.79325703430175,260.39948142089844L175.07015703430176,270.6121814208984L157.34702703430176,260.39948142089844L157.34702703430176,239.97418142089845L175.07015703430176,229.76158142089844Z" fill="#FFFFFF" fill-opacity="1"/></g></g></g></g></g></g></svg>