<svg xmlns="http://www.w3.org/2000/svg" xmlns:xlink="http://www.w3.org/1999/xlink" fill="none" version="1.1" width="120" height="52" viewBox="0 0 120 52"><defs><linearGradient x1="0" y1="0.2023809552192688" x2="0.8233888745307922" y2="1" id="master_svg0_7_3843"><stop offset="0%" stop-color="#FFA23F" stop-opacity="1"/><stop offset="100%" stop-color="#FF3D57" stop-opacity="1"/></linearGradient><linearGradient x1="0.5" y1="0" x2="0.5" y2="1" id="master_svg1_7_3755"><stop offset="0%" stop-color="#FFA23F" stop-opacity="1"/><stop offset="100%" stop-color="#FF3D57" stop-opacity="1"/></linearGradient></defs><g><g><rect x="0" y="0" width="120" height="51.80217361450195" rx="25.901086807250977" fill="#FFFFFF" fill-opacity="0.800000011920929"/></g><g><g><path d="M41.265,23.434971875000002C42.6827,24.824071875,43.3915,26.572171875000002,43.3915,28.676871875C43.3915,33.218971875,38.1462,34.280371875,35.5944,40.471071875C34.6488,39.717571875000004,34.1767,38.625971875000005,34.1767,37.194871875000004C34.1767,32.631871875,41.265,30.262471875,41.265,23.434971875000002ZM35.5944,18.193061874999998C37.2956,19.815421875,38.1462,21.563591875,38.1462,23.434971875000002C38.1462,29.923071875,29.57636,30.894171875,31.3414,40.471071875C28.978099999999998,38.950971875,27.79718,36.766371875000004,27.79718,33.918771875000004C27.79718,29.561371875,35.5944,26.055871875,35.5944,18.193061874999998ZM29.21485,12.951171875C31.104599999999998,15.135731875,32.050200000000004,17.101431875,32.050200000000004,18.848291875C32.050200000000004,27.038771875000002,19.99999954579,29.622971875,26.37951,40.471071875C22.67089,39.710971875,20.00000045421,36.539671874999996,20,32.608271875C19.99999954579,24.090171875,29.21485,22.779711875,29.21485,12.951171875Z" fill="url(#master_svg0_7_3843)" fill-opacity="1"/></g><g><path d="M67.07063831176758,19.42578125L71.11503831176758,19.42578125L71.11503831176758,35.29018125L67.07063831176758,35.29018125L67.07063831176758,19.42578125ZM59.13162831176758,35.29018125L55.08723831176758,35.29018125L55.08723831176758,19.42578125L59.13162831176758,19.42578125L59.13162831176758,35.29018125ZM67.37023831176758,28.785791250000003L58.832038311767576,28.785791250000003L58.832038311767576,25.680891250000002L67.37023831176758,25.680891250000002L67.37023831176758,28.785791250000003ZM81.37573831176758,35.47148125Q79.22873831176759,35.47148125,77.56853831176758,34.65558125Q75.90833831176758,33.83978125,74.94713831176757,32.42328125Q73.98603831176757,31.00678125,73.98603831176757,29.19373125Q73.98603831176757,27.35799125,74.94713831176757,25.94152125Q75.90833831176758,24.52506125,77.56853831176758,23.720501249999998Q79.22873831176759,22.91595125,81.37573831176758,22.91595125Q83.49783831176758,22.91595125,85.17053831176759,23.720501249999998Q86.84313831176758,24.52506125,87.79183831176758,25.93019125Q88.74053831176758,27.33533125,88.74053831176758,29.19373125Q88.74053831176758,31.00678125,87.79183831176758,32.42328125Q86.84313831176758,33.83978125,85.17053831176759,34.65558125Q83.49783831176758,35.47148125,81.37573831176758,35.47148125ZM81.37573831176758,32.570581250000004Q82.34943831176759,32.570581250000004,83.12333831176758,32.16268125Q83.89723831176758,31.75468125,84.34663831176758,30.995481249999997Q84.79603831176757,30.236281249999998,84.79603831176757,29.19373125Q84.79603831176757,28.12855125,84.34663831176758,27.38065125Q83.89723831176758,26.63276125,83.12333831176758,26.224821249999998Q82.34943831176759,25.81688125,81.37573831176758,25.81688125Q80.40213831176757,25.81688125,79.62823831176757,26.224821249999998Q78.85423831176757,26.63276125,78.39243831176758,27.38065125Q77.93053831176758,28.12855125,77.93053831176758,29.19373125Q77.93053831176758,30.236281249999998,78.39243831176758,30.995481249999997Q78.85423831176757,31.75468125,79.62823831176757,32.16268125Q80.40213831176757,32.570581250000004,81.37573831176758,32.570581250000004ZM96.82933831176757,35.47148125Q94.45763831176757,35.47148125,93.13443831176758,34.37228125Q91.81123831176757,33.27318125,91.81123831176757,31.09748125L91.81123831176757,20.40031025L95.70583831176758,20.40031025L95.70583831176758,31.05218125Q95.70583831176758,31.822681250000002,96.15523831176758,32.24198125Q96.60463831176759,32.66128125,97.37853831176758,32.66128125Q98.30223831176758,32.66128125,98.95143831176757,32.20798125L99.99993831176758,34.70098125Q99.40073831176758,35.08628125,98.56443831176759,35.27888125Q97.72803831176758,35.47148125,96.82933831176757,35.47148125ZM89.73913831176758,26.08884125L89.73913831176758,23.36922125L99.05123831176758,23.36922125L99.05123831176758,26.08884125L89.73913831176758,26.08884125Z" fill="url(#master_svg1_7_3755)" fill-opacity="1"/></g></g></g></svg>