<svg xmlns="http://www.w3.org/2000/svg" xmlns:xlink="http://www.w3.org/1999/xlink" fill="none" version="1.1" width="64" height="64" viewBox="0 0 64 64"><defs><clipPath id="master_svg0_87_9837"><rect x="0" y="0" width="64" height="64" rx="0"/></clipPath><clipPath id="master_svg1_87_9838"><rect x="4" y="8" width="56.1400146484375" height="47.939998626708984" rx="0"/></clipPath><linearGradient x1="0.5" y1="0" x2="0.5" y2="1" id="master_svg2_85_01178"><stop offset="0%" stop-color="#42EAC9" stop-opacity="1"/><stop offset="100%" stop-color="#2EBDFF" stop-opacity="1"/></linearGradient><filter id="master_svg3_87_9840" filterUnits="objectBoundingBox" color-interpolation-filters="sRGB" x="0" y="0" width="48.00514602661133" height="47.939998626708984"><feFlood flood-opacity="0" result="BackgroundImageFix"/><feBlend mode="normal" in="SourceGraphic" in2="BackgroundImageFix" result="shape"/><feGaussianBlur in="BackgroundImage" stdDeviation="5"/><feComposite in2="SourceAlpha" operator="in" result="effect1_foregroundBlur"/><feBlend mode="normal" in="SourceGraphic" in2="effect1_foregroundBlur" result="shape"/></filter><linearGradient x1="0.5" y1="0" x2="0.8332440257072449" y2="0.8656654357910156" id="master_svg4_85_01383"><stop offset="0%" stop-color="#50F1A5" stop-opacity="1"/><stop offset="100%" stop-color="#B7E8FF" stop-opacity="0.8100000023841858"/></linearGradient></defs><g><g clip-path="url(#master_svg0_87_9837)"><g clip-path="url(#master_svg1_87_9838)"><g><path d="M30.1400146484375 40.6396484375C30.1400146484375 32.63151956495349 36.63188577589099 26.1396484375 44.6400146484375 26.1396484375L45.6400146484375 26.1396484375C53.64814352098401 26.1396484375 60.1400146484375 32.63151956495349 60.1400146484375 40.6396484375L60.1400146484375 45.1396484375C60.1400146484375 50.66249593580793 55.66286214674543 55.1396484375 50.1400146484375 55.1396484375L40.1400146484375 55.1396484375C34.61716715012957 55.1396484375 30.1400146484375 50.66249593580793 30.1400146484375 45.1396484375Z" fill="url(#master_svg2_85_01178)" fill-opacity="1"/></g><g filter="url(#master_svg3_87_9840)"><path d="M28.14,8C14.88,8,4,17.86,4,29.76C4,31.0744,5.06556,32.14,6.38,32.14L49.5935,32.14C50.8894,32.14,51.94,31.0894,51.94,29.7935C51.94,29.7712,51.9403,29.7494,51.9409,29.7271C52.2599,17.841810000000002,41.3878,8,28.14,8ZM15.9,25C14.54,25,13.52,23.98,13.52,22.619999999999997C13.52,21.259999999999998,14.54,20.240000000000002,15.9,20.240000000000002C16.9132,20.240000000000002,17.7377,20.8061,18.0923,21.6572C18.343899999999998,22.261,18.461399999999998,22.997700000000002,18.2271,23.6084C17.906,24.4452,16.903,25,15.9,25ZM28.14,17.86C26.78,17.86,25.76,16.5,25.76,15.14C25.76,13.780000000000001,26.78,12.76,28.14,12.76C29.5,12.76,30.52,13.780000000000001,30.52,15.14C30.52,16.5,29.5,17.86,28.14,17.86ZM40.04,25C38.68,25,37.66,23.98,37.66,22.619999999999997C37.66,21.259999999999998,38.68,20.240000000000002,40.04,20.240000000000002C41.4,20.240000000000002,42.42,21.259999999999998,42.42,22.619999999999997C42.42,23.98,41.4,25,40.04,25ZM4,48.8C4,52.88,7.0600000000000005,55.94,11.14,55.94L44.8,55.94C48.88,55.94,51.94,52.54,51.94,48.8C51.94,44.8567,48.7433,41.66,44.8,41.66L11.14,41.66C7.19669,41.66,4,44.8567,4,48.8ZM49.56,34.519999999999996L6.38,34.519999999999996C5.02,34.519999999999996,4,35.54,4,36.9C4,38.260000000000005,5.02,39.28,6.38,39.28L49.56,39.28C50.4508,39.28,51.1957,38.8424,51.6037,38.1583C52.0441,37.419799999999995,52.1967,36.359899999999996,51.7435,35.6293C51.3617,35.0137,50.5843,34.519999999999996,49.56,34.519999999999996Z" fill="url(#master_svg4_85_01383)" fill-opacity="1"/><path d="M28.14,8C14.88,8,4,17.86,4,29.76C4,31.0744,5.06556,32.14,6.38,32.14L49.5935,32.14C50.8894,32.14,51.94,31.0894,51.94,29.7935C51.94,29.7712,51.9403,29.7494,51.9409,29.7271C52.2599,17.841810000000002,41.3878,8,28.14,8ZM28.14,8.5Q23.3527,8.5,18.953699999999998,10.19319Q14.7154,11.82448,11.43258,14.78861Q8.158249999999999,17.74504,6.35928,21.5533Q4.5,25.4891,4.5,29.76Q4.5,30.5387,5.05064,31.0894Q5.60128,31.64,6.38,31.64L49.5935,31.64Q50.3584,31.64,50.8992,31.0992Q51.44,30.5584,51.44,29.7935Q51.44,29.7546,51.4411,29.7137Q51.5553,25.4575,49.7645,21.525399999999998Q48.0364,17.73074,44.7914,14.77628Q41.5447,11.82023,37.3129,10.19007Q32.9256,8.5,28.14,8.5ZM28.14,18.36Q26.9141,18.36,26.0559,17.33009Q25.26,16.37502,25.26,15.14Q25.26,13.91289,26.0864,13.08645Q26.9129,12.26,28.14,12.26Q29.3671,12.26,30.1936,13.08645Q31.02,13.91289,31.02,15.14Q31.02,16.37502,30.2241,17.33009Q29.3659,18.36,28.14,18.36ZM28.14,17.86C26.78,17.86,25.76,16.5,25.76,15.14C25.76,13.780000000000001,26.78,12.76,28.14,12.76C29.5,12.76,30.52,13.780000000000001,30.52,15.14C30.52,16.5,29.5,17.86,28.14,17.86ZM15.9,25.5Q14.6729,25.5,13.84645,24.6736Q13.02,23.847099999999998,13.02,22.619999999999997Q13.02,21.392899999999997,13.84645,20.5664Q14.6729,19.740000000000002,15.9,19.740000000000002Q17.8352,19.740000000000002,18.553800000000003,21.4649Q19.0907,22.7534,18.6939,23.7875Q18.3941,24.5689,17.5716,25.0497Q16.801099999999998,25.5,15.9,25.5ZM40.04,25.5Q38.8129,25.5,37.9864,24.6736Q37.16,23.847099999999998,37.16,22.619999999999997Q37.16,21.392899999999997,37.9864,20.5664Q38.8129,19.740000000000002,40.04,19.740000000000002Q41.2671,19.740000000000002,42.0936,20.5664Q42.92,21.392899999999997,42.92,22.619999999999997Q42.92,23.847099999999998,42.0936,24.6736Q41.2671,25.5,40.04,25.5ZM15.9,25C14.54,25,13.52,23.98,13.52,22.619999999999997C13.52,21.259999999999998,14.54,20.240000000000002,15.9,20.240000000000002C16.9132,20.240000000000002,17.7377,20.8061,18.0923,21.6572C18.343899999999998,22.261,18.461399999999998,22.997700000000002,18.2271,23.6084C17.906,24.4452,16.903,25,15.9,25ZM40.04,25C38.68,25,37.66,23.98,37.66,22.619999999999997C37.66,21.259999999999998,38.68,20.240000000000002,40.04,20.240000000000002C41.4,20.240000000000002,42.42,21.259999999999998,42.42,22.619999999999997C42.42,23.98,41.4,25,40.04,25ZM49.56,34.519999999999996L6.38,34.519999999999996C5.02,34.519999999999996,4,35.54,4,36.9C4,38.260000000000005,5.02,39.28,6.38,39.28L49.56,39.28C50.4508,39.28,51.1957,38.8424,51.6037,38.1583C52.0441,37.419799999999995,52.1967,36.359899999999996,51.7435,35.6293C51.3617,35.0137,50.5843,34.519999999999996,49.56,34.519999999999996ZM49.56,35.019999999999996L6.38,35.019999999999996Q5.56711,35.019999999999996,5.03355,35.5536Q4.5,36.0871,4.5,36.9Q4.5,37.712900000000005,5.03355,38.2464Q5.56711,38.78,6.38,38.78L49.56,38.78Q50.6508,38.78,51.1743,37.9022Q51.8559,36.759100000000004,51.3186,35.8928Q50.7772,35.019999999999996,49.56,35.019999999999996ZM4,48.8C4,52.88,7.0600000000000005,55.94,11.14,55.94L44.8,55.94C48.88,55.94,51.94,52.54,51.94,48.8C51.94,44.8567,48.7433,41.66,44.8,41.66L11.14,41.66C7.19669,41.66,4,44.8567,4,48.8ZM4.5,48.8Q4.5,51.6529,6.393549999999999,53.5464Q8.28712,55.44,11.14,55.44L44.8,55.44Q47.5905,55.44,49.5407,53.4248Q51.44,51.4622,51.44,48.8Q51.44,46.0496,49.4952,44.1048Q47.5504,42.16,44.8,42.16L11.14,42.16Q8.38962,42.16,6.44481,44.1048Q4.5,46.0496,4.5,48.8Z" fill-rule="evenodd" fill="#FFFFFF" fill-opacity="1"/></g></g></g></g></svg>