<svg xmlns="http://www.w3.org/2000/svg" xmlns:xlink="http://www.w3.org/1999/xlink" fill="none" version="1.1" width="40" height="40" viewBox="0 0 40 40"><defs><clipPath id="master_svg0_123_00865"><rect x="0" y="0" width="40" height="40" rx="0"/></clipPath></defs><g clip-path="url(#master_svg0_123_00865)"><g><path d="M39.992,33.3453L39.992,33.5933C39.992,37.1272,37.1272,39.992,33.5933,39.992L6.39875,39.992C2.86482,39.992,0,37.1272,0,33.5933L0,6.39875C-0.0000206424,2.86482,2.86479,0,6.39871,0L33.5933,0C37.1272,0,39.992,2.8648,39.992,6.39871L39.992,33.3453Z" fill="#009FE9" fill-opacity="1" style="mix-blend-mode:passthrough"/></g><g><path d="M33.00136400146484,25.32175625C31.401764001464844,24.76185625,29.266164001464844,23.96205625,26.874564001464844,23.09015625C28.411064001464844,20.35275625,29.593664001464845,17.43135625,30.393864001464845,14.39593625L22.395464001464845,14.39593625L22.395464001464845,11.99648625L31.993564001464843,11.99648625L31.993564001464843,10.30078625L22.395564001464844,10.396796250000001L22.395564001464844,5.59765625L18.444264001464845,5.59765625Q17.732464001464844,5.59765625,17.596464001464845,6.39750025L17.596464001464845,10.39671625L7.998404001464844,10.39671625L7.998404001464844,11.99640625L17.596464001464845,11.99640625L17.596464001464845,14.39589625L9.598124001464843,14.39589625L9.598124001464843,15.99555625L25.594964001464845,15.99555625C24.946264001464844,18.00605625,24.096864001464844,19.94615625,23.059364001464843,21.78645625C18.044464001464846,20.11475625,12.661524001464844,18.755056250000003,9.222184001464843,19.63485625C7.544464001464844,19.98945625,6.016774001464844,20.85245625,4.8470740014648435,22.10635625C1.1198040014648436,26.67345625,3.823242001464844,33.59205625,11.693714001464844,33.59205625C16.380764001464843,33.59205625,20.915864001464843,30.96055625,24.419164001464843,26.64945625Q29.666064001464843,29.22495625,39.99206400146485,33.53605625L39.99206400146485,27.39335625Q38.728264001464844,27.23335625,33.00136400146484,25.32175625ZM10.981794001464845,30.98465625C4.775044001464844,30.98465625,2.9833990014648437,26.11355625,6.046794001464844,23.40215625C7.045744001464843,22.49015625,8.272884001464844,21.86555625,9.598084001464844,21.59445625C13.253364001464844,21.194556249999998,17.012564001464845,22.98625625,21.067764001464845,24.97785625C18.140364001464846,28.67305625,14.557064001464843,30.98465625,10.981794001464845,30.98465625Z" fill="#FFFFFF" fill-opacity="1" style="mix-blend-mode:passthrough"/></g></g></svg>