<svg xmlns="http://www.w3.org/2000/svg" xmlns:xlink="http://www.w3.org/1999/xlink" fill="none" version="1.1" width="46" height="46" viewBox="0 0 46 46"><defs><clipPath id="master_svg0_79_03933"><rect x="0" y="0" width="46" height="46" rx="0"/></clipPath></defs><g clip-path="url(#master_svg0_79_03933)"><g><path d="M42.503939453125,39.8816953125L34.476939453125,31.8546953125C40.111939453125,24.9086953125,39.697939453125,14.6506953125,33.234939453125,8.1876953125C26.334939453125,1.2876953125,15.087939453125,1.2876953125,8.187939453125,8.1876953125C1.287939453125,15.0876953125,1.287939453125,26.3346953125,8.187939453125,33.2346953125C11.637939453125,36.6846953125,16.168939453125,38.4096953125,20.699939453125,38.4096953125C24.655939453125,38.4096953125,28.611939453125,37.0986953125,31.854939453125,34.4536953125L39.881939453125,42.4806953125C40.249939453125,42.8486953125,40.709939453125,43.0096953125,41.192939453125,43.0096953125C41.652939453125,43.0096953125,42.135939453125,42.8256953125,42.503939453125,42.4806953125C43.216939453125,41.7676953125,43.216939453125,40.6176953125,42.503939453125,39.8816953125ZM10.786939453125001,30.6126953125C5.312939453125,25.1386953125,5.312939453125,16.2376953125,10.786939453125001,10.763695312500001C13.523939453125,8.049695312499999,17.111939453125,6.6696953125,20.699939453125,6.6696953125C24.287939453125,6.6696953125,27.875939453125,8.0266953125,30.612939453125,10.763695312500001C36.086939453125,16.2376953125,36.086939453125,25.1386953125,30.612939453125,30.6126953125C25.161939453125,36.0866953125,16.260939453124998,36.0866953125,10.786939453125001,30.6126953125Z" fill="#FFFFFF" fill-opacity="1" style="mix-blend-mode:passthrough"/></g></g></svg>