<svg xmlns="http://www.w3.org/2000/svg" xmlns:xlink="http://www.w3.org/1999/xlink" fill="none" version="1.1" width="44" height="44" viewBox="0 0 44 44"><defs><clipPath id="master_svg0_82_8917"><rect x="0" y="0" width="44" height="44" rx="0"/></clipPath></defs><g clip-path="url(#master_svg0_82_8917)"><g><path d="M21.108277734375,36.367709375000004L17.943257734375003,34.059209374999995L14.025497734375,34.066809375C13.516997734375,34.066009375,13.066937734375,33.737709375,12.910827734375001,33.253709375L11.707577734375,29.525409375L8.533708734375,27.229209375C8.119855434375,26.931309375,7.945817734375,26.400209375,8.103095134375,25.915109375L9.320427734375,22.191509375000003L8.103095134375,18.464409375000002C7.944222734375,17.979609375000003,8.116869434375,17.447669375,8.530188734375,17.148549375L11.704057734375,14.852339375L12.907307734375,11.124069375C13.064967734375,10.638789375,13.518187734375001,10.311039375,14.028427734375,10.313299375L17.946187734375002,10.320919374999999L21.111277734375,8.012389375C21.311277734375,7.866505875,21.552377734375,7.787650681,21.799977734375,7.787110214233C22.048477734375,7.786871033,22.290477734375,7.865779075,22.491077734375,8.012389375L25.659077734375,10.320919374999999L29.576277734375,10.313299375C30.084477734375,10.314759375,30.533977734375,10.643239375,30.689777734375,11.126999375L31.893577734375,14.855269374999999L35.067477734375004,17.151479375C35.480577734375004,17.450519375,35.653177734375,17.982109375,35.494577734375,18.466809375L34.277277734375005,22.190909375L35.494577734375,25.914509375C35.653177734375,26.399209375,35.480577734375004,26.930809375,35.067477734375004,27.229809375L31.893577734375,29.526009375L30.689777734375,33.254309375C30.533177734375,33.739709375000004,30.080977734375,34.068309375,29.570977734375,34.067409375L25.653777734375,34.059809375L22.485777734375,36.368309374999995C22.284977734374998,36.514709374999995,22.042977734375,36.593609375,21.794677734375,36.593609375C21.547877734375,36.592409375,21.307677734374998,36.513409374999995,21.108277734375,36.367709375000004ZM19.016277734375002,31.937209375L21.799977734375,33.967709375L24.583777734375,31.937209375C24.785077734375,31.790009375,25.028277734375,31.711109375,25.277777734375,31.712009375L28.722677734375,31.718409375L29.778677734375,28.439509375C29.855277734375,28.202509375,30.005177734375,27.996009375,30.206977734375,27.849909375L32.998277734375,25.830009375L31.927677734375,22.555309375C31.850177734375,22.318309375,31.850177734375,22.062909375,31.927677734375,21.826009374999998L32.998277734375,18.551309375000002L30.206977734375,16.531369375C30.005177734375,16.385269375,29.855277734375,16.178779374999998,29.778677734375,15.941769375L28.722677734375,12.662889374999999L25.277777734375,12.669349375C25.029377734375,12.669299375,24.787377734375,12.590419375,24.586677734375,12.444069375L21.802977734375,10.413609375L19.015077734374998,12.442889375C18.813577734375002,12.589839375,18.570477734375,12.668749375,18.321077734375002,12.668169375L14.876157734374999,12.661719375L13.820157734375,15.940599375C13.743667734375,16.177799375,13.593417734374999,16.384369375,13.391307734375001,16.530199375000002L10.600537734375,18.550109374999998L11.671197734375,21.824909375C11.748657734375,22.061809375,11.748657734375,22.317209374999997,11.671197734375,22.554109375L10.600537734375,25.828909375L13.391307734375001,27.848709375C13.593237734375,27.994809375,13.743447734375,28.201309375,13.820157734375,28.438309375L14.876157734374999,31.717209375L18.321077734375002,31.710809375C18.570577734375,31.710509375,18.813677734375,31.789909375,19.015077734374998,31.937209375L19.016277734375002,31.937209375ZM19.647477734375002,26.327509375L16.339897734375,23.019909374999997C15.881457734375001,22.561609375,15.881457734375001,21.818509374999998,16.339897734375,21.360209375C16.798147734375,20.901809375,17.541317734375,20.901809375,17.999577734375002,21.360209375L20.477077734375,23.838309375L26.262177734375,18.053209375C26.720477734375,17.594749375,27.463577734375,17.594749375,27.921877734375,18.053209375C28.380277734375,18.511409375,28.380277734375,19.254609375,27.921877734375,19.712909375000002L21.307177734375,26.325809375C21.087077734375,26.546009375,20.788477734375,26.669609375,20.477077734375,26.669609375C20.165877734375,26.669909375,19.867277734375,26.546209375,19.647477734375002,26.325809375L19.647477734375002,26.327509375Z" fill="#009A9A" fill-opacity="1"/></g></g></svg>