<svg xmlns="http://www.w3.org/2000/svg" xmlns:xlink="http://www.w3.org/1999/xlink" fill="none" version="1.1" width="34" height="34" viewBox="0 0 34 34"><defs><clipPath id="master_svg0_99_04969"><rect x="0" y="0" width="34" height="34" rx="0"/></clipPath></defs><g clip-path="url(#master_svg0_99_04969)"><g><path d="M3.777587890625,9.44634375C3.777587890625,12.57438375,9.697187890624999,15.11064375,16.999387890625,15.11064375C24.301587890625,15.11064375,30.221987890625,12.57438375,30.221987890625,9.44634375C30.221987890625,6.3182937500000005,24.302387890625,3.77734375,16.999387890625,3.77734375C9.696317890625,3.77734375,3.777587890625,6.317523749999999,3.777587890625,9.44634375Z" fill="#81591D" fill-opacity="1"/></g><g><path d="M17.001987890625,18.356535C11.601617890625,18.356535,6.957127890624999,17.114375,4.904467890625,15.109375C4.181531890625,15.814258,3.777587890625,16.127535,3.777587890625,16.947555C3.777587890625,20.103075,9.697187890624999,22.664925,16.999387890625,22.664925C24.301587890625,22.664925,30.221987890625,20.106995,30.221987890625,16.947555C30.221987890625,16.125975,29.820687890625,15.815041,29.095187890625,15.109375C27.047687890625,17.114375,22.403187890625,18.356535,17.001987890625,18.356535Z" fill="#81591D" fill-opacity="1"/></g><g><path d="M16.999387890625,26.028875625C11.527937890625001,26.028875625,6.833167890625,24.735835625,4.822987890625,22.666015625C4.149458890625,23.358857625,3.777587890625,23.645499625,3.777587890625,24.445235625C3.777587890625,27.635485625,9.697187890624999,30.221565625,16.999387890625,30.221565625C24.301587890625,30.221565625,30.221987890625,27.635485625,30.221987890625,24.445235625C30.221987890625,23.645499625,29.850187890625,23.358860625,29.176587890625,22.666015625C27.166487890625,24.735835625,22.470787890625,26.028875625,16.999387890625,26.028875625Z" fill="#81591D" fill-opacity="1"/></g></g></svg>