<svg xmlns="http://www.w3.org/2000/svg" xmlns:xlink="http://www.w3.org/1999/xlink" fill="none" version="1.1" width="54" height="54" viewBox="0 0 54 54"><defs><clipPath id="master_svg0_88_00865"><rect x="0" y="0" width="54.000003814697266" height="54" rx="0"/></clipPath></defs><g clip-path="url(#master_svg0_88_00865)"><g><path d="M46.0925234375,34.82171875C43.6025234375,41.91461875,37.3900234375,47.04571875,29.9544234375,48.15071875C29.4469234375,48.98681875,28.5407234375,49.49831875,27.5626234375,49.50071875L25.3126234375,49.50071875C23.7593234375,49.50071875,22.5001234375,48.24151875,22.5001234375,46.68821875C22.5001234375,45.13491875,23.7593234375,43.87571875,25.3126234375,43.87571875L27.5626234375,43.87571875C28.3500234375,43.87701875,29.1004234375,44.21031875,29.6293234375,44.79371875C35.3520234375,43.88771875,40.2111234375,40.11191875,42.5026234375,34.79021875C40.6805234375,34.40721875,39.3757234375,32.80021875,39.3751234375,30.93821875L39.3751234375,27.56321875C39.3751234375,25.38861875,41.1380234375,23.62571875,43.3126234375,23.62571875L43.8178234375,23.62571875C43.2376234375,14.76351875,35.8802234375,7.8719987499999995,26.9990234375,7.8719987499999995C18.1178234375,7.8719987499999995,10.7604234375,14.76351875,10.1802734375,23.62571875L10.6865234375,23.62571875C12.8611434375,23.62571875,14.6240234375,25.38861875,14.6240234375,27.56321875L14.6240234375,30.93821875C14.6240234375,33.11281875,12.8611434375,34.875718750000004,10.6865234375,34.875718750000004L8.4365234375,34.875718750000004C6.2619034375,34.875718750000004,4.499023952484,33.11281875,4.4990234375,30.93821875L4.4990234375,27.56321875C4.5013660975,26.03031875,5.3946154375,24.63861875,6.7872734375,23.99811875C7.1848334375,13.12279875,16.1164234375,4.51171875,26.9990234375,4.51171875C37.8816234375,4.511718235016,46.8132234375,13.12279875,47.2108234375,23.99811875C48.6039234375,24.63831875,49.4976234375,26.03011875,49.5001234375,27.56321875L49.5001234375,30.93821875C49.4969234375,32.90341875,48.0406234375,34.56311875,46.0925234375,34.82171875ZM7.8751534375,28.68821875L7.8751534375,29.81321875C7.8757934375000005,30.74471875,8.631123437500001,31.49961875,9.5626534375,31.49961875C10.494173437499999,31.49961875,11.2495034375,30.74471875,11.2501534375,29.81321875L11.2501534375,28.68821875C11.2501534375,27.75621875,10.4946334375,27.00071875,9.5626534375,27.00071875C8.6306734375,27.00071875,7.8751534375,27.75621875,7.8751534375,28.68821875ZM46.1251234375,28.68821875C46.1251234375,27.75621875,45.3696234375,27.00071875,44.4376234375,27.00071875C43.5056234375,27.00071875,42.7501234375,27.75621875,42.7501234375,28.68821875L42.7501234375,29.81321875C42.7501234375,30.74521875,43.5056234375,31.50071875,44.4376234375,31.50071875C45.3696234375,31.50071875,46.1251234375,30.74521875,46.1251234375,29.81321875L46.1251234375,28.68821875Z" fill="#363538" fill-opacity="1" style="mix-blend-mode:passthrough"/></g><g><path d="M27.000052421875,37.111764375C29.414352421875,37.103654375,31.711032421875,36.068204375,33.315832421875,34.264394375C33.939132421875,33.585344375,33.882732421875,32.526704375,33.190932421875004,31.917642375C32.495732421875,31.303097375,31.436632421875,31.357601375,30.808132421875,32.040268375C28.803272421875,34.368614375,25.196832421875,34.368614375,23.191922421875,32.040268375C22.563472421874998,31.357601375,21.504382421875,31.303097375,20.809175421875,31.917642375C20.116694421875,32.526404375,20.060334421875,33.585584374999996,20.684299421875,34.264394375C22.288692421874998,36.068684375000004,24.585622421875,37.104224375,27.000052421875,37.111764375Z" fill="#363538" fill-opacity="1" style="mix-blend-mode:passthrough"/></g></g></svg>