<svg xmlns="http://www.w3.org/2000/svg" xmlns:xlink="http://www.w3.org/1999/xlink" fill="none" version="1.1" width="64" height="64" viewBox="0 0 64 64"><defs><clipPath id="master_svg0_87_9843"><rect x="0" y="0" width="64" height="64" rx="0"/></clipPath><linearGradient x1="0.5" y1="0" x2="0.5" y2="1" id="master_svg1_85_01074"><stop offset="0%" stop-color="#81D0FA" stop-opacity="1"/><stop offset="100%" stop-color="#798FFF" stop-opacity="1"/></linearGradient><clipPath id="master_svg2_87_9845"><rect x="9" y="9" width="54" height="51" rx="0"/></clipPath><filter id="master_svg3_87_9846" filterUnits="objectBoundingBox" color-interpolation-filters="sRGB" x="0" y="0" width="21.230859756469727" height="10.747852325439453"><feFlood flood-opacity="0" result="BackgroundImageFix"/><feBlend mode="normal" in="SourceGraphic" in2="BackgroundImageFix" result="shape"/><feGaussianBlur in="BackgroundImage" stdDeviation="5"/><feComposite in2="SourceAlpha" operator="in" result="effect1_foregroundBlur"/><feBlend mode="normal" in="SourceGraphic" in2="effect1_foregroundBlur" result="shape"/></filter><linearGradient x1="0.5" y1="0" x2="0.5" y2="1" id="master_svg4_81_03961"><stop offset="0%" stop-color="#98F9DA" stop-opacity="1"/><stop offset="100%" stop-color="#B7DDFB" stop-opacity="0.41999998688697815"/></linearGradient><filter id="master_svg5_87_9847" filterUnits="objectBoundingBox" color-interpolation-filters="sRGB" x="0" y="0" width="47.1708984375" height="38.96718978881836"><feFlood flood-opacity="0" result="BackgroundImageFix"/><feBlend mode="normal" in="SourceGraphic" in2="BackgroundImageFix" result="shape"/><feGaussianBlur in="BackgroundImage" stdDeviation="5"/><feComposite in2="SourceAlpha" operator="in" result="effect1_foregroundBlur"/><feBlend mode="normal" in="SourceGraphic" in2="effect1_foregroundBlur" result="shape"/></filter><linearGradient x1="0.8778339624404907" y1="0.881742000579834" x2="0.07076858729124069" y2="0.1319124847650528" id="master_svg6_85_01409"><stop offset="0%" stop-color="#5BFFCB" stop-opacity="1"/><stop offset="100%" stop-color="#B7DDFB" stop-opacity="0.75"/></linearGradient></defs><g clip-path="url(#master_svg0_87_9843)"><g transform="matrix(0.9398745894432068,-0.34151971340179443,0.34151971340179443,0.9398745894432068,-4.648304732312681,1.2376739264582284)"><rect x="1.19091796875" y="13.8203125" width="31.229232788085938" height="26.921751022338867" rx="4" fill="url(#master_svg1_85_01074)" fill-opacity="1"/></g><g clip-path="url(#master_svg2_87_9845)"><g filter="url(#master_svg3_87_9846)"><path d="M39.74128078125,30.45262C38.84473778125,31.30331,38.35205078125,32.42072,38.35205078125,33.60742L38.35205078125,35.39043C38.35205078125,36.58076,38.84775378125,37.70137,39.74951078125,38.55303C40.65127078125,39.4047,41.83779078125,39.8729,43.09814078125,39.8729L54.208950781249996,39.8729C57.17695078125,39.8729,59.58295078125,37.46686,59.58295078125,34.49893C59.58295078125,31.53099,57.17695078125,29.125,54.208950781249996,29.125L43.09814078125,29.125C41.841630781250004,29.125,40.65326078125,29.590316,39.75771078125,30.43705C39.75208078125,30.44238,39.74691078125,30.44728,39.74128078125,30.45262M45.03877078125,32.50674C46.20420078125,32.50674,47.14814078125,33.39824,47.14814078125,34.49893C47.14814078125,35.59961,46.20420078125,36.49111,45.03877078125,36.49111C43.87334078125,36.49111,42.92939078125,35.59961,42.92939078125,34.49893C42.92939078125,33.39824,43.87334078125,32.50674,45.03877078125,32.50674Z" fill="url(#master_svg4_81_03961)" fill-opacity="1"/><path d="M39.75771078125,30.43705C39.75208078125,30.44238,39.74691078125,30.44728,39.74128078125,30.45262C38.84473778125,31.30331,38.35205078125,32.42072,38.35205078125,33.60742L38.35205078125,35.39043C38.35205078125,36.58076,38.84775378125,37.70137,39.74951078125,38.55303C40.65127078125,39.4047,41.83779078125,39.8729,43.09814078125,39.8729L54.208950781249996,39.8729C57.17695078125,39.8729,59.58295078125,37.46686,59.58295078125,34.49893C59.58295078125,31.53099,57.17695078125,29.125,54.208950781249996,29.125L43.09814078125,29.125C41.841630781250004,29.125,40.65326078125,29.590316,39.75771078125,30.43705ZM40.42930078125,31.1783Q39.35205078125,32.20066,39.35205078125,33.60742L39.35205078125,35.39043Q39.35205078125,36.80216,40.43614078125,37.82602Q41.54455078125,38.87285,43.09814078125,38.87285L54.208950781249996,38.87285Q56.02075078125,38.87285,57.301850781249996,37.59176Q58.58295078125,36.31067,58.58295078125,34.49893Q58.58295078125,32.68719,57.301850781249996,31.40609Q56.02075078125,30.124999,54.208950781249996,30.124999L43.09814078125,30.125Q41.54330078125,30.125,40.44474078125,31.16368L40.43645078125,31.17152L40.42960078125,31.17803L40.42930078125,31.1783ZM45.03877078125,31.50674Q46.31042078125,31.50674,47.21712078125,32.36306Q48.14814078125,33.24237,48.14814078125,34.49893Q48.14814078125,35.75549,47.21712078125,36.63479Q46.31042078125,37.49111,45.03877078125,37.49111Q43.76712078125,37.49111,42.86042078125,36.63479Q41.92939078125,35.75548,41.92939078125,34.49893Q41.92939078125,33.24237,42.86042078125,32.36306Q43.76712078125,31.50674,45.03877078125,31.50674ZM45.03877078125,32.50674C46.20420078125,32.50674,47.14814078125,33.39824,47.14814078125,34.49893C47.14814078125,35.59961,46.20420078125,36.49111,45.03877078125,36.49111C43.87334078125,36.49111,42.92939078125,35.59961,42.92939078125,34.49893C42.92939078125,33.39824,43.87334078125,32.50674,45.03877078125,32.50674Z" fill-rule="evenodd" fill="#FFFFFF" fill-opacity="1"/></g><g filter="url(#master_svg5_87_9847)"><path d="M53.1596431640625,15.015625L18.8400631640625,15.015625C15.2963131640625,15.015625,12.4117431640625,17.734965,12.4117431640625,21.086815L12.4117431640625,47.911625C12.4117431640625,51.258525,15.2910431640625,53.982825,18.8400631640625,53.982825L53.1543431640625,53.982825C56.6980431640625,53.982825,59.5826431640625,51.263525,59.5826431640625,47.911625L59.5826431640625,42.363425L43.097843164062496,42.363425C39.0373431640625,42.363425,35.7150431640625,39.225725,35.7150431640625,35.390725L35.7150431640625,33.607725C35.7150431640625,29.772725,39.0373431640625,26.635025,43.097843164062496,26.635025L59.5826431640625,26.635025L59.5826431640625,21.086815C59.5826431640625,17.739945,56.6980431640625,15.015625,53.1596431640625,15.015625Z" fill="url(#master_svg6_85_01409)" fill-opacity="1"/><path d="M53.1596431640625,15.015625L18.8400631640625,15.015625C15.2963131640625,15.015625,12.4117431640625,17.734965,12.4117431640625,21.086815L12.4117431640625,47.911625C12.4117431640625,51.258525,15.2910431640625,53.982825,18.8400631640625,53.982825L53.1543431640625,53.982825C56.6980431640625,53.982825,59.5826431640625,51.263525,59.5826431640625,47.911625L59.5826431640625,42.363425L58.5826431640625,42.363425L43.097843164062496,42.363425C39.0373431640625,42.363425,35.7150431640625,39.225725,35.7150431640625,35.390725L35.7150431640625,33.607725C35.7150431640625,29.772725,39.0373431640625,26.635025,43.097843164062496,26.635025L59.5826431640625,26.635025L59.5826431640625,21.086815C59.5826431640625,17.739945,56.6980431640625,15.015625,53.1596431640625,15.015625ZM43.097843164062496,43.363425L58.5826431640625,43.363425L58.5826431640625,47.911625Q58.5826431640625,49.993425,57.0109431640625,51.476925Q55.4156431640625,52.982825,53.1543431640625,52.982825L18.8400631640625,52.982825Q16.576953164062502,52.982825,14.9818531640625,51.475525Q13.4117431640625,49.991725,13.4117431640625,47.911625L13.4117431640625,21.086815Q13.4117431640625,19.004995,14.983413164062501,17.521485Q16.5787531640625,16.015625,18.8400631640625,16.015625L53.1596431640625,16.015625Q55.4161431640625,16.015625,57.0112431640625,17.522965Q58.5826431640625,19.007925,58.5826431640625,21.086815L58.5826431640625,25.635025L43.097843164062496,25.635025Q39.6548431640625,25.635025,37.197143164062496,27.956225Q34.7150431640625,30.300425,34.7150431640625,33.607725L34.7150431640625,35.390725Q34.7150431640625,38.698025,37.197143164062496,41.042225Q39.6548431640625,43.363425,43.097843164062496,43.363425Z" fill-rule="evenodd" fill="#FFFFFF" fill-opacity="1"/></g></g></g></svg>