<svg xmlns="http://www.w3.org/2000/svg" xmlns:xlink="http://www.w3.org/1999/xlink" fill="none" version="1.1" width="28" height="28" viewBox="0 0 28 28"><defs><clipPath id="master_svg0_88_02162"><rect x="0" y="0" width="28" height="28" rx="0"/></clipPath></defs><g clip-path="url(#master_svg0_88_02162)"><g style="opacity:0.800000011920929;"><path d="M25.423599609375,2.871249L25.423599609375,2.885249C25.423599609375,2.983249,25.395599609375,3.08125,25.367599609375,3.1792499999999997L25.283599609375,3.34725L21.755599609375,10.03925L21.629599609375,10.27725C21.475599609375,10.47325,21.237599609375,10.59925,20.971599609375,10.59925C20.831599609375,10.59925,20.691599609375,10.55725,20.579599609375,10.50125C20.537599609375,10.48725,20.495599609375,10.45925,20.467599609375,10.43125Q20.453599609375,10.43125,20.453599609375,10.41725C20.439599609375,10.40325,20.411599609375,10.37525,20.383599609375,10.36125C19.403599609375,9.49325,18.241599609375,8.83525,16.995599609375,8.41525C16.925599609375,8.38725,16.841599609375002,8.373249999999999,16.757599609375,8.34525C16.743599609375,8.34525,16.743599609375,8.33125,16.729599609375,8.33125C16.687599609375,8.30325,16.631599609375,8.27525,16.589599609375,8.247250000000001L16.463599609375002,8.12125L16.463599609375002,8.10725L16.449599609375,8.093250000000001L16.337599609374998,7.88325L16.337599609374998,7.86925L14.909599609375,5.2372499999999995L14.909599609375,5.22325L14.783599609375,4.99925C14.755599609375,4.91525,14.741599609375,4.81725,14.741599609375,4.719250000000001C14.741599609375,4.56525,14.783599609375,4.42525,14.853599609375,4.31325C14.867599609375,4.29925,14.867599609375,4.27125,14.895599609375,4.25725L15.847599609375,2.5772500000000003L15.847599609375,2.56325L15.987599609375,2.32525L16.099599609374998,2.21325L16.113599609375,2.19925C16.141599609375,2.17125,16.183599609375,2.14325,16.225599609375,2.1292501C16.295599609375,2.0872501,16.365599609375,2.0592501,16.449599609375,2.0452501C16.477599609374998,2.03125,16.505599609375,2.03125,16.533599609375003,2.03125L24.737599609375,2.03125C24.751599609375,2.03125,24.779599609375,2.03125,24.793599609375,2.0452501C24.807599609375,2.0452501,24.807599609375,2.0452501,24.821599609375,2.0592501C24.919599609375,2.0872501,25.017599609375,2.11525,25.087599609375,2.17125Q25.101599609375,2.17125,25.101599609375,2.18525C25.241599609375,2.28325,25.339599609375,2.40925,25.395599609375,2.56325C25.395599609375,2.66125,25.423599609375,2.77325,25.423599609375,2.871249ZM14.405599609375,7.12725L14.405599609375,7.14125C14.391599609375,7.60325,14.027599609375,7.96725,13.565599609375,7.96725L13.537599609375,7.96725C11.381599609375,8.065249999999999,9.323599609375,8.89125,7.713599609375,10.30525C7.671599609375,10.34725,7.629599609375,10.37525,7.573599609375,10.41725C7.433599609375,10.50125,7.279599609375,10.55725,7.111599609375,10.55725C6.971599609375,10.55725,6.831599609375,10.51525,6.719599609375,10.45925C6.677599609375,10.43125,6.621599609375,10.40325,6.579599609375,10.37525C6.523599609375,10.33325,6.467599609375,10.27725,6.439599609375,10.22125L6.341599609375,10.03925L6.341599609375,10.02525L2.757599609375,3.3752500000000003L2.757599609375,3.36125L2.631599509375,3.13725C2.603599409375,3.0532500000000002,2.589599609375,2.9552490000000002,2.589599609375,2.857249C2.589599609375,2.6612489999999998,2.659599609375,2.479249,2.771599609375,2.325249L2.883599609375,2.213249L2.897599609375,2.199249C2.995599609375,2.129249,3.107599609375,2.0732491,3.219599609375,2.045249L11.535599609375,2.045249C11.647599609375,2.073249,11.745599609375,2.115249,11.829599609375,2.171249Q11.843599609375,2.171249,11.843599609375,2.1852489999999998C11.941599609375,2.255249,12.011599609375,2.325249,12.067599609375,2.423249L12.137599609375,2.563249L14.223599609375,6.58125L14.237599609375,6.59525L14.237599609375,6.60925L14.265599609375,6.66525L14.335599609375,6.80525L14.335599609375,6.81925L14.349599609375,6.84725L14.363599609375,6.86125C14.391599609375,6.94525,14.405599609375,7.02925,14.405599609375,7.12725ZM13.999599609375,9.157250000000001C9.365599609375,9.157250000000001,5.599599609375,12.92325,5.599599609375,17.55725C5.599599609375,22.19125,9.365599609375,25.95725,13.999599609375,25.95725C18.633599609375,25.95725,22.399599609375,22.19125,22.399599609375,17.55725C22.399599609375,12.90925,18.633599609375,9.157250000000001,13.999599609375,9.157250000000001ZM17.121599609375,22.05125L13.999599609375,20.39925L10.877599609375,22.03725L11.479599609375,18.55125L8.945599609375,16.10125L12.445599609375,15.59725L13.999599609375,12.43325L15.567599609375,15.59725L19.067599609375,16.10125L16.533599609375003,18.56525L17.121599609375,22.05125Z" fill="#FFFFFF" fill-opacity="1"/></g></g></svg>