<svg xmlns="http://www.w3.org/2000/svg" xmlns:xlink="http://www.w3.org/1999/xlink" fill="none" version="1.1" width="64" height="64" viewBox="0 0 64 64"><defs><clipPath id="master_svg0_87_9822"><rect x="0" y="0" width="64" height="64" rx="0"/></clipPath><linearGradient x1="0.5" y1="0" x2="0.5" y2="1" id="master_svg1_85_00636"><stop offset="0%" stop-color="#23B1FF" stop-opacity="1"/><stop offset="100%" stop-color="#7DF9D2" stop-opacity="1"/></linearGradient><filter id="master_svg2_87_9824" filterUnits="objectBoundingBox" color-interpolation-filters="sRGB" x="0" y="0" width="60" height="40"><feFlood flood-opacity="0" result="BackgroundImageFix"/><feBlend mode="normal" in="SourceGraphic" in2="BackgroundImageFix" result="shape"/><feGaussianBlur in="BackgroundImage" stdDeviation="5"/><feComposite in2="SourceAlpha" operator="in" result="effect1_foregroundBlur"/><feBlend mode="normal" in="SourceGraphic" in2="effect1_foregroundBlur" result="shape"/></filter><linearGradient x1="0.5" y1="0" x2="0.5" y2="1" id="master_svg3_85_01247"><stop offset="0%" stop-color="#4CD8FF" stop-opacity="1"/><stop offset="100%" stop-color="#B7DDFB" stop-opacity="0.41999998688697815"/></linearGradient><clipPath id="master_svg4_87_9825"><rect x="18" y="13" width="28" height="28" rx="0"/></clipPath></defs><g clip-path="url(#master_svg0_87_9822)"><g><path d="M44.12431153259277,55C44.894111532592774,56.3333,43.93191153259278,58,42.39231153259277,58L21.607691532592774,58C20.068094532592774,58,19.105843532592772,56.3333,19.875644532592773,55L30.267911532592773,37C31.037711532592773,35.666667,32.962211532592775,35.666667,33.73201153259277,37L44.12431153259277,55Z" fill="url(#master_svg1_85_00636)" fill-opacity="1"/></g><g filter="url(#master_svg2_87_9824)"><rect x="2" y="7" width="60" height="40" rx="8" fill="url(#master_svg3_85_01247)" fill-opacity="1"/><rect x="2.5" y="7.5" width="59" height="39" rx="7.5" fill-opacity="0" stroke-opacity="1" stroke="#FFFFFF" fill="none" stroke-width="1"/></g><g clip-path="url(#master_svg4_87_9825)"><g><path d="M23.60011,25.880000000000003L40.3999,25.880000000000003L40.3999,28.119999999999997L23.60011,28.119999999999997L23.60011,25.880000000000003ZM40.3999,13.000164063L37.599900000000005,13.000164063L37.599900000000005,15.24014L40.3999,15.24014C42.252700000000004,15.24014,43.7598,16.7473,43.7598,18.60008L43.7598,22.24003L45.9998,22.24003L45.9998,18.60011C45.9998,15.50729,43.4927,13.000164063,40.3999,13.000164063ZM20.24014,18.60011C20.24014,16.747320000000002,21.74743,15.24016,23.60008,15.24016L26.40003,15.24016L26.40003,13.000164063L23.60011,13.000164063C20.50729,13.000164063,18.000164063,15.50729,18.000164063,18.60011L18.000164063,22.24005L20.24014,22.24005L20.24014,18.60011ZM20.24014,35.3999L20.24014,33.4399L18.000164063,33.4399L18.000164063,35.3999C18.000164063,38.4927,20.50726,40.9998,23.60008,40.9998L26.40003,40.9998L26.40003,38.7598L23.60011,38.7598C21.74743,38.7598,20.24014,37.252700000000004,20.24014,35.3999ZM43.7598,35.3999C43.7598,37.252700000000004,42.252700000000004,38.7598,40.3999,38.7598L37.599900000000005,38.7598L37.599900000000005,40.9998L40.3999,40.9998C43.4927,40.9998,45.9998,38.4927,45.9998,35.3999L45.9998,33.4399L43.7598,33.4399L43.7598,35.3999Z" fill="#FFFFFF" fill-opacity="1" style="mix-blend-mode:passthrough"/></g></g></g></svg>