<svg xmlns="http://www.w3.org/2000/svg" xmlns:xlink="http://www.w3.org/1999/xlink" fill="none" version="1.1" width="32" height="32" viewBox="0 0 32 32"><defs><clipPath id="master_svg0_107_01294"><rect x="0" y="0" width="32" height="32" rx="0"/></clipPath></defs><g clip-path="url(#master_svg0_107_01294)"><g><path d="M10.54549984375,26.181959375L3.27276984375,26.181959375C2.26861684375,26.181959375,1.45458984375,25.422259375,1.45458984375,24.485059375L1.45458984375,19.394159375C3.46387984375,19.395459375,5.09345984375,17.875559375,5.09345984375,16.000159375000003C5.09345984375,14.124839375,3.46387984375,12.604949375,1.45458984375,12.606239375000001L1.45458984375,7.515329375C1.45458984375,6.578118375,2.26861784375,5.818359375,3.27276984375,5.818359375L10.54549984375,5.818359375L10.54549984375,6.666844375C10.54549984375,7.135449375,10.95250984375,7.515329375,11.45458984375,7.515329375C11.95668984375,7.515329375,12.36368984375,7.135449375,12.36368984375,6.666844375L12.36368984375,5.818359375L28.72728984375,5.818359375C29.73148984375,5.818359375,30.54548984375,6.578118375,30.54548984375,7.515329375L30.54548984375,12.606239375000001C28.53618984375,12.604949375,26.90658984375,14.124839375,26.90658984375,16.000159375000003C26.90658984375,17.875559375,28.53618984375,19.395459375,30.54548984375,19.394159375L30.54548984375,24.485059375C30.54548984375,25.422259375,29.73148984375,26.181959375,28.72728984375,26.181959375L12.36368984375,26.181959375L12.36368984375,25.333559375C12.36368984375,24.864859375,11.95668984375,24.485059375,11.45458984375,24.485059375C10.95250984375,24.485059375,10.54549984375,24.864859375,10.54549984375,25.333559375L10.54549984375,26.181959375ZM11.45458984375,10.909269375000001C10.95250984375,10.909269375000001,10.54549984375,11.289149375000001,10.54549984375,11.757749375L10.54549984375,13.454719375C10.54549984375,13.923329375,10.95250984375,14.303209375,11.45458984375,14.303209375C11.95668984375,14.303209375,12.36368984375,13.923329375,12.36368984375,13.454719375L12.36368984375,11.757749375C12.36368984375,11.289149375000001,11.95668984375,10.909269375000001,11.45458984375,10.909269375000001ZM11.45458984375,17.697159375C10.95250984375,17.697159375,10.54549984375,18.077059374999997,10.54549984375,18.545659375L10.54549984375,20.242559375C10.54549984375,20.711159375,10.95250984375,21.091059375,11.45458984375,21.091059375C11.95668984375,21.091059375,12.36368984375,20.711159375,12.36368984375,20.242559375L12.36368984375,18.545659375C12.36368984375,18.077059374999997,11.95668984375,17.697159375,11.45458984375,17.697159375Z" fill="#2A2A37" fill-opacity="1" style="mix-blend-mode:passthrough"/></g></g></svg>