<svg xmlns="http://www.w3.org/2000/svg" xmlns:xlink="http://www.w3.org/1999/xlink" fill="none" version="1.1" width="28" height="28" viewBox="0 0 28 28"><defs><clipPath id="master_svg0_88_02164"><rect x="0" y="0" width="28" height="28" rx="0"/></clipPath></defs><g style="opacity:0.800000011920929;" clip-path="url(#master_svg0_88_02164)"><g><path d="M19.4797,8.98112Q19.4852,10.4143,14.9133,14.4622Q12.17344,14.9436,13.08672,12.63519L15.3672,9.89463Q15.3672,6.7821,13.08672,9.44061L9.433589999999999,9.44061Q8.744530000000001,8.264520000000001,13.08672,3.5L15.3672,3.5Q17.0516,3.5,20.8469,4.86754L24.5,4.86754L24.5,8.97564L19.4797,8.97564L19.4797,8.98112ZM12.75859,11.74902C12.15156,12.32886,11.91641,13.19862,12.15703,14.0027L6.92891,14.0027C6.55156,14.0027,6.24531,14.3091,6.24531,14.6865C6.24531,15.064,6.55156,15.3703,6.92891,15.3703L19.7094,15.3703C20.0867,15.3703,20.393,15.064,20.393,14.6865C20.393,14.3091,20.0867,14.0027,19.7094,14.0027L16.1,14.0027L19.5945,10.507290000000001C19.775,10.32678,19.9227,10.11891,20.0375,9.88916L20.8578,9.88916C22.1211,9.88916,23.1383,10.91209,23.1383,12.17023L23.1383,22.2189C23.1383,23.4825,22.1156,24.5,20.8578,24.5L5.78047,24.5C4.51719,24.5,3.5,23.4771,3.5,22.2189L3.5,12.1757C3.5,10.91209,4.52266,9.89463,5.78047,9.89463L14.6125,9.89463L12.75859,11.74902ZM6.923439999999999,20.8514L15.5969,20.8514C15.9742,20.8514,16.2805,20.5451,16.2805,20.1676C16.2805,19.7902,15.9742,19.483800000000002,15.5969,19.483800000000002L6.923439999999999,19.483800000000002C6.5460899999999995,19.483800000000002,6.23984,19.7902,6.23984,20.1676C6.23984,20.5451,6.5460899999999995,20.8514,6.923439999999999,20.8514ZM6.923439999999999,18.110799999999998L19.7039,18.110799999999998C20.0812,18.110799999999998,20.3875,17.8045,20.3875,17.4271C20.3875,17.049599999999998,20.0812,16.743299999999998,19.7039,16.743299999999998L6.923439999999999,16.743299999999998C6.5460899999999995,16.743299999999998,6.23984,17.049599999999998,6.23984,17.4271C6.23984,17.8045,6.5460899999999995,18.110799999999998,6.923439999999999,18.110799999999998Z" fill="#FFFFFF" fill-opacity="1"/></g></g></svg>