<svg xmlns="http://www.w3.org/2000/svg" xmlns:xlink="http://www.w3.org/1999/xlink" fill="none" version="1.1" width="44" height="44" viewBox="0 0 44 44"><defs><clipPath id="master_svg0_88_05865"><rect x="0" y="0" width="44" height="44" rx="0"/></clipPath></defs><g clip-path="url(#master_svg0_88_05865)"><g><path d="M33.6875,6.875L28.875,6.875L28.875,5.5C28.875,4.74375,28.2563,4.125,27.5,4.125C26.7437,4.125,26.125,4.74375,26.125,5.5L26.125,6.875L17.875,6.875L17.875,5.5C17.875,4.74375,17.2563,4.125,16.5,4.125C15.7437,4.125,15.125,4.74375,15.125,5.5L15.125,6.875L10.3125,6.875C6.53125,6.875,3.4375,9.96875,3.4375,13.75L3.4375,33C3.4375,36.7812,6.53125,39.875,10.3125,39.875L33.6875,39.875C37.4687,39.875,40.5625,36.7812,40.5625,33L40.5625,13.75C40.5625,9.96875,37.4687,6.875,33.6875,6.875ZM10.3125,9.625L15.125,9.625L15.125,11C15.125,11.75625,15.7437,12.375,16.5,12.375C17.2563,12.375,17.875,11.75625,17.875,11L17.875,9.625L26.125,9.625L26.125,11C26.125,11.75625,26.7437,12.375,27.5,12.375C28.2563,12.375,28.875,11.75625,28.875,11L28.875,9.625L33.6875,9.625C35.9562,9.625,37.8125,11.48125,37.8125,13.75L37.8125,15.125L6.1875,15.125L6.1875,13.75C6.1875,11.48125,8.04375,9.625,10.3125,9.625ZM33.6875,37.125L10.3125,37.125C8.04375,37.125,6.1875,35.268699999999995,6.1875,33L6.1875,17.875L37.8125,17.875L37.8125,33C37.8125,35.268699999999995,35.9562,37.125,33.6875,37.125Z" fill="#333333" fill-opacity="1" style="mix-blend-mode:passthrough"/></g><g><path d="M12.375,28.875L15.125,28.875C15.88125,28.875,16.5,29.49375,16.5,30.25C16.5,31.00625,15.88125,31.625,15.125,31.625L12.375,31.625C11.61875,31.625,11,31.00625,11,30.25C11,29.49375,11.61875,28.875,12.375,28.875ZM20.625,28.875L23.375,28.875C24.1313,28.875,24.75,29.49375,24.75,30.25C24.75,31.00625,24.1313,31.625,23.375,31.625L20.625,31.625C19.86875,31.625,19.25,31.00625,19.25,30.25C19.25,29.49375,19.86875,28.875,20.625,28.875ZM28.875,28.875L31.625,28.875C32.381299999999996,28.875,33,29.49375,33,30.25C33,31.00625,32.381299999999996,31.625,31.625,31.625L28.875,31.625C28.1187,31.625,27.5,31.00625,27.5,30.25C27.5,29.49375,28.1187,28.875,28.875,28.875ZM12.375,22L15.125,22C15.88125,22,16.5,22.61875,16.5,23.375C16.5,24.13125,15.88125,24.75,15.125,24.75L12.375,24.75C11.61875,24.75,11,24.13125,11,23.375C11,22.61875,11.61875,22,12.375,22ZM20.625,22L23.375,22C24.1313,22,24.75,22.61875,24.75,23.375C24.75,24.13125,24.1313,24.75,23.375,24.75L20.625,24.75C19.86875,24.75,19.25,24.13125,19.25,23.375C19.25,22.61875,19.86875,22,20.625,22ZM28.875,22L31.625,22C32.381299999999996,22,33,22.61875,33,23.375C33,24.13125,32.381299999999996,24.75,31.625,24.75L28.875,24.75C28.1187,24.75,27.5,24.13125,27.5,23.375C27.5,22.61875,28.1187,22,28.875,22Z" fill="#333333" fill-opacity="1" style="mix-blend-mode:passthrough"/></g></g></svg>