<svg xmlns="http://www.w3.org/2000/svg" xmlns:xlink="http://www.w3.org/1999/xlink" fill="none" version="1.1" width="510" height="165" viewBox="0 0 510 165"><g><g><path d="M380,89.0380859375Q386,94.0380859375,386,96.0380859375L386,100.5380859375Q391,96.0380859375,393.5,96.0380859375Q396,96.0380859375,398,94.5380859375L393.5,80.5380859375Q388.5,85.0380859375,386,87.0380859375Q383.5,89.0380859375,380,89.0380859375Z" fill="#FF53E2" fill-opacity="1"/></g><g><path d="M0,134.0630859375Q4,137.3130859375,4,138.6130859375L4,141.5380859375Q7.33333,138.6130859375,9,138.6130859375Q10.6667,138.6130859375,12,137.6380859375L9,128.5380859375Q5.66667,131.4630859375,4,132.7630859375Q2.33333,134.0630859375,0,134.0630859375Z" fill="#FF53E2" fill-opacity="1"/></g><g><path d="M429.781208,108.0380859375Q427.28129,112.5380859375,432.78121,118.0380859375Q433.28121,123.5380859375,438.28121,124.5380859375C443.2812,125.5380859375,447.2812,127.5380859375,448.2812,131.5380859375C448.8426,133.7834859375,447.6707,134.9259859375,446.2694,136.2922859375C445.1743,137.3599859375,443.9392,138.56418593749999,443.2812,140.5380859375Q441.7812,145.0380859375,447.2812,150.5380859375L447.2812,144.5380859375C447.2812,140.5380859375,450.7812,141.0380859375,451.2812,136.0380859375C451.7812,131.0380859375,451.2812,128.5380859375,448.2812,123.5380859375C445.2812,118.5380859375,439.2812,120.5380859375,434.78126,118.0380859375C431.71722,116.33578593749999,433.05764,113.9380859375,434.6986,111.0027859375C435.4676,109.6271859375,436.30262,108.1335859375,436.78126,106.5380859375Q438.28126,101.5380859375,434.28126,94.5380859375Q433.78113,97.5380859375,433.28113,100.5380859375C432.78113,103.5380859375,432.28113,103.5380859375,429.781208,108.0380859375Z" fill="#39EEDE" fill-opacity="1"/></g><g transform="matrix(0.969304621219635,-0.2458626627922058,0.2458626627922058,0.969304621219635,4.617535748213413,84.79192094235623)"><path d="M342.517224140625,34.7515203125Q340.512849140625,38.3676203125,344.922559140625,42.7872203125Q345.323449140625,47.2069203125,349.332329140625,48.0104203125C353.341169140625,48.8140203125,356.548369140625,50.4212203125,357.350069140625,53.6354203125C357.800169140625,55.439820312500004,356.860669140625,56.3579203125,355.737069140625,57.4558203125C354.859069140625,58.3137203125,353.868769140625,59.2814203125,353.341169140625,60.8676203125Q352.138569140625,64.4837203125,356.548369140625,68.9033203125L356.548369140625,64.0819203125C356.548369140625,60.8676203125,359.354569140625,61.2694203125,359.755469140625,57.2515203125C360.156369140625,53.2337203125,359.755469140625,51.2247203125,357.350069140625,47.2069203125C354.944769140625,43.1890203125,350.134109140625,44.7962203125,346.526149140625,42.7872203125C344.069469140625,41.4193203125,345.144189140625,39.4926203125,346.459869140625,37.1339203125C347.076449140625,36.0285203125,347.745939140625,34.8282203125,348.129709140625,33.5461803125Q349.332369140625,29.5283203125,346.125259140625,23.9033203125Q345.724269140625,26.3140303125,345.323379140625,28.7247503125C344.922489140625,31.1354603125,344.52159914062497,31.1354603125,342.517224140625,34.7515203125Z" fill="#FFDA73" fill-opacity="1"/></g><g><ellipse cx="477" cy="24" rx="9" ry="9" fill="#FFC155" fill-opacity="1"/></g><g><ellipse cx="435" cy="43" rx="6" ry="6" fill="#55D472" fill-opacity="1"/></g><g><ellipse cx="504" cy="87" rx="6" ry="6" fill="#48C564" fill-opacity="1"/></g><g><g><path d="M58.84614,150Q53.84619,154,55.346136,165Q55.846136,162,57.84614,158.5C59.84614,155,65.8461,155,68.8461,152.5C71.8461,150,73.8461,145.5,75.3461,142.5C76.8461,139.5,81.8461,136.5,82.8461,128.5C83.3292,124.6351,82.1785,120.8869,81.029,117.1426C79.7992,113.1366,78.57079999999999,109.1351,79.3461,105C80.8461,97,87.3461,98.5,95.3461,93Q103.3461,87.5,104.8461,74Q103.3461,77.5,98.3461,82C93.3461,86.5,93.3461,84.5,85.3461,88.5Q77.3461,92.5,76.8461,105Q74.3461,109.5,75.3462,116.5C76.3463,123.5,76.3461,135,75.3462,139.5C74.3463,144,63.84608,146,58.84614,150Z" fill="#F7B026" fill-opacity="1"/></g><g transform="matrix(0.4999999701976776,0.866025447845459,-0.866025447845459,0.4999999701976776,149.05482851325723,-71.84240017848788)"><path d="M136.7447509765625,100.9489625Q142.2399709765625,105.5283625,142.2399709765625,107.3600625L142.2399709765625,111.48146249999999Q146.8193509765625,107.3600625,149.10905097656251,107.3600625Q151.3986509765625,107.3600625,153.2304509765625,105.9862625L149.10905097656251,93.1640625Q144.5296509765625,97.2854825,142.2399709765625,99.1172225Q139.9503009765625,100.9489625,136.7447509765625,100.9489625Z" fill="#53A6FF" fill-opacity="1"/></g><g transform="matrix(0.4999999701976776,0.866025447845459,-0.866025447845459,0.4999999701976776,356.8832690423733,-361.0117021346914)"><path d="M491.0869140625,135.47723743164062Q495.6957240625,139.54381743164063,495.6957240625,141.17041743164063L495.6957240625,144.83031743164062Q499.5364040625,141.17041743164063,501.4567140625,141.17041743164063Q503.3771140625,141.17041743164063,504.9133140625,139.95041743164063L501.4567140625,128.56411743164062Q497.6160640625,132.22400743164062,495.6957240625,133.85062743164062Q493.7753840625,135.47723743164062,491.0869140625,135.47723743164062Z" fill="#53A6FF" fill-opacity="1"/></g><g><ellipse cx="21.5" cy="73.5" rx="9.5" ry="9.5" fill="#55D472" fill-opacity="1"/></g><g><ellipse cx="140" cy="10" rx="10" ry="10" fill="#FFC155" fill-opacity="1"/></g><g><ellipse cx="72" cy="55" rx="6" ry="6" fill="#FFC155" fill-opacity="1"/></g><g><ellipse cx="165" cy="63" rx="6" ry="6" fill="#FFC155" fill-opacity="1"/></g></g></g></svg>