<svg xmlns="http://www.w3.org/2000/svg" xmlns:xlink="http://www.w3.org/1999/xlink" fill="none" version="1.1" width="54" height="54" viewBox="0 0 54 54"><defs><clipPath id="master_svg0_79_11105"><rect x="0" y="0" width="54" height="54" rx="0"/></clipPath></defs><g clip-path="url(#master_svg0_79_11105)"><g><path d="M35.217964843749996,33.58984375L19.86396484375,33.58984375C18.87396484375,33.58984375,18.06396484375,34.39984375,18.06396484375,35.38984375C18.06396484375,36.37984375,18.87396484375,37.18984375,19.86396484375,37.18984375L35.217964843749996,37.18984375C36.20796484375,37.18984375,37.01796484375,36.37984375,37.01796484375,35.38984375C37.01796484375,34.39984175,36.20796484375,33.58984375,35.217964843749996,33.58984375Z" fill="#18CBE6" fill-opacity="1"/></g><g><path d="M41.77826171875,9.99300875C39.333961718750004,7.53686875,36.00936171875,6.15970223,32.54426171875,6.1680058289L14.86826171875,6.1680058289C11.88926171875,6.1680058289,9.46826171875,8.58900875,9.46826171875,11.56800875L9.46826171875,42.32996875C9.46826171875,45.30896875,11.88926171875,47.72996875,14.86826171875,47.72996875L40.20326171875,47.72996875C43.18226171875,47.72996875,45.60326171875,45.30896875,45.60326171875,42.32996875L45.60326171875,19.235968749999998C45.61226171875,15.73500875,44.25326171875,12.459008749999999,41.77826171875,9.99300875ZM42.00326171875,42.32096875C42.00326171875,43.31096875,41.19326171875,44.12096875,40.20326171875,44.12096875L14.86826171875,44.12096875C13.87826171875,44.12096875,13.06826171875,43.31096875,13.06826171875,42.32096875L13.06826171875,11.56800875C13.06826171875,10.57800875,13.87826171875,9.76800875,14.86826171875,9.76800875L32.54426171875,9.76800875C35.073261718750004,9.76800875,37.44926171875,10.74900875,39.231261718750005,12.54000875C41.01326171875,14.33100875,42.00326171875,16.70696875,42.00326171875,19.235968749999998L42.00326171875,42.32096875Z" fill="#333333" fill-opacity="1"/></g></g></svg>