<svg xmlns="http://www.w3.org/2000/svg" xmlns:xlink="http://www.w3.org/1999/xlink" fill="none" version="1.1" width="54" height="54" viewBox="0 0 54 54"><defs><clipPath id="master_svg0_79_11098"><rect x="0" y="0" width="54" height="54" rx="0"/></clipPath></defs><g><g clip-path="url(#master_svg0_79_11098)"><g><path d="M43.4845,45L10.51554,45C7.2046600000000005,45,4.500000111291,42.216,4.500000111291,38.808L4.500000111291,32.760000000000005L5.6658,32.472C7.90414,31.944,9.48964,29.88,9.48964,27.48C9.48964,25.08,7.90414,23.016,5.6658,22.488L4.5,22.2L4.5,15.192C4.5,11.783999999999999,7.2046600000000005,9,10.51554,9L43.4845,9C46.7953,9,49.5,11.783999999999999,49.5,15.192L49.5,22.296L48.101,22.392C45.5363,22.584,43.4845,24.84,43.4845,27.528C43.4845,30.216,45.4896,32.472,48.101,32.664L49.5,32.760000000000005L49.5,38.856C49.5,42.216,46.7953,45,43.4845,45ZM7.53109,35.16L7.53109,38.856C7.53109,40.536,8.883420000000001,41.928,10.51554,41.928L43.4845,41.928C45.1166,41.928,46.4689,40.536,46.4689,38.856L46.4689,35.495999999999995C43.0181,34.584,40.4534,31.32,40.4534,27.528C40.4534,23.736,42.9715,20.472,46.4689,19.560000000000002L46.4689,15.192C46.4689,13.512,45.1166,12.120000000000001,43.4845,12.120000000000001L10.51554,12.120000000000001C8.883420000000001,12.120000000000001,7.53109,13.512,7.53109,15.192L7.53109,19.896C10.51554,21.144,12.52073,24.119999999999997,12.52073,27.528C12.52073,30.936,10.56218,33.912,7.53109,35.16Z" fill="#333333" fill-opacity="1"/></g><g><path d="M31.5,20.25L34.425,20.25L34.425,33.75L31.5,33.75L31.5,20.25Z" fill="#18CBE6" fill-opacity="1"/></g></g></g></svg>