<svg xmlns="http://www.w3.org/2000/svg" xmlns:xlink="http://www.w3.org/1999/xlink" fill="none" version="1.1" width="54" height="54" viewBox="0 0 54 54"><defs><clipPath id="master_svg0_79_04003"><rect x="0" y="0" width="54" height="54" rx="0"/></clipPath></defs><g clip-path="url(#master_svg0_79_04003)"><g><path d="M35.796675,11.76374Q35.499975,11.59249,35.499975,11.25Q35.499975,8.66116,33.669475,6.8305887Q31.838875,5,29.249975,5L24.749975,5Q22.161175,5,20.330675,6.8305908Q18.500075000000002,8.66118,18.500075000000002,11.25Q18.500075000000002,11.59252,18.203474999999997,11.76378Q17.906775,11.93504,17.610194999999997,11.76378Q15.368175,10.46937,12.867555,11.13941Q10.366935,11.80945,9.072525,14.05143L6.822528,17.9485Q5.528105,20.1905,6.198145,22.691200000000002Q6.868176,25.1918,9.110175,26.4863Q9.406785,26.6575,9.406775,27Q9.406765,27.3425,9.110205,27.5137Q6.868122,28.8082,6.198085,31.3088Q5.528055,33.8095,6.822451,36.051500000000004L9.072475,39.9485Q10.366875,42.1905,12.867465,42.8606Q15.368145,43.5307,17.610135,42.2363Q17.906775,42.065,18.203474999999997,42.2362Q18.500075000000002,42.4075,18.500075000000002,42.75Q18.500075000000002,45.3389,20.330675,47.1694Q22.161175,49,24.749975,49L29.249975,49Q31.838875,49,33.669475,47.1694Q35.499975,45.3389,35.499975,42.75Q35.499975,42.4075,35.796675,42.2362Q36.093275,42.065,36.389875,42.2362Q38.631975,43.5307,41.132675,42.8606Q43.633275,42.1905,44.927675,39.9485L47.177675,36.051500000000004Q48.471975,33.8094,47.801975,31.3088Q47.131975,28.8082,44.889975,27.5137Q44.593275,27.3425,44.593275,27Q44.593275,26.6575,44.889875,26.4863Q47.131975,25.1918,47.801975,22.6911Q48.471975,20.1905,47.177475,17.9485L44.927475,14.05143Q43.633275,11.80946,41.132575,11.139389999999999Q38.631975,10.469339999999999,36.389975,11.76374Q36.093275,11.93502,35.796675,11.76374ZM29.249975,8.5Q31.999975,8.5,31.999975,11.25Q31.999975,13.61325,34.046675,14.79486Q36.093375,15.97645,38.139975,14.79485Q39.126475,14.2253,40.226675,14.52012Q41.326975,14.81493,41.896375,15.80143L44.146375,19.6986Q44.715975,20.6851,44.421175,21.7854Q44.126375,22.8856,43.140075,23.4551Q41.093275,24.6366,41.093275,27Q41.093275,29.3634,43.139975,30.5448Q45.521475,31.9198,44.146675,34.301500000000004L41.896675,38.198499999999996Q41.327075,39.185,40.226775,39.4799Q39.126475,39.7747,38.139975,39.2052Q36.093375,38.0235,34.046675,39.2051Q31.999975,40.3867,31.999975,42.75Q31.999975,45.5,29.249975,45.5L24.749975,45.5Q22.000075000000002,45.5,22.000075000000002,42.75Q22.000075000000002,40.3867,19.953375,39.2051Q17.906675,38.0235,15.860095,39.2052Q14.873675,39.7747,13.773415,39.4799Q12.673124999999999,39.185,12.103535,38.198499999999996L9.853555,34.301500000000004Q8.478545,31.9199,10.860025,30.5449Q12.906735000000001,29.3634,12.906775,27Q12.906815,24.6367,10.860195000000001,23.4552Q8.478596,22.0801,9.853615,19.6985L12.103615,15.80143Q13.478605,13.41988,15.860175,14.79486Q17.906775,15.9765,19.953474999999997,14.79487Q22.000075000000002,13.61325,22.000075000000002,11.25Q22.000075000000002,10.11091,22.805574999999997,9.30545Q23.610975,8.5,24.749975,8.5L29.249975,8.5Z" fill-rule="evenodd" fill="#333333" fill-opacity="1" style="mix-blend-mode:passthrough"/></g><g><path d="M31.41944,22.5805569Q29.58889,20.75,27,20.75Q24.41126,20.75,22.5806627,22.5805355Q20.75,24.41113,20.75,27Q20.75,29.58887,22.5806627,31.41947Q24.41126,33.25,27,33.25Q29.58889,33.25,31.41944,31.41944Q33.25,29.58889,33.25,27Q33.25,24.41111,31.41944,22.5805569ZM25.05549,25.05545Q25.860970000000002,24.25,27,24.25Q28.13914,24.25,28.94457,25.05543Q29.75,25.86086,29.75,27Q29.75,28.13914,28.94457,28.94457Q28.13914,29.75,27,29.75Q25.860970000000002,29.75,25.05549,28.94455Q24.25,28.13908,24.25,27Q24.25,25.86092,25.05549,25.05545Z" fill-rule="evenodd" fill="#333333" fill-opacity="1" style="mix-blend-mode:passthrough"/></g></g></svg>