<svg xmlns="http://www.w3.org/2000/svg" xmlns:xlink="http://www.w3.org/1999/xlink" fill="none" version="1.1" width="54" height="54" viewBox="0 0 54 54"><defs><clipPath id="master_svg0_81_7766"><rect x="0" y="0" width="54" height="54" rx="0"/></clipPath></defs><g clip-path="url(#master_svg0_81_7766)"><g><path d="M6.70535565625,35.3756L6.70536825625,35.3756Q7.62384515625,37.5991,7.12273215625,39.1926Q6.32633215625,41.7248,5.46782515625,43.3657Q4.70781515625,44.8182,4.99566515625,46.3018Q5.38379515625,48.3023,7.27911615625,48.8405Q11.48982515625,50.0368,18.574035156249998,48.3601Q20.22103515625,47.9705,22.08553515625,48.3973Q24.50073515625,48.95,27.00043515625,48.95Q36.09233515625,48.95,42.52133515625,42.521Q48.95043515625,36.092,48.95043515625,27Q48.95043515625,17.908,42.52133515625,11.479009999999999Q36.09233515625,5.05,27.00043515625,5.05Q17.90833515625,5.05,11.47934515625,11.479009999999999Q5.05033515625,17.908,5.05033515625,27Q5.05033515625,31.3693,6.70535565625,35.3756ZM10.36610515625,40.2126Q11.23750515625,37.4417,9.847795156250001,34.0775L9.84778515625,34.0774Q8.45033515625,30.6946,8.45033515625,27Q8.45033515625,19.3163,13.88350515625,13.88317Q19.316735156249997,8.45,27.00043515625,8.45Q34.684035156250005,8.45,40.11723515625,13.88317Q45.55043515625,19.3164,45.55043515625,27Q45.55043515625,34.6837,40.11723515625,40.1169Q34.684035156250005,45.55,27.00043515625,45.55Q24.88483515625,45.55,22.84393515625,45.083Q20.20853515625,44.4797,17.79143515625,45.0514Q11.67534515625,46.499,8.32524515625,45.6022Q8.28936515625,45.307,8.48037515625,44.9419Q9.47902515625,43.0332,10.36610515625,40.2126ZM18.00033515625,21.925Q17.916835156250002,21.925,17.83373515625,21.9332Q17.75063515625,21.9414,17.668635156249998,21.957700000000003Q17.58673515625,21.974,17.50683515625,21.9982Q17.42693515625,22.022399999999998,17.34973515625,22.0544Q17.27263515625,22.086399999999998,17.198935156250002,22.125700000000002Q17.12533515625,22.165100000000002,17.055835156249998,22.2115Q16.98643515625,22.2579,16.921835156249998,22.3109Q16.857335156250002,22.3639,16.79823515625,22.4229Q16.73923515625,22.482,16.68623515625,22.5465Q16.633235156250002,22.6111,16.58683515625,22.680500000000002Q16.54043515625,22.75,16.50106515625,22.8236Q16.461695156250002,22.8973,16.42973515625,22.9744Q16.397785156250002,23.0516,16.37353515625,23.1315Q16.34929515625,23.2114,16.33300515625,23.2933Q16.316705156250002,23.3753,16.30852515625,23.4584Q16.30033515625,23.5415,16.30033515625,23.625Q16.30033515625,23.7085,16.30852515625,23.7916Q16.316705156250002,23.8747,16.33299515625,23.9567Q16.34929515625,24.0386,16.37353515625,24.1185Q16.397785156250002,24.1984,16.42973515625,24.2756Q16.461695156250002,24.3527,16.50106515625,24.4264Q16.54043515625,24.5,16.58683515625,24.5695Q16.633235156250002,24.6389,16.68623515625,24.7035Q16.73923515625,24.768,16.79823515625,24.8271Q16.857335156250002,24.8861,16.921835156249998,24.9391Q16.98643515625,24.9921,17.055835156249998,25.0385Q17.12533515625,25.0849,17.198935156250002,25.1243Q17.27263515625,25.1636,17.34973515625,25.1956Q17.42693515625,25.2276,17.50683515625,25.2518Q17.58673515625,25.276,17.668635156249998,25.2923Q17.75063515625,25.3086,17.83373515625,25.3168Q17.916835156250002,25.325,18.00033515625,25.325L36.00043515625,25.325Q36.08393515625,25.325,36.16703515625,25.3168Q36.250135156249996,25.3086,36.33203515625,25.2923Q36.41403515625,25.276,36.493935156250004,25.2518Q36.57383515625,25.2276,36.65103515625,25.1956Q36.728135156250005,25.1636,36.80183515625,25.1243Q36.87543515625,25.0849,36.94493515625,25.0385Q37.01433515625,24.9921,37.07893515625,24.9391Q37.14343515625,24.8861,37.20253515625,24.8271Q37.261535156250005,24.768,37.31453515625,24.7035Q37.36753515625,24.6389,37.413935156250005,24.5695Q37.46033515625,24.5,37.49973515625,24.4264Q37.53903515625,24.3527,37.571035156250005,24.2756Q37.60293515625,24.1984,37.627235156249995,24.1185Q37.65143515625,24.0386,37.667735156250004,23.9567Q37.684035156250005,23.8747,37.69223515625,23.7916Q37.700435156249995,23.7085,37.700435156249995,23.625Q37.700435156249995,23.5415,37.69223515625,23.4584Q37.684035156250005,23.3753,37.667735156250004,23.2933Q37.65143515625,23.2114,37.627235156249995,23.1315Q37.60293515625,23.0516,37.571035156250005,22.9744Q37.53903515625,22.8973,37.49973515625,22.8236Q37.46033515625,22.75,37.413935156250005,22.680500000000002Q37.36753515625,22.6111,37.31453515625,22.5465Q37.261535156250005,22.482,37.20253515625,22.4229Q37.14343515625,22.3639,37.07893515625,22.3109Q37.01433515625,22.2579,36.94493515625,22.2115Q36.87543515625,22.165100000000002,36.80183515625,22.125700000000002Q36.728135156250005,22.086399999999998,36.65103515625,22.0544Q36.57383515625,22.022399999999998,36.493935156250004,21.9982Q36.41403515625,21.974,36.33203515625,21.957700000000003Q36.250135156249996,21.9414,36.16703515625,21.9332Q36.08393515625,21.925,36.00043515625,21.925L18.00033515625,21.925ZM18.00033515625,30.925Q17.916835156250002,30.925,17.83373515625,30.9332Q17.75063515625,30.9414,17.668635156249998,30.9577Q17.58673515625,30.974,17.50683515625,30.9982Q17.42693515625,31.0224,17.34973515625,31.0544Q17.27263515625,31.0864,17.198935156250002,31.1257Q17.12533515625,31.1651,17.055835156249998,31.2115Q16.98643515625,31.2579,16.921835156249998,31.3109Q16.857335156250002,31.3639,16.79823515625,31.4229Q16.73923515625,31.482,16.68623515625,31.5465Q16.633235156250002,31.6111,16.58683515625,31.6805Q16.54043515625,31.75,16.50106515625,31.8236Q16.461695156250002,31.8973,16.42973515625,31.9744Q16.397785156250002,32.0516,16.37353515625,32.1315Q16.34929515625,32.2114,16.33300515625,32.2934Q16.316705156250002,32.375299999999996,16.30852515625,32.4584Q16.30033515625,32.5415,16.30033515625,32.625Q16.30033515625,32.7085,16.30852515625,32.7916Q16.316705156250002,32.874700000000004,16.33299515625,32.9567Q16.34929515625,33.0386,16.37353515625,33.1185Q16.397785156250002,33.1984,16.42973515625,33.2756Q16.461695156250002,33.3527,16.50106515625,33.4264Q16.54043515625,33.5,16.58683515625,33.569500000000005Q16.633235156250002,33.6389,16.68623515625,33.7035Q16.73923515625,33.768,16.79823515625,33.8271Q16.857335156250002,33.8861,16.921835156249998,33.939099999999996Q16.98643515625,33.9921,17.055835156249998,34.0385Q17.12533515625,34.084900000000005,17.198935156250002,34.124300000000005Q17.27263515625,34.1636,17.34973515625,34.1956Q17.42693515625,34.227599999999995,17.50683515625,34.2518Q17.58673515625,34.275999999999996,17.668635156249998,34.2923Q17.75063515625,34.3086,17.83373515625,34.3168Q17.916835156250002,34.325,18.00033515625,34.325L27.00043515625,34.325Q27.08393515625,34.325,27.16703515625,34.3168Q27.25013515625,34.3086,27.33203515625,34.2923Q27.41403515625,34.275999999999996,27.49393515625,34.2518Q27.57383515625,34.227599999999995,27.65103515625,34.1956Q27.72813515625,34.1636,27.80183515625,34.124300000000005Q27.87543515625,34.084900000000005,27.94493515625,34.0385Q28.01433515625,33.9921,28.07893515625,33.939099999999996Q28.14343515625,33.8861,28.20253515625,33.8271Q28.26153515625,33.768,28.31453515625,33.7035Q28.36753515625,33.6389,28.41393515625,33.569500000000005Q28.46033515625,33.5,28.49973515625,33.4264Q28.53903515625,33.3527,28.57103515625,33.2756Q28.60293515625,33.1984,28.62723515625,33.1185Q28.65143515625,33.0386,28.66773515625,32.9567Q28.68403515625,32.874700000000004,28.69223515625,32.7916Q28.70043515625,32.7085,28.70043515625,32.625Q28.70043515625,32.5415,28.69223515625,32.4584Q28.68403515625,32.375299999999996,28.66773515625,32.2934Q28.65143515625,32.2114,28.62723515625,32.1315Q28.60293515625,32.0516,28.57103515625,31.9744Q28.53903515625,31.8973,28.49973515625,31.8236Q28.46033515625,31.75,28.41393515625,31.6805Q28.36753515625,31.6111,28.31453515625,31.5465Q28.26153515625,31.482,28.20253515625,31.4229Q28.14343515625,31.3639,28.07893515625,31.3109Q28.01433515625,31.2579,27.94493515625,31.2115Q27.87543515625,31.1651,27.80183515625,31.1257Q27.72813515625,31.0864,27.65103515625,31.0544Q27.57383515625,31.0224,27.49393515625,30.9982Q27.41403515625,30.974,27.33203515625,30.9577Q27.25013515625,30.9414,27.16703515625,30.9332Q27.08393515625,30.925,27.00043515625,30.925L18.00033515625,30.925Z" fill-rule="evenodd" fill="#363538" fill-opacity="1" style="mix-blend-mode:passthrough"/></g></g></svg>