<svg xmlns="http://www.w3.org/2000/svg" xmlns:xlink="http://www.w3.org/1999/xlink" fill="none" version="1.1" width="54" height="54" viewBox="0 0 54 54"><defs><clipPath id="master_svg0_88_00727"><rect x="0" y="0" width="54.000003814697266" height="54" rx="0"/></clipPath></defs><g clip-path="url(#master_svg0_88_00727)"><g><path d="" fill="#FFFFFF" fill-opacity="0" style="mix-blend-mode:passthrough"/></g><g><path d="M24.187620703125,33.74991875L24.187620703125,40.49991875C24.187620703125,41.43191875,23.432120703125,42.18741875,22.500120703125,42.18741875C21.568120703125,42.18741875,20.812620703125,41.43191875,20.812620703125,40.49991875L20.812620703125,33.74991875C20.812620703125,32.817918750000004,21.568120703125,32.06241875,22.500120703125,32.06241875C23.432120703125,32.06241875,24.187620703125,32.817918750000004,24.187620703125,33.74991875ZM31.500120703125,32.06241875C30.568120703125,32.06241875,29.812620703125,32.817918750000004,29.812620703125,33.74991875L29.812620703125,40.49991875C29.812620703125,41.43191875,30.568120703125,42.18741875,31.500120703125,42.18741875C32.432120703125,42.18741875,33.187620703125,41.43191875,33.187620703125,40.49991875L33.187620703125,33.74991875C33.187620703125,32.817918750000004,32.432120703125,32.06241875,31.500120703125,32.06241875ZM45.450120703125,28.04391875L43.724420703125,41.56641875C43.179920703125,45.77561875,39.598620703125,48.92851875,35.354420703125,48.93521875L18.704420703125002,48.93521875C14.471970703125,48.92501875,10.898310703125,45.78871875,10.338880703125,41.59341875L8.561380703125,28.04391875C5.961535703125,26.79371875,4.574606703125,23.90931875,5.221516703125,21.09791875C5.868426703125,18.28651875,8.376570703125001,16.29841875,11.261380703124999,16.31021875L14.807380703125,16.31021875L21.064620703125,5.87919775C21.548820703125,5.09043765,22.577820703125,4.83879475,23.371320703125,5.31513775C24.164820703125,5.79148075,24.426620703125,6.81804875,23.958120703125,7.616198750000001L18.740420703125,16.31021875L35.280120703125,16.31021875L30.062420703125,7.616198750000001C29.593920703125,6.81804875,29.855720703125,5.79153275,30.649220703125,5.31520575C31.442620703125,4.83887875,32.471720703125,5.09048655,32.955920703125,5.87919675L39.213120703125,16.31021875L42.750120703125,16.31021875C45.634920703125,16.29841875,48.143120703125,18.28651875,48.790020703125,21.09791875C49.436920703125,23.90931875,48.049920703125,26.79371875,45.450120703125,28.04391875ZM41.964920703125,28.68741875L12.048880703125,28.68741875L13.684630703125,41.15691875C14.019990703125,43.67361875,16.163220703125,45.55541875,18.702120703125,45.56241875L35.352120703124996,45.56241875C37.898220703125,45.55851875,40.046420703125,43.66641875,40.371920703125,41.14121875L41.964920703125,28.68741875ZM45.564920703125,22.49991875C45.562420703125,20.94771875,44.304620703125,19.68991875,42.752420703125,19.68741875L11.250130703125,19.68741875C9.696070703124999,19.68641875,8.435680703125,20.94591875,8.435680703125,22.49991875C8.435680703125,24.05401875,9.696070703124999,25.31351875,11.250130703125,25.31241875L42.750120703125,25.31241875C44.302420703125,25.31001875,45.560120703125,24.05221875,45.562620703125,22.49991875L45.564920703125,22.49991875Z" fill="#333333" fill-opacity="1" style="mix-blend-mode:passthrough"/></g><g><path d="M24.187625885009766,33.74994659423828L24.187625885009766,40.49994659423828C24.187625885009766,41.43192659423828,23.432105885009765,42.18744659423828,22.500125885009766,42.18744659423828C21.568142885009767,42.18744659423828,20.812623977659765,41.43192659423828,20.812625885009766,40.49994659423828L20.812625885009766,33.74994659423828C20.812623977659765,32.81796659423828,21.568142885009767,32.06244659423828,22.500125885009766,32.06244659423828C23.432105885009765,32.06244659423828,24.187625885009766,32.81796659423828,24.187625885009766,33.74994659423828ZM31.500125885009766,32.06244659423828C30.568145885009766,32.06244659423828,29.812625885009766,32.81796659423828,29.812625885009766,33.74994659423828L29.812625885009766,40.49994659423828C29.812625885009766,41.43192659423828,30.568145885009766,42.18744659423828,31.500125885009766,42.18744659423828C32.43212588500977,42.18744659423828,33.187625885009766,41.43192659423828,33.187625885009766,40.49994659423828L33.187625885009766,33.74994659423828C33.187625885009766,32.81796659423828,32.43212588500977,32.06244659423828,31.500125885009766,32.06244659423828Z" fill="#18CBE6" fill-opacity="1" style="mix-blend-mode:passthrough"/></g></g></svg>