<svg xmlns="http://www.w3.org/2000/svg" xmlns:xlink="http://www.w3.org/1999/xlink" fill="none" version="1.1" width="55" height="55" viewBox="0 0 55 55"><defs><clipPath id="master_svg0_79_11331"><rect x="0" y="0" width="55" height="55" rx="0"/></clipPath></defs><g clip-path="url(#master_svg0_79_11331)"><g><path d="M37.843770703125,29.9990234375L18.407470703125,29.9990234375C17.371936703125,29.9990234375,16.532470703125,29.1595534375,16.532470703125,28.1240234375C16.532470703125,27.0884894375,17.371936703125,26.2490234375,18.407470703125,26.2490234375L37.842470703125,26.2490234375C38.877970703125,26.2490234375,39.717470703125,27.0884894375,39.717470703125,28.1240234375C39.717470703125,29.1595534375,38.877970703125,29.9990234375,37.842470703125,29.9990234375L37.843770703125,29.9990234375Z" fill="#18CBE6" fill-opacity="1" style="mix-blend-mode:passthrough"/></g><g><path d="M9.375,24.1112C8.339466,24.1112,7.499999475479,23.2718,7.5,22.2362L7.5,13.54125C7.5041327,10.20598,10.20723,7.50344243,13.5425,7.5L22.2012,7.5C23.236800000000002,7.5,24.0763,8.339466,24.0763,9.375C24.0763,10.41053,23.236800000000002,11.25,22.2012,11.25L13.5425,11.25C12.27745,11.251380000000001,11.25207,12.2762,11.25,13.54125L11.25,22.2363C11.25,23.2718,10.41053,24.1113,9.375,24.1112Z" fill="#333333" fill-opacity="1" style="mix-blend-mode:passthrough"/></g><g><path d="M46.87496953125,24.1112C45.83946953125,24.1112,44.99996953125,23.2718,44.99996953125,22.2362L44.99996953125,13.54125C44.99866953125,12.276399999999999,43.97356953125,11.25137,42.70876953125,11.25L34.05126953125,11.25C33.01573553125,11.25,32.17626953125,10.41053,32.17626953125,9.375C32.17626953125,8.339466,33.01573553125,7.5,34.05126953125,7.5L42.70876953125,7.5C46.043869531249996,7.50344872,48.74656953125,10.20619,48.74996953125,13.54125L48.74996953125,22.2363C48.74996953125,23.2718,47.91056953125,24.1113,46.87496953125,24.1112Z" fill="#333333" fill-opacity="1" style="mix-blend-mode:passthrough"/></g><g><path d="M22.2012,48.749871875L13.5425,48.749871875C10.20724,48.746471875,7.50413637,46.043971875,7.5,42.708671875L7.5,34.013671875C7.5,32.978137875,8.339466,32.138671875,9.375,32.138671875C10.41053,32.138671875,11.25,32.978137875,11.25,34.013671875L11.25,42.708671875C11.25207,43.973771875,12.27744,44.998571874999996,13.5425,44.999871875L22.2012,44.999871875C23.236800000000002,44.999871875,24.0763,45.839371875,24.0763,46.874871875C24.0763,47.910471875,23.236800000000002,48.749871875,22.2012,48.749871875Z" fill="#333333" fill-opacity="1" style="mix-blend-mode:passthrough"/></g><g><path d="M42.70876953125,48.749871875L34.05126953125,48.749871875C33.01573553125,48.749871875,32.17626953125,47.910471875,32.17626953125,46.874871875C32.17626953125,45.839371875,33.01573553125,44.999871875,34.05126953125,44.999871875L42.70876953125,44.999871875C43.97356953125,44.998571874999996,44.99866953125,43.973471875,44.99996953125,42.708671875L44.99996953125,34.013671875C44.99996953125,32.978137875,45.83946953125,32.138671875,46.87496953125,32.138671875C47.91056953125,32.138671875,48.74996953125,32.978137875,48.74996953125,34.013671875L48.74996953125,42.708671875C48.74656953125,46.043771875,46.043869531249996,48.746471875,42.70876953125,48.749871875Z" fill="#333333" fill-opacity="1" style="mix-blend-mode:passthrough"/></g></g></svg>