<svg xmlns="http://www.w3.org/2000/svg" xmlns:xlink="http://www.w3.org/1999/xlink" fill="none" version="1.1" width="54" height="54" viewBox="0 0 54 54"><defs><clipPath id="master_svg0_79_03925"><rect x="0" y="0" width="54.000003814697266" height="54" rx="0"/></clipPath></defs><g clip-path="url(#master_svg0_79_03925)"><g><path d="M7.7219775390625,17.766054687500002L3.4019775390625,17.766054687500002L3.4019775390625,5.6160546875L5.5619775390625,3.4560546875L17.7659775390625,3.4560546875L17.7659775390625,7.7760546875L7.7219775390625,7.7760546875L7.7219775390625,17.766054687500002ZM17.7659775390625,50.5440546875L5.5619775390625,50.5440546875L3.4019775390625,48.3840546875L3.4019775390625,36.2340546875L7.7219775390625,36.2340546875L7.7219775390625,46.2240546875L17.7659775390625,46.2240546875L17.7659775390625,50.5440546875ZM50.4359775390625,17.766054687500002L46.1159775390625,17.766054687500002L46.1159775390625,7.7760546875L36.0719775390625,7.7760546875L36.0719775390625,3.4560546875L48.2759775390625,3.4560546875L50.4359775390625,5.6160546875L50.4359775390625,17.766054687500002ZM48.2759775390625,50.5440546875L32.3459775390625,50.5440546875L32.3459775390625,46.2240546875L46.1159775390625,46.2240546875L46.1159775390625,34.7760546875L50.4359775390625,34.7760546875L50.4359775390625,48.3840546875L48.2759775390625,50.5440546875Z" fill="#141517" fill-opacity="1" style="mix-blend-mode:passthrough"/></g><g><path d="M17.225961914062502,17.6578671875L20.4659619140625,17.6578671875L20.4659619140625,22.8418671875L17.225961914062502,22.8418671875L17.225961914062502,17.6578671875ZM21.9239619140625,30.3478671875L25.1639619140625,30.3478671875L25.1639619140625,37.367867187499996L21.9239619140625,37.367867187499996L21.9239619140625,30.3478671875ZM13.9859619140625,30.3478671875L17.225961914062502,30.3478671875L17.225961914062502,36.3958671875L13.9859619140625,36.3958671875L13.9859619140625,30.3478671875ZM29.861961914062498,30.3478671875L33.1019619140625,30.3478671875L33.1019619140625,35.5318671875L29.861961914062498,35.5318671875L29.861961914062498,30.3478671875ZM37.2599619140625,30.3478671875L40.499961914062496,30.3478671875L40.499961914062496,38.5018671875L37.2599619140625,38.5018671875L37.2599619140625,30.3478671875ZM25.1639619140625,15.7138671875L28.4039619140625,15.7138671875L28.4039619140625,22.8418671875L25.1639619140625,22.8418671875L25.1639619140625,15.7138671875ZM33.1019619140625,17.3878671875L36.3419619140625,17.3878671875L36.3419619140625,22.8418671875L33.1019619140625,22.8418671875L33.1019619140625,17.3878671875Z" fill="#000000" fill-opacity="1" style="mix-blend-mode:passthrough"/></g><g><path d="M0.5400390625,24.947265625L53.4600390625,24.947265625L53.4600390625,28.187265625000002L0.5400390625,28.187265625000002L0.5400390625,24.947265625Z" fill="#000000" fill-opacity="1" style="mix-blend-mode:passthrough"/></g></g></svg>