<svg xmlns="http://www.w3.org/2000/svg" xmlns:xlink="http://www.w3.org/1999/xlink" fill="none" version="1.1" width="42" height="42" viewBox="0 0 42 42"><defs><linearGradient x1="0.5" y1="0" x2="0.5" y2="1" id="master_svg0_129_01499"><stop offset="0%" stop-color="#E8EFFE" stop-opacity="1"/><stop offset="100%" stop-color="#C4D1EC" stop-opacity="1"/></linearGradient></defs><g><g><g><ellipse cx="21" cy="21" rx="21" ry="21" fill="url(#master_svg0_129_01499)" fill-opacity="1"/></g><g><g><path d="M7,16.0027C7,17.016849999999998,7.811014,17.83831,8.81227,17.83831C9.81352,17.83831,10.62453,17.016849999999998,10.62453,16.0027C10.62453,14.98855,9.81352,14.16709,8.81227,14.16709C7.811014,14.16709,7,14.98855,7,16.0027ZM31.3755,16.0027C31.3755,17.016849999999998,32.186499999999995,17.83831,33.1877,17.83831C34.189,17.83831,35,17.016849999999998,35,16.0027C35,14.98855,34.189,14.16709,33.1877,14.16709C32.186499999999995,14.17216,31.3755,14.98855,31.3755,16.0027ZM19.135199999999998,10.88632C19.135199999999998,11.93089,19.9662,12.772639999999999,20.997500000000002,12.772639999999999C22.0288,12.772639999999999,22.8598,11.93089,22.8598,10.88632C22.8598,9.841744,22.0288,9,20.997500000000002,9C19.9662,9,19.135199999999998,9.841744,19.135199999999998,10.88632Z" fill="#456CBF" fill-opacity="1" style="mix-blend-mode:passthrough"/></g><g><path d="M26.24426280670166,20.495545086212157L20.997662806701662,10.886475086212158L15.75614280670166,20.495545086212157L8.81246280670166,16.002855086212158L11.92135280670166,28.289275086212157C11.96640280670166,28.48197508621216,12.14162280670166,28.618875086212157,12.346882806701661,28.618875086212157L29.66856280670166,28.618875086212157C29.86876280670166,28.618875086212157,30.03896280670166,28.48197508621216,30.09406280670166,28.289275086212157L33.19296280670166,16.002855086212158L26.24426280670166,20.495545086212157ZM22.15416280670166,26.773175086212156L19.996462806701658,26.773175086212156L17.66352280670166,22.356475086212157L19.711062806701662,22.356475086212157L20.912562806701658,25.14037508621216C21.04276280670166,25.444575086212158,21.11786280670166,25.69817508621216,21.13286280670166,25.900975086212156L21.16286280670166,25.900975086212156C21.192962806701658,25.68797508621216,21.27306280670166,25.444575086212158,21.39816280670166,25.165675086212158L22.619762806701658,22.361575086212156L24.62226280670166,22.361575086212156L22.15416280670166,26.773175086212156ZM28.927562806701662,32.99997508621216L13.067782806701661,32.99997508621216C12.48205280670166,32.99997508621216,12.00145280670166,32.51317508621216,12.00145280670166,31.91997508621216L12.00145280670166,31.51427508621216C12.00145280670166,30.92097508621216,12.48205280670166,30.434175086212157,13.067782806701661,30.434175086212157L28.927562806701662,30.434175086212157C29.51336280670166,30.434175086212157,29.99396280670166,30.92097508621216,29.99396280670166,31.51427508621216L29.99396280670166,31.91997508621216C29.99896280670166,32.51317508621216,29.51836280670166,32.99997508621216,28.927562806701662,32.99997508621216Z" fill="#456CBF" fill-opacity="1" style="mix-blend-mode:passthrough"/></g></g></g></g></svg>