<svg xmlns="http://www.w3.org/2000/svg" xmlns:xlink="http://www.w3.org/1999/xlink" fill="none" version="1.1" width="54" height="54" viewBox="0 0 54 54"><defs><clipPath id="master_svg0_79_11076"><rect x="0" y="0" width="54.000003814697266" height="54" rx="0"/></clipPath></defs><g clip-path="url(#master_svg0_79_11076)"><g><path d="M41.34375,6.75L12.65625,6.75C8.01563,6.75,4.21875,10.54688,4.21875,15.1875L4.21875,38.8125C4.21875,43.4531,8.01563,47.25,12.65625,47.25L41.34375,47.25C45.98435,47.25,49.78125,43.4531,49.78125,38.8125L49.78125,15.1875C49.78125,10.54688,45.98435,6.75,41.34375,6.75ZM46.40625,32.0625L31.21875,32.0625C28.43435,32.0625,26.15625,29.7844,26.15625,27C26.15625,24.2156,28.43435,21.9375,31.21875,21.9375L46.40625,21.9375L46.40625,32.0625ZM31.21875,18.5625C26.57815,18.5625,22.78125,22.3594,22.78125,27C22.78125,31.6406,26.57815,35.4375,31.21875,35.4375L46.40625,35.4375L46.40625,38.8125C46.40625,41.5969,44.12815,43.875,41.34375,43.875L12.65625,43.875C9.87188,43.875,7.59375,41.5969,7.59375,38.8125L7.59375,15.1875C7.59375,12.40313,9.87188,10.125,12.65625,10.125L41.34375,10.125C44.12815,10.125,46.40625,12.40313,46.40625,15.1875L46.40625,18.5625L31.21875,18.5625Z" fill="#333333" fill-opacity="1"/></g><g><path d="M32.90625,27Q32.90625,27.0829,32.89812,27.165399999999998Q32.89,27.24791,32.87383,27.32921Q32.85765,27.410519999999998,32.83359,27.48986Q32.80952,27.56919,32.7778,27.64578Q32.74607,27.72237,32.70699,27.79548Q32.66791,27.86859,32.62185,27.93752Q32.5758,28.00645,32.52321,28.07054Q32.47061,28.134619999999998,32.41199,28.19324Q32.35337,28.25186,32.28929,28.30446Q32.2252,28.35705,32.15627,28.4031Q32.08734,28.44916,32.01423,28.48824Q31.94112,28.52732,31.86453,28.55905Q31.78794,28.59077,31.70861,28.61484Q31.629269999999998,28.6389,31.54796,28.655079999999998Q31.46666,28.67125,31.384149999999998,28.67937Q31.30165,28.6875,31.21875,28.6875Q31.13585,28.6875,31.053350000000002,28.67937Q30.97084,28.67125,30.88954,28.655079999999998Q30.808230000000002,28.6389,30.72889,28.61484Q30.64956,28.59077,30.57297,28.55905Q30.496381,28.52732,30.423268,28.48824Q30.350155,28.44916,30.281225,28.4031Q30.212295,28.35705,30.148211,28.30446Q30.084128,28.25186,30.025507,28.19324Q29.966887,28.134619999999998,29.914295,28.07054Q29.861703,28.00645,29.815645,27.93752Q29.769587,27.86859,29.730508,27.79548Q29.691428,27.72237,29.659703,27.64578Q29.6279782,27.56919,29.6039132,27.48986Q29.5798481,27.410519999999998,29.5636748,27.32921Q29.5475015,27.24791,29.53937577,27.165399999999998Q29.53125,27.0829,29.53125,27Q29.53125,26.9171,29.53937577,26.834600000000002Q29.5475015,26.75209,29.5636748,26.67079Q29.5798481,26.589480000000002,29.6039132,26.51014Q29.6279782,26.43081,29.659703,26.35422Q29.691428,26.277631,29.730508,26.204518Q29.769587,26.131405,29.815645,26.062475Q29.861703,25.993545,29.914295,25.929461Q29.966887,25.865378,30.025507,25.806757Q30.084128,25.748137,30.148211,25.695545Q30.212295,25.642953,30.281225,25.596895Q30.350155,25.550837,30.423268,25.511758Q30.496381,25.472678,30.57297,25.440953Q30.64956,25.4092282,30.72889,25.3851632Q30.808230000000002,25.3610981,30.88954,25.3449248Q30.97084,25.3287515,31.053350000000002,25.32062577Q31.13585,25.3125,31.21875,25.3125Q31.30165,25.3125,31.384149999999998,25.32062577Q31.46666,25.3287515,31.54796,25.3449248Q31.629269999999998,25.3610981,31.70861,25.3851632Q31.78794,25.4092282,31.86453,25.440953Q31.94112,25.472678,32.01423,25.511758Q32.08734,25.550837,32.15627,25.596895Q32.2252,25.642953,32.28929,25.695545Q32.35337,25.748137,32.41199,25.806757Q32.47061,25.865378,32.52321,25.929461Q32.5758,25.993545,32.62185,26.062475Q32.66791,26.131405,32.70699,26.204518Q32.74607,26.277631,32.7778,26.35422Q32.80952,26.43081,32.83359,26.51014Q32.85765,26.589480000000002,32.87383,26.67079Q32.89,26.75209,32.89812,26.834600000000002Q32.90625,26.9171,32.90625,27Z" fill="#18CBE6" fill-opacity="1"/></g></g></svg>